<svg xmlns="http://www.w3.org/2000/svg" viewBox="0 0 455.02 443.52"><title>Asset 1</title><g id="Layer_2" data-name="Layer 2"><g id="Layer_1-2" data-name="Layer 1"><path d="M103.64,203.85c-8.73-5.46-10.58-13.6-8.9-23.07.33-1.89.25-4,2.17-5.27a4.56,4.56,0,0,1,6.62.11c2.38,2.14,3.16,1.06,3.94-1.45,1.13-3.62,2.11-7.21,1.5-11,.41-1.47.47-3.05,1.3-4.4,3-2.45,3.37-6.41,5.49-9.36,2.38-2.57,5-1.14,7.6-.47,3.1,3.47,6.2,6.19,11.48,6.8s8.49,6.05,12.29,9.63c19.21,18.08,37.14,37.62,59.88,51.61,2.92,1.8,5.48,3.46,9.15,2,3.16-1.23,5.35.25,6.64,3.4,2.43,6,6.57,9.48,13.23,10.6a236.8,236.8,0,0,1,30,7.18c3,.92,6,.65,8.28-1.86,2.64-2.87,5.42-4.78,9.62-3,1.59.68,3.22-.38,4.5-1.55,3.27-1.37,5.72-.42,7.51,2.58,2.1,3.49,5.5,5.69,8.23,8.39.54.17.73,0,.75-.45.42-9.44.44-9.32,9.56-11.26,3.91-.83,7.65-2.08,11.72-.87,2.13.63,3-.75,3-2.78.11-4.39,3-6.75,6.73-7.56,4.85-1.06,9.55-2.65,14.44-3.63,5.91-1.18,11.74-2,17.72-1.11a4.94,4.94,0,0,0,4.14-1.22c4.42-3.81,7.78-8.6,11.6-13,2.51-2.87-1.92-4.1-1.9-6.47.32-3.54,2.76-6,4.67-8.65,2.37-3.28,2.77-6.47.48-9.68-5-7-3.48-14.15-1.16-21.47.83-2.6,2.21-3.57,5.12-3.46,5.28.19,10.61.55,15.89-.26,7.86-.63,10.72,1.62,12.09,9.46,1.18,6.81,2.72,7.21,9.32,4.81,8.17-3,14.4-8.44,20.71-14,1.84-1.63,4-2.93,6-4.38v4a22.73,22.73,0,0,1-8.66,9.39,12.47,12.47,0,0,0-3.84,3.14c-5.72,7.94-14.13,7.88-22.47,7.27-3.55-.27-5.41-3.28-6.44-6.77-2.38-8-6.15-9.71-14-6.56-1,.39-1.82.86-2.06,1.94a36,36,0,0,0-.8,12.87c.33,2.34,2.07,2.74,4.11,2.5,4.28-.5,6.21,1.65,6.26,5.72.09,7.78.36,15.6-3,22.91-1.08,2.33-1.68,4,1.56,5.5,3.69,1.72,4.24,5.1,2.29,8.85a27.09,27.09,0,0,0-2,3.73c.42.76,1,.9,1.38.62,8.79-6.58,19.66-9.44,28.47-16,2.8-2.08,4.26-5.42,7.6-7.06,5.61-2.77,7.19-2.47,10,3.06a9.4,9.4,0,0,0,1.66,1.85v8c-2.84,2.67-1.2,5.33,0,8V355.6c-3.22,3.55-7.32,2.29-11.19,2-9.51-.81-19-1.84-25.42-3.28,9,1.61,21.08,3,32.88,6a7.57,7.57,0,0,1,3.73,2.27v80.93c-2.61-4.3-3.83-9.13-5.17-13.9s-3.41-8.92-7.76-11.76c-20.4-13.35-39-28.82-54.82-47.46-6.51-7.71-15-12.48-23.18-17.74-6.86-4.58-10.34-11.94-14.9-18.37-2-2.82-3.76-5.84-5.62-8.78-1.24-1.95-2.51-3.81-2.42-6.37a7.51,7.51,0,0,0-3.48-6.32c-7.78-5-13.35-12.16-19.27-19a9.63,9.63,0,0,0-2.51-1.59c-5.24-6.77-12.34-12.07-15.71-20.36-1.06-2.6-4.15-3.09-6.59-4.14s-5.08-2.4-8.53-3.93a222.1,222.1,0,0,0,28.34,34.06c2.2,2.89,3.48,6.31,5.54,9.31,1.93,2.81,1,6.53-1.81,7-7.53,1.19-15.11,3.66-22.78.62-22.53-8.06-46.15-10.62-69.64-13.88a51.45,51.45,0,0,1-27.37-13.25c-8-7.24-16.89-13.31-24.37-21.09S156.2,253,147.31,247c-4.2-2.87-7.07-7-10.74-10.32-1.11-3.8-4.14-6.31-6.28-9.42-1-1.5-2.47-3-.86-4.86,1.38-1.62,3.19-1.49,5-1,10.71,3,21.3,6.51,31,11.94,4.8,2.68,9.64,3.21,14.78,3.41-3.88.36-7.1-1.76-10.41-3.07-17.71-7-35.86-12.72-53.44-20.07C111.06,211.38,107.73,207.31,103.64,203.85Z" style="fill:#1a171b"/><path d="M455,205.73c-1.16-.07-2.38,0-3.26-.94-1.14-1.25-1.09-4.1-3.53-3.53a12.92,12.92,0,0,0-7.07,4.37c-5.1,6.16-12.05,9.83-19.1,12.86-4.51,1.93-8.85,3.79-12.24,7.28-1.88,1.93-3.71,1.81-5.88,1.13-1.42-.44-3.1-.58-3.35-2.47-.21-1.65,1.12-2.23,2.31-2.86a6.45,6.45,0,0,0,3.7-5c.16-2.12.24-5.38-3.74-3.3-3.23,1.7-3.95.41-3.19-2.63a22.78,22.78,0,0,1,1.46-4.75c3.92-7.72,3.49-16,3.51-24.29,0-3.06-1.14-3.2-3.64-2.66-6,1.29-6.5.59-6.95-5.33-.36-4.77,1.39-9.49-.11-14.31-.61-2,1.44-2.24,2.95-2.43,3.95-.5,7.92-.84,11.84-1.51,2.85-.49,4.48.52,5.27,3.18a5.89,5.89,0,0,0,.26,1c1.84,3.82.68,10.23,6.4,10.74,6.94.62,14.1.67,19.57-5.78,4-4.77,9.53-8.18,14.79-11.65Z" style="fill:#121011"/><path d="M455,362.59c-8.45.53-16.23-2.86-24.36-4.2-7.21-1.19-14.36-2.71-21.52-4.12a4.35,4.35,0,0,1-3.45-2.39c16.95.63,33,3.73,49.33,3.72Z" style="fill:#382f49"/><path d="M455,221.72c-4.55-4.7-4.55-5.63,0-8Z" style="fill:#121011"/><path d="M245.29,109.94c-8.73-3.18-13.39-10.15-17.5-18.08,2.37-.72,3.67.67,5.21,1.07,2.09.53,4.12,1.31,6.23,1.71,3.55.68,8.12.6,9.89-1.76s-2-5.44-3.79-7.85a68.16,68.16,0,0,0-24.14-20.3C228,61.72,234,60.25,240.5,62c1.06.3,2.27,1.42,3.22.32,1.15-1.34-.42-2.35-.92-3.49-1.16-2.66-3.29-4.93-3.7-8.87,2.62,1.82,4.53,3.26,6.56,4.5,1.19.73,2.62,2.29,4,.88S249,53,248.44,52a34.27,34.27,0,0,1-4.63-19.28c4.31,7.15,8.3,13,14.4,16.93a19.32,19.32,0,0,0,1.61,1.17c1.44.71,3.15,2.25,4.5,1s-.62-2.62-1.06-4C261.74,43.26,258,40,255.5,35.44c2.56-.25,4,1.2,5.68,2.16,1.09.64,1.95,2.43,3.32,1.59s.53-2.69.41-4.12c-.49-5.57-.3-11.23,3.1-15.8,2.4-3.23,5.06-6.34,7.91-10.53,1.8,8.69,1,17,6.13,25.35,1.73-12.34,5.41-22.75,13.17-31.28,2-.59,3-.2,2.07,2.08v0a49.45,49.45,0,0,0,5.27,32c.59-1,.87-2.67,2.79-2.07,6.2-2.51,8-8.33,9.91-13.8,1.42-4.14,1.71-8.67,2.61-13.6,3,3.2,4.09,6.89,5.44,10.45,2.39,5.05,5.28,9.88,6.17,14.64-3-3.88-.19-7.28,2.71-10.66,4.87-4.46,5.14-10.44,5-17.29,3.6,3.32,3.24,7.47,5,10.61,1.86,2.89,1.72,6.49,3.29,9.48,2,8.81,3.84,17.65,3.91,26.75a12.65,12.65,0,0,0,1.87,6.09c2.06,3.74,1.57,7.88.41,11.59-1.06,3.4-4.05,4.65-7.65,2.94a4,4,0,0,1-1.88-1.39c-.83-.92-1.62-1.88-2.47-2.79-1.88-2.9-4.38-1.77-6.62-.78-4,1.78-7,1.6-8.47-3.31-.46-1.54-1.8-2.76-2.93-4,4.8,5.88,3.74,11.07-3.48,12.59-4.42.93-8.47,2.59-12.61,4-5.34,1.83-10.06,1-15-1.42.57,1.39,1.68,1.94,2.42,2.83,1.89,2.29,1.62,4.33-.94,5.79a49.08,49.08,0,0,0-15.87,14,9.74,9.74,0,0,1-3.33,3c-6.34,3.27-10.56,8.68-14.37,14.44a6.61,6.61,0,0,1-6.22,3.33c-3.23-.15-4.32-2.81-5.46-5.16C246.3,112.11,247.11,110.42,245.29,109.94Z" style="fill:#bab7bb"/><path d="M283.36,153.78c-.71-4.38-3.31-7.64-6.67-10.17-2.5-1.88-3.31-4-2.51-6.85-1.44-3.18.69-5.44,2.17-7.71a93.61,93.61,0,0,1,28.42-28.11,96.3,96.3,0,0,1,32.89-13.61c10.86-2.23,21.74-3.64,32.87-2.2,3.4.44,6.2,2.17,9.31,3.19.84.28,2.53,1.39.32,2.51-4.53-.58-5.43,1.23-4,5.39,1.35,4,2.09,8.19,3.09,12.3,1.58,1,2.61.11,3.72-.91a2.91,2.91,0,0,1,4.07-.26c1.57,1.27,1.2,2.83.4,4.48-1.26,2.57-3.77,4.76-2.62,8.58.68-1.41.57-3,2.12-3.32a3.85,3.85,0,0,1,4,1.4c2.27,2.56,4,5.18,2.8,9a41.81,41.81,0,0,1-3.16,8.32c-1,1.73-2,3.17-4.15,2.82s-2.91-1.88-3.48-3.77c-1.47-4.92-3-9.81-4.57-14.71-1-3-1.93-4.07-5.24-2.62a19,19,0,0,0-7.11,5.05c-2.37.71-3.85,2.56-5.43,4.26-5.25,5.24-12.32,4.08-18.71,5.2-2.41.43-4.49.55-5.3,3.43-.53,1.87-2.26,2.45-4,1.85-3-1-4.95.53-6.26,2.72-1.9,3.16-4.66,5.58-6.74,8.57a7.31,7.31,0,0,1-1,1.07c-5.7,2.47-11.09,5.61-17,7.7-3.09,1.1-6.13,2.32-9.45,2.52a9.18,9.18,0,0,1-3.79.36,6.64,6.64,0,0,1-1.53-.27C283.09,159.3,284.22,156,283.36,153.78Z" style="fill:#2a272a"/><path d="M245.29,109.94c2.62-.2,2.44,2.29,3.44,3.63,2.66,3.56,6.51,3.76,7.69,0,1.72-5.47,6.3-8.81,10.07-11.5,5.61-4,9.49-9.52,14.8-13.58,3.57-2.74,6.23-6.83,11.52-7.59-3-3.21-5.73-6-10.24-7.7,4.35-2.45,7.84-.85,10.9.46,6,2.57,11.25,1.15,16.41-1.82A7.36,7.36,0,0,1,315,70.52c4,.67,6.21-2.43,8-4.88,1.48-2-1.53-3.6-2.71-5.3-1-1.48-2.08-2.94-3.78-5.32,5.18,1.74,7.27,5.2,9.5,8.49,1.81,2.68,5.91,3.32,7.06.58,2.12-5.06,3.8-1.46,5.53-.21a16,16,0,0,1,2.53,3c-1.14,2.1.45,3.78.79,5.66.47,2.64,1.73,5.84-2.71,6.49-.34,0-.7,0-1,.09-1,2.83-1.68,6.39-5.86,3.2-.58-.44-.61-.28-.9.23C328.74,87.32,323,86.37,319.1,89c-1.94,1.29-4.48,1.28-7.12,1-3-.26-5,2.67-7,5-5.1,5.94-10.79,10.77-19.42,9.3-.49,8.89-3.5,11.65-10.49,9.78,1.69,4.83-1,6.83-9.61,7.21,2.41.39,6-1.5,6.82,2.52.69,3.52-1.62,5.92-4.65,7.42-3.23,1.59-6.46,3.46-10.25,1.6C249,129,240,129.56,229.69,130.19c6-5.26,11-9.62,16-14-1.36-2.28-3.88.07-5.33-1.43C240.66,111.71,246,113.94,245.29,109.94Z" style="fill:#a39eac"/><path d="M112.63,159.64c-1.11,1.19-.74,2.72-.92,4.12-.82,2-2.38,3.65-3.1,5.73-2.47,2.7-5.77,2.76-9.08,3a24,24,0,0,0-6.25,1.33c-3.57,1-7.15.26-10.73.05a6.68,6.68,0,0,1-5-2.79c-1.92-3.17-4.88-3.52-8-3.72-4,1.38-7.6-.74-11.37-1.3-1.8-.39-3.31-1.54-5-2.09-2.21-.7-4.47-1.32-6.51.68-1.83,1.79-4,2.36-6.36,1-2.49-1.48-2.28-3.79-1.62-6.17,1.91-2.4,5-2.42,7.46-3.61,2.8-1.35,6-2.37,5-6.73-.48-2-1.12-3-3.38-3.5-2.51-.54-5.3-.52-7.53-2.18-1.68-1.69-.53-3.26,1-5.41-5.69,2-9.4-.48-13.07-3.08-1.93-1.37-3-3.06-1.58-5.44,3.95-1.64,7.59.83,11.39,1.14,3,.24,6,.42,9,.63,2.54.16,4-.45,4.46-3.25s.21-5.07-2.64-6.14c-8.16-3.07-14.65-8.77-21.54-13.79a92.55,92.55,0,0,1-13.57-12.4c-1-1.1-2.22-2.07-1.75-3.84l-1.05-1a4.2,4.2,0,0,1-.69-.71c-2-3.25-3.31-7.39-.77-10,2.84-3,5.87.58,8.54,2.24C30.4,92.8,44.07,101.63,57.57,110.7c2.72,1.83,5.52,3.42,8.11-.29,2.43-3.47,2.09-5.79-1.37-9-1.18-1.08-2.94-1.69-3-3.67a4.8,4.8,0,0,1,3.91-5c2.56-.65,4.37.56,5.73,2.74,1.63,2.59,5.27,4.37,2.91,8.44-.68,1.16.63,1.58,1.57,1.9,1.46.49,2.72,1.19,2.94,2.93-.63,2.88-2.87,4.59-5.18,5.65-2.78,1.29-4.82,3.24-7.14,5.1-6.67,5.34-7.86,13.05-9.19,20.45-1.09,6.08,6.56,16.56,12.42,18.63a65.89,65.89,0,0,1,8.17,3.64c5.82,3,12,3,18.21,2.85,2.87-.09,10.76-7.24,10.67-10.7-.18-6.83,1.68-13.49,1.22-20.32-.26-3.79-.91-6.93-5.53-7.42A3.17,3.17,0,0,1,99.32,124c-.21-4-.7-7.92.15-11.86.08-.14.12-.37.24-.42,6.18-2.43,8.45-7.07,7.84-13.49a3,3,0,0,1,2.21-3.46c1.46-.35,1.94.84,2.26,2a61,61,0,0,1,0,8.55A21.45,21.45,0,0,0,116,119.57c2.32,3.3,1.33,7.13.93,10.6-.35,3-.24,6.24-1.46,9.14-1.52,3.59,2.32,6,1.88,9.35C115.45,152.19,113.05,155.48,112.63,159.64Z" style="fill:#b09380"/><path d="M257.38,132.82c4.56-1,8.79-2.82,12-6.27,1.87-2,1.56-3.65-1.63-3.69a51,51,0,0,1-9.13-.59c3.55-2.8,8-1.86,11.63-3.86,1.39-.78,3.88-.59,4-2.46.1-2.2-2.54-2.16-4-3l-2-1.2c2.37-1.21,3.84.25,5.44.61,3,.7,5.93,1,8.28-1.69s.86-5-.09-7.45c-.45-1.16-1.87-2.35-.51-3.56s2.68-.15,3.59.7c3.79,3.52,7.63,1.69,11-.27,2.19-1.28,4-3.38,6.21-4.85,3.52-2.31-.64-4.64-.38-7.14,2.72-.8,3.3,4.23,5.65,2.37,2-1.6.74-4.3,0-6.48.45-.1.91-.31,1-.22,4.09,5.4,8.66,4.91,13.56,1.22a6.09,6.09,0,0,1,1.79-.83c6.62-2.06,6.63-2,5.28-9.22,2.29.88,2.58,3,3.61,4.49.72,1,1.23,2.9,2.82,2.13,1.43-.7.57-2.35.3-3.61-.36-1.7-1.53-3.3-.77-5.42,2.61.69,3,2.61,3.25,4.59.57,3.78,2.82,7.42,1,11.41a5.51,5.51,0,0,1-2,1.28c-19.4,4.84-36.18,14.18-49.77,29-5.05,5.52-9,11.82-13.2,18-2.57,4.31-7,4.2-11.68,4.7C264.87,136.06,260.43,134.9,257.38,132.82Z" style="fill:#8e86a1"/><path d="M364.18,120.83c3.95-2.72,7.82-5.55,11.87-8.11,2.51-1.6,3.18.63,3.69,2.38,1.87,6.38,3.66,12.77,5.45,19.17.27.94.19,2.25,1.32,2.48,1.8.36,1.41-1.41,1.82-2.34A58.18,58.18,0,0,0,391,128c1.39-4.75.86-5.82-3.89-9.34-.42,2,1.28,3,1.9,4.37.39.89,1.29,1.86.35,2.68s-1.73-.23-2.46-.85c-5.58-4.8-5.92-7.8-1.61-14.13.44-.64,1.24-1.16.64-2.47-2.13.39-4.47,6.49-6.69.26,6.36-6,7-6,12.88,1.48,7.21,9.17,6.91,25-.91,33.83a6.06,6.06,0,0,0-1.2,6.82c1,2.73,3.36,2.26,5.48,2.28,3.82,0,7.64,0,11.45,0-4.53,1.51-9.23.65-13.84,1-2.85.19-4.88.87-5,4.15a5.66,5.66,0,0,1-.62,2.4c-3.3,5.83-1.93,11.25,1.69,16.21,3.41,4.67,3.16,8.67-.79,12.87-2,2.15-3.43,4.87-5.12,7.33-.58,1.45-1.29,2.72-3.21,2.29-1-3.18-5-3-6.43-5.77-.41-4.38,1.81-8.1,3.4-11.83,3.63-8.54,3.51-17.21,1.82-26-1.31-6.81-2.5-13.65-4.72-20.27C372.12,129.5,370.74,123.42,364.18,120.83Z" style="fill:#5b4742"/><path d="M380.19,198.8l3-2c1.56,1.24,4-1.69,5.23,1.16,1.06,2.51-.78,4.15-2.07,5.72-3.57,4.35-7.33,8.56-11.1,12.74-2.38,2.65-4.75,4.27-9,3.23-7.61-1.87-15.05.86-22.46,2.51-2.09.46-4.14,1.14-6.22,1.63-5.24,1.22-6.33,2.91-4.9,8.23.75,2.77-.5,3.44-2.77,2.89-6.29-1.54-12.38.09-18.56.79-2.94.33-4.12,1.45-4.08,4.33a50,50,0,0,0,1,11.29l-1.11.62c-4.26-4.55-8.57-9.05-12.75-13.68-1.74-1.93-2.75-4.69-6-4.53,5.69-3.36,11.74-5.43,18.44-4.95,4.89.36,8.31-.7,7.5-6.72a3.79,3.79,0,0,1,1.59-3.5c9-1.19,18.06-2.31,27.06-3.75a7,7,0,0,0,3.55-1.62c2.61-2.45,6.28-1.62,9.24-3,8.18-1.89,16.3-3.9,22.11-10.72A2.87,2.87,0,0,1,380.19,198.8Z" style="fill:#3e314d"/><path d="M343.3,24.88q-.56-4.86-1.09-9.72c3.24,3.1,4.08,7.44,5.66,11.35,1.23,3.07,1.92,4.95,5.09,1.48,1.65-1.82,3.45-4,6.58-4.44.5,2.63-.35,4.75-1.27,6.83-.62,1.39-1.52,2.89.08,4s2.79-.25,3.94-1.17c1.65-1.34,3.15-2.92,5.74-3.43.87,4-2.37,6.65-2.89,10.19,4.19.06,5.94-3.69,8.84-5.55,1.21-.78,2.17-2.56,3.79-1.81,1.85.85,1.22,2.9,1.2,4.47a36.1,36.1,0,0,1-3.66,14.8c.31.59.27,1.31.55,1.88.93,1.86,3.72,2.92,1.91,5.87-2,3.2-3.32,6.87-7.69,7.58a5.68,5.68,0,0,0-3.49,1.68C362.93,73,358.17,72.3,353.47,72c-2-1.9-1.36-4.32-1.05-6.55a71.86,71.86,0,0,0,.38-8.92c0-1,.28-2.39-.49-2.84-6.65-4-4-11.06-5.27-16.65C346.09,32.85,342.42,29.54,343.3,24.88Z" style="fill:#897295"/><path d="M77.71,108.78a19.82,19.82,0,0,0-2.3-.74c-1.81-.34-4.26,2.73-5.39-.74-.88-2.68-.31-5.21,3.35-6.28-2-1.18-3.46-1.41-4.26-3.23-2-4.58-3-4.48-6.36,0-1.57.78-2.36-.26-3.29-1.28-8-8.73-14.29-18.81-21.31-28.3a15.67,15.67,0,0,1-2.91-8.28c-.12-2,.21-3.91,2.39-4.93a4.24,4.24,0,0,1,5,.79c3.29,3.19,7,6,9,10.39C65.78,80.61,76,99,94.48,109c5.9,2.42,6.57,4.72,2.82,10-1.14,1.6-2.13,3.41-4.23,4a5.92,5.92,0,0,1-6.39-3.75c-1.66-3.6-3.76-6.54-7.61-8A2.58,2.58,0,0,1,77.71,108.78Z" style="fill:#b0947f"/><path d="M354.19,71.85c.63-.76,1.48-2.27,1.84-2.16,6.08,1.85,9.11-4.82,14.46-5,3.7-.15,5.18-3,6.13-6.17.26-.87.34-1.79-.69-2-4.17-1-1.56-2.9-.63-4.58,1,.86,1.86,2,3,2.5,2.87,1.19,2.74,2.73,1.23,5-1.23,1.83-3.84,4.91-2.45,5.77a9.51,9.51,0,0,0,9,.69c.45-.21.86-.5,1.29-.74,1-.55,2.17-1.41,3.09-.17,1,1.4,0,2.43-1.05,3.36-3.9,3.53-7.76,7.1-9.14,12.49a2.39,2.39,0,0,1-2.32,3.45c-3,0-5.74,1.2-8.76.81-9.29-1.22-18.47-.25-27.57,1.84-1.33.31-1.46,2.39-3.17,1.84.74-3.89-2.25-7.7-.28-11.63l1,.85c3.22,1.68,3.26.45,2.39-2.34-.73-2.38-3.32-5.6,1.74-6.58l1.06.87c.65,1.17,1.38,2.51,2.78,2.64,4,.36,5.46,2.56,4.89,5.25.2,1.77.8.9.19,1.16C352.18,76.38,350.32,73.3,354.19,71.85Z" style="fill:#6a5983"/><path d="M317.3,290.6c4.31,4.54,8.69,9,12.9,13.65a30,30,0,0,0,7.85,6.72c2.24,1.21,3.54,3.62,4.41,5.87,4.4,11.4,12,20.78,19,30.54a22.84,22.84,0,0,1,2.63,5.28,13,13,0,0,1-10.19-5.38c-4.5-5.75-9.32-11.26-13.71-17.09-3.9-5.16-9.85-5.79-15.27-7.55-9.13-3-18.15-6.5-28-6.49-.86,0-1.72-.9-2.58-1.38,7.88,3.06,14.68-2.48,22.16-2.94,2.82-.17,1.61-2.95.63-4.69-1.7-3-4.86-5-6.05-8.39a2.43,2.43,0,0,1,3.58-.09c3.8,3.38,8.21,6.32,8.86,12.09.25,2.3,6.82,8.54,9.08,9a2.48,2.48,0,0,0,2.72-.68c.69-.92.31-1.89-.16-2.8a5.51,5.51,0,0,0-1.84-2.32c-7.14-4.33-10.61-12-16.22-17.77C315.49,294.49,314.92,292.37,317.3,290.6Z" style="fill:#3a314d"/><path d="M103.64,203.85c1.52-.15,3.18-.21,4.23,1,6.81,7.65,16.76,9.11,25.53,12.65,16,6.44,32.28,12,48.42,18,1.47.55,3.2,1,4.21,3.48-7.05-.58-13.68,1.4-20.29-2.62-10.1-6.14-21.38-9.71-32.73-12.91-.78-.22-1.73-.66-2.32.11-.8,1,.17,1.82.73,2.58,2.36,3.2,5,6.24,5.15,10.54-3-3.48-6.33-6.79-9.1-10.48-4-5.3-10.49-6.71-15.49-10.45C107.74,212.55,103.63,209.8,103.64,203.85Z" style="fill:#413653"/><path d="M347.21,214.76c.3,1.77-1,1.78-2.14,2-7.83,1.28-15.64,2.65-23.49,3.84-2.1.32-4.4.48-5.64-2l9.16-20.82c-.76-1.59-.13-2.57,1.39-3.15,8.34.23,12.12,6.37,16,12.39C344,209.64,347.85,210.83,347.21,214.76Z" style="fill:#1e191a"/><path d="M51.66,66.17c-2.83-2.78-5.6-5.61-8.5-8.31-1.3-1.22-2.75-2.69-4.78-1.45-1.86,1.13-1.81,3.11-1.5,4.89a12,12,0,0,0,1.64,4.61c7.42,11.11,15,22.15,24.23,31.87.84,1,1.64,2.06,2.54,3,4.39,4.64,4.21,8.08-.5,12.56-2.32,2.2-4.26,1-6.18-.44C47.77,105,36.1,98.35,25.78,89.73c-2.53-2.11-5.34-3.9-8-5.84a1.82,1.82,0,0,1,2.1-1.1c2.29.46,3.55,2.34,5.19,3.71C35.19,95,46.58,101.78,57.63,109c2.35,1.54,5.25,3.29,7.33-.2,1.76-3,.25-5.29-2.48-7.08-5.22-3.45-8.36-8.93-12.12-13.64-4.68-5.88-8.66-12.38-13.08-18.54a18.05,18.05,0,0,1-3.34-10.71c.05-4.2,3.88-6.93,7.56-5.13A17.88,17.88,0,0,1,51.66,66.17Z" style="fill:#61585d"/><path d="M58.73,163.93c3,3.13,7.17,2.32,10.78,3.39a4.39,4.39,0,0,1-4.59,1.31c-9-3.14-16.21,1.09-23.92,4.72-5.87,2.78-12.53,3-19,1.88-1.81-.32-3.61-1-4-3.21a4.61,4.61,0,0,1,2.46-5c7.75-4.5,15.15-9.73,24-11.95,2.77-.69,5.16-1.59,5.17-5,0-3.67-3.1-3.73-5.33-4-12.79-1.49-24.65-6.34-36.74-10.23-3.74-1.21-7.88-3.91-7.55-9.31a3.46,3.46,0,0,1,3.7.53c8.72,6,18.59,9.24,28.7,11.77a20.74,20.74,0,0,1,8.32,3.95c2.52.72,5,1.62,7.56,2.1,4.11.76,3.9,4.45,5,7.15.6,1.47-1.12,1.62-2.12,2.11-3.82,1.88-7.61,3.84-11.4,5.76C36.85,165,30.5,165.79,26.7,170c2.22,1.76,4.3,1.06,6.36.53a107,107,0,0,0,16.73-6C52.68,163.25,55.66,162.69,58.73,163.93Z" style="fill:#62575c"/><path d="M40.74,142.73C26.08,140.06,11.6,136.9,0,126.48v-2.6c1.19-3,3.92-2.35,5.92-1.88,6.53,1.54,12.77,4.11,19.31,5.67A2.24,2.24,0,0,1,26.81,130c3,4.21,6.73,7.08,12.35,6.07a14,14,0,0,1,3-.19c1.81.06,4.14-.06,4.49,2.13.41,2.52-2,2.56-3.75,2.8C41.65,140.93,40.45,141,40.74,142.73Z" style="fill:#af937d"/><path d="M338.42,88.7c1.19-1.66.67-6.24,4.86-2.86a1,1,0,0,0,.93-.06c7.59-6.48,16.65-1.46,24.77-3.26,3.75-.83,7.87.93,11.26-1.76C388.1,76.13,392,68.62,395,60.44c.45-1.23.49-2.65,2.87-3.79.39,4.81-1.79,8.53-3.52,12.05-2.26,4.57-4.72,9.18-9,12.38-2.5,1.86-2.67,3.69.37,5.25a5,5,0,0,1,1.56,1.23c1.07,1.39,3.52,2.63,2.59,4.37s-3.22.63-4.95.07c-1.54-.5-3.15-.79-4.73-1.17-13.69-6.64-27.58-4.86-41.53-1a5.27,5.27,0,0,1-1.48,0Z" style="fill:#554a6b"/><path d="M92.79,121.93c.76-.87,1.49-1.77,2.27-2.62,3.36-3.63,3.72-7.08-.58-10.27,3.11-.12,4.11-1.86,4.38-4.83.47-5.25.93-10.53,4.43-15,2-2.58,4.35-4.53,7.5-3.73s2.85,4.09,2.89,6.72c0,4.48.19,9-.08,13.45a20.21,20.21,0,0,0,3.2,12.76,8.1,8.1,0,0,1,1.16,5.65c-.42,4.45-.07,9-.66,13.42-.72,5.46.5,9.49,6.06,11.42-2.44-.1-5-.77-6.67,1.93a.67.67,0,0,1-.34-1c-3.76-7-2-13.85,0-20.83.65-2.2,1-4.94-.34-6.79-5.72-7.61-5.64-16.31-5.27-25.12.78-2.12,0-3.73-2.08-4.12s-2.76,1.46-3.29,3c-1.16,3.44-1.36,7.08-2.11,10.61-.42,2-.84,3.84-2.44,5.22q-.21,6.42-.4,12.85c-1.71,1.61-4.55,0-6.16,2.43-.92,1.36-2.92,2-4.2.12-1.06-1.57-.52-3.18,1-4.37A19.37,19.37,0,0,1,92.79,121.93Z" style="fill:#665959"/><path d="M26.81,130c-6.7-2.2-13.38-4.46-20.11-6.58a7.82,7.82,0,0,0-6.68.51c-.1-2.94,1.94-3.08,4-3.06a37,37,0,0,1,11.65,2.52c8.64,3,17.6,4.51,26.49,6.34a18.13,18.13,0,0,0,4.48,0,2.75,2.75,0,0,0,3-2.74c.13-1.72-.07-3.11-2-4C34,116.42,23,106.48,12.43,95.92c-1-1-3.61-2.34-.53-4.09,9.68,12.41,22.68,20.58,36,28.37,3.2,1.87,7.81,2.82,5,8.62-1.31,2.75-3,3.6-5.67,3.75C40.28,132.94,33.54,131.53,26.81,130Z" style="fill:#5f545a"/><path d="M327,195.87a2.16,2.16,0,0,0-1.89,1.89c-5.32-3.09-11.12-5.4-15.66-9.77-1.63-1.57-4.11-.9-6-1.92-.12-3.73-2.93-4.63-5.74-4.83-5.12-.38-7.95-3.24-10-7.61-1.1-2.38-2-4.86-3.32-7.16-3.26-5.85-2.89-6.56,3.79-7.47l3.08-1.22c6.28,4.15,8.92,11.27,13.6,16.74,3.42,4,6.28,8.47,10.22,12,2,4.36,6.35,4.71,10.24,5.82,1.91.54,4.5.38,3.84,3.65A2.66,2.66,0,0,1,327,195.87Z" style="fill:#785b4e"/><path d="M288.2,159c.33,3.5-3.27.48-3.84,2.84,2.66,3.56,4.31,8.16,6.52,12.47,1.48,2.89,3.37,4.8,6.91,4.59a8.14,8.14,0,0,1,7.09,3c1.74,2.12,1.44,3.62-1.43,4.2l-3.07-.31c-12.53-2.66-18.38-8.33-20.66-19.13-1.62-7.71-.14-9.45,7.56-7.93C287.59,158.81,287.89,158.91,288.2,159Z" style="fill:#aa8978"/><path d="M107.65,167.77l4.06-4c-1,5.5-2.11,11-3,16.51-.52,3.37-1.63,2.21-3.38.89-2.71-2-3.79-6.55-8.45-5.65-4.68-1.59-9.8.76-14.37-1.68,3.24-1.61,7,1.17,10.14-1.07,3.22-1.35,6.71-1.15,10-1.31C105.59,171.31,106.81,170.06,107.65,167.77Z" style="fill:#a88d7a"/><path d="M305.34,34.82c-2.15,3,.48,6,.35,9.17-8.92-5-12.15-28.44-8.41-39.07C296.15,15.92,298.35,26,305.34,34.82Z" style="fill:#928a9a"/><path d="M287.28,158.7c-7.16.56-8.21,2.29-6.17,9.06,2.41,8,7.21,13.52,15.38,15.92a21.51,21.51,0,0,1,3.89,2.08c-2.58,2-4.73,0-6.93-.84-10-4-15.62-12.35-15.7-23a5.21,5.21,0,0,1,2.64-4.5c1.4-.95,2.81-1.76,3-3.66C284.21,155.79,285,157.87,287.28,158.7Z" style="fill:#5a4d52"/><path d="M332.18,21.85c-2,3.51-2,7.13-1.13,11,.54,2.35.74,5-2.35,7.91.32-8.73-5.23-15-5.4-22.89,1.18,1.16,2.82,2.12,3.44,3.53C328.43,25.28,330.2,23.85,332.18,21.85Z" style="fill:#948a98"/><path d="M19.85,82.79l-2.1,1.1c-2.59-1.09-4.68-5.22-7.58-3.17C7,83,10,86.43,10.6,89.34c.11.49.17,1,.25,1.47C8.1,89.1,6.21,81.63,8.3,79.26c2.54-2.88,5.4-.9,8,.31C17.83,80.26,19.28,81.06,19.85,82.79Z" style="fill:#5f545a"/><path d="M297.29,4.89a3.14,3.14,0,0,0-2.07-2.08c.3-1.27.74-2.44,2.5-2.81A6,6,0,0,1,297.29,4.89Z" style="fill:#928a9a"/><path d="M318.28,245A154.32,154.32,0,0,0,341,246.74c2.1,0,3.77,1.2,5.23,2.62a94.09,94.09,0,0,1,6.68,6.72c6.15,7.35,13.38,12.58,23.12,14.3,6.67,1.17,13.18,3.27,19.75,5,5.12,1.36,9.55,3.8,12.22,8.61,2.36,4.24,6.92,6.65,9.34,11.27-2,1-3.6,0-5.16-.64-15.32-6.74-30.73-13.27-45.92-20.29-12.51-5.77-24.84-11.95-37.08-18.28C325,253.86,321.49,250.42,318.28,245Z" style="fill:#44355c"/><path d="M317.3,290.6c.92,5,5.27,7.67,7.91,11.48a46.13,46.13,0,0,0,10.56,11c2.43,1.79,5,5,2.47,8.63-1.55,2.22-8.48.68-10.74-2.1-.1-.13-.13-.39-.24-.42-8.85-2.41-4.7-14-12.28-17.38-1.46-.65-2.6-2-3.89-3-5.87-4.39-10.06-10.39-14.74-15.85-5.69-6.65-10.57-14-15.82-21-.53-.71-1-1.43-.38-2.22s1.51-.48,2.25-.08a165.61,165.61,0,0,0,16.73,7.74c1.17.48,2.64,1.47,3,2.54C304.87,278.5,312.58,283.44,317.3,290.6Z" style="fill:#43355d"/><path d="M407.54,238.22c-.28-2.13,1.29-2.81,2.78-3.6,7.09-3.72,13.26-8.7,19.29-13.9,2.15-1.86,4.93-5.13,7.35-3.31,1.62,1.2-1.51,4.56-2.93,6.61-4.71,6.81-9.7,13.42-14.58,20.11-1.44,2-2.49,4.46-5.68,3.93s-4.22-3-5.16-5.49A38.9,38.9,0,0,1,407.54,238.22Z" style="fill:#3c3150"/><path d="M124.87,201.86c-1-2.08-.33-4.41-.15-6.59.5-6.28,1.24-12.54,2-18.8.17-1.51.9-3.06-1.81-2.7-1.07.15-1.25-1.08-.91-1.83,1.66-3.73,2.45-7.87,6.25-10.49,2.81-1.94,3.9-1,5.35,1.51,2.67,4.61,1,9.13-.29,13.42-2.58,8.21-5.73,16.25-8.65,24.36A1.48,1.48,0,0,1,124.87,201.86Z" style="fill:#453658"/><path d="M390.13,229.42c-1.2,4.12-3.59,7.2-6.16,10.17-1,1.19-1.62,3.1-3.72,2.66-1.54-.32-1.89-1.67-2-3-.19-2.07-.05-3.95,2.32-4.86C383.88,233.09,387.23,231.82,390.13,229.42Z" style="fill:#382f43"/><path d="M116.35,149.84c.11.33.23.66.34,1-1.28,3-1.91,6.25-4.06,8.82C111.11,155.32,114.16,152.75,116.35,149.84Z" style="fill:#a88d7a"/><path d="M354.19,71.85c-.34,2.59-.66,5.17-2.75,8,.19-5.66-6.61-5.28-7.12-10,3.42,2.34,5.05.25,5.55-2.7s1.07-6.26-1.45-9c-1.49-1.59-1.19-3.71-1.09-5.7.27-5.49.36-11.14-1.39-16.25-1.3-3.78-3.64-7.11-2.64-11.37,3,7,5.53,14,5.61,21.79,0,1.32-.17,5.22,3.63,2.11,2.28-1.87,2.57.92,2.58,2.27,0,4.8-.16,9.6-.35,14.39C354.68,67.58,354.39,69.72,354.19,71.85Z" style="fill:#a398ad"/><path d="M343.26,69c-2.16,1.7-2.29,3.8-1.16,6.13,1.29,2.66,1.4,5.51,1.8,9.23a13.84,13.84,0,0,1-4.77-6.44c3.17-2,.57-4.34.39-6.49-.16-1.86-1.55-4,1.65-4.52Z" style="fill:#8e86a1"/><path d="M313.07,187.92c-8.41-9.21-16.25-18.85-21.79-30.14,9.53-1.9,18-6.61,27-10,.84,5.93-1.26,10-6.42,12.5-4.54,2.18-4.12,2.87-2.49,7.55,2,5.81,7.67,8.1,10.61,12.86.93,1.51,2.85,1.54,4.57,1.19,3.59-.72,7.3-.13,10.88-1a3.63,3.63,0,0,1,2.92.25c4.33,3.24,9.37,1,14,1.85,3.08.6,9.92-5.89,10.32-8.94a2.91,2.91,0,0,0-1.79-3.2c-1.3-.69-2.88-.87-3.92-2.07-1.68-2.89.53-4.52,2.08-6.36,1.78-2.1,4.1-4,3.13-7.25-.23-3.12,1.69-5.89.95-9.27-1.17-5.33-2.84-8.1-8.2-8.23s-11.66-1.35-14.39,5.76a2.94,2.94,0,0,1-2.7,2c-5.51-.75-9.62,3.18-14.6,4.14-2.12.41-4,.73-5-1.73,3-4.1,5.16-8.81,9-12.37,3.45-3.23,3.36-3.32,7.75.56-4-5.56-.67-6.07,3.17-6.3,3.3-.19,6.6-.79,9.87-.63,4.47.22,7.93-1.78,11.35-4.15,4.6-1.58,11.47,1.68,13.27,6.16,4.69,11.67,5.47,23.75,4.16,36.12-.54,5.12-.86,10.27-1.35,15.4-1.2,12.71-11.67,19-24,15.48-8.89-2.5-17.82-5.22-27-6.52C320.37,190.93,316.81,189.23,313.07,187.92Z" style="fill:#b19682"/><path d="M313.07,187.92a74.52,74.52,0,0,1,26.66,4.83c5.53,2,11.24,2.73,16.82,3.72,9.05,1.61,15.82-4.71,16.51-14.35.84-11.7,2.42-23.49,1.65-35.1-.54-8.11-2.72-17-11.54-21.35a15.9,15.9,0,0,0-3.83-.81l4.84-4c6.85-1.73,7-1.76,9.05,4.94,3.69,11.88,7.45,23.73,9,36.17,1.45,11.51-3.31,21.45-7.22,31.66a13.07,13.07,0,0,1-13.36,10.26c-9.59-.27-19-2-27.62-6.62-1.48-.78-3.27-.49-4.53-1.69C323.38,194.42,317.17,193.45,313.07,187.92Z" style="fill:#a88a76"/><path d="M298.73,123.43c7.54-8.1,17-7.22,22,1.86Z" style="fill:#545156"/><path d="M343.11,103.94c-3.83,4.57-7.95,8.23-10.36,13.21-.55,1.12-1.56,1.06-2.21-.2-1.59-3.07.31-8.72,3.54-10.24,2.4-1.14,4.85-2.15,7.3-3.17C341.61,103.44,342,103.67,343.11,103.94Z" style="fill:#504d4f"/><path d="M92.79,121.93l-1.63,4.58.6.47,5.65-7.76c2.45,1.44.08,4.8,3,5.46,8.13-.26,10.55,2.88,9.77,12.64-.44,5.58-2.19,11.06-1,16.78.4,1.87-1,3.42-2.25,4.8-2,2.2-4.42,4-5.68,6.87-.3.67-1.25,1.63-1.76,1.55-5.91-1-11.94,2.47-17.85-.8a53.34,53.34,0,0,0-11.4-4.81c-7.59-2.1-10.66-7.76-14.2-14.19s-2.62-11.29.83-16.73a6.81,6.81,0,0,0,.84-2.83c.94-8.08,6.93-11.86,13.22-15.09,2.37-1.21,3.94-3.64,6.72-4.09,5,1.18,9.33,2.94,10.68,8.75C88.87,119.61,90.81,121,92.79,121.93Z" style="fill:#baa293"/><path d="M58.73,163.93c-2.34-.68-4.28.47-6.09,1.58-5.73,3.52-12.13,5.26-18.44,7.32-3.85,1.26-7.55.53-11.32,0-1-.13-2.19-.15-2.31-1.41a2.54,2.54,0,0,1,1.66-2.32c5.9-3,11-7.47,17.55-9.28.1,1.62-.16,3.5,1.68,4.29,2.11.9,3.49-.79,4.51-2.13,1.88-2.47,3.31-3.32,6.08-.8C53.72,162.73,56.47,163.06,58.73,163.93Z" style="fill:#b0927e"/><path d="M100.84,111.83c-.23-5.34,1-10.51,1.83-15.71a6.19,6.19,0,0,1,.21-1c1.3-4.2,5.49-8.11,7.41-6.6,2.93,2.32,1.22,5.62.47,8.55-.09-.14-.15-.37-.26-.4-1.19-.27-.79.73-.81,1.18-.07,2.11,0,4.24,0,6.36C109.48,110.59,107.45,112.33,100.84,111.83Z" style="fill:#b0937f"/><path d="M107.65,167.77c-.14,3.26-1.7,4.66-5.08,4.53s-6.59.28-9.88.46a11.4,11.4,0,0,1,7.48-2A8.72,8.72,0,0,0,107.65,167.77Z" style="fill:#b0927e"/><path d="M112.36,123.06c.89-.12,1.2.49,1.12,1.16a2.43,2.43,0,0,1-.77,1.64c-.66.44-1.29-.08-1.44-.81A1.74,1.74,0,0,1,112.36,123.06Z" style="fill:#b0937f"/><path d="M329.52,195.55a111.92,111.92,0,0,1,21.86,4.72c9.55,3.06,17.26.86,23.65-6.67,2.78,1.49,2.74-1.12,3.56-2.47.5-.82.91-1.93,2.13-1.46s1,1.59.62,2.49a13.79,13.79,0,0,0-1.15,6.64c-5.17,9.66-14.05,12.39-24.1,12.93-4.94-.91-9.83-2.1-14.73-3.2-1.93-2.36-4-4.62-5.73-7.12a11.94,11.94,0,0,0-8.64-5.54Z" style="fill:#6e534a"/><path d="M341.36,208.53c3.81-2.49,11.06-.91,14.73,3.2l-8.88,3C344.69,213.22,343.14,210.76,341.36,208.53Z" style="fill:#937465"/><path d="M318.23,147.75c3.35,1,6.12-1.14,8.88-2.2,3.22-1.24,6-3.38,9.76-2.22,1.59.48,1.77-1,1.75-2.22a4,4,0,0,1,3.06-4.07c5.68-1.54,11.36-3.54,17.35-.91a12.23,12.23,0,0,1,5.81,16.39c-.38.73-1,1.34-.66,2.26-4.8,9.84-11.15,18-23.77,17,4.8-.19,10.06-.1,14.31-3.91a2,2,0,0,1,2.32-.23c3,.88,7.41-1.12,8.62,3.11s-2,7.47-4.8,10.3c-3.3,3.38-6.82,4.64-12.17,4.27-8.43-.57-16.95-3.61-25.54-.75a3.63,3.63,0,0,1-3.78-.69c-4.9-5.62-10.75-10.55-14.27-17.19-1.17-2.2-.65-6.8,2.21-7.28,7-1.2,8.22-7,10.94-11.68Z" style="fill:#baa190"/><path d="M357,167.65c-7.37,6.33-16,5.26-24.53,4.11,6.16-1.11,13,.18,18.47-3s9.54-8.64,13.2-14c3.18-1.1,2.74.24,1.34,2.06C362.72,160.47,359.87,164.05,357,167.65Z" style="fill:#917766"/></g></g></svg>