<svg xmlns="http://www.w3.org/2000/svg" viewBox="0 0 376.36 696.63"><title>Asset 2</title><g id="Layer_2" data-name="Layer 2"><g id="Layer_1-2" data-name="Layer 1"><path d="M1.89,476.08a6.2,6.2,0,0,0,.82-.88q2.71-3.36,5.18-6.91A7.29,7.29,0,0,0,9.54,465c.12-2.39,1.41-3.8,3.68-3.42.22-1,.45-2.08.67-3.12.5,2.28.56,4.55.95,6.76A9.24,9.24,0,0,0,16.38,469c1,1.33,1.61,1.14,2.39-.31a2.55,2.55,0,0,1,4-1.06,11.33,11.33,0,0,0,2.69,1.16,42.1,42.1,0,0,0,11.05,2.15c5.95.27,11.88,1,17.81,1.45,2,.15,4-.06,6-.09a4.75,4.75,0,0,1,1.2.14,19,19,0,0,0,10.61-.82c2.6-.88,5.12-1.74,7.92-1.62,2.29.11,4.62.22,6.62-1.37.35-.29,1-.25,1.49-.36,4.2-.91,8.42-1.74,12.59-2.77,2.18-.53,4.28-1.38,6.41-2.12,2.8-1,6.07-.93,8.12-3.64.14-.19.53-.22.81-.27,1.38-.25,3-.17,4.12-.81a5.36,5.36,0,0,1,3.64-.63c.23,0,.51-.25.77-.37,4.65-1.92,9.31-3.83,14-5.78a30.66,30.66,0,0,0,3.09-1.54c2.13-1.17,4.17-2.55,6.38-3.54a12.61,12.61,0,0,0,5.78-5.29,51.27,51.27,0,0,0,3.55-8.26c1.54-4.19,2.9-8.44,4.39-12.65a5.61,5.61,0,0,1,1.1-1.38c.41.54.51.84.43,1.08-2,5.45-4.07,10.87-6,16.34a18.12,18.12,0,0,0-.57,3.41c1.16-.15,2.51,0,3.45-.5,4.56-2.61,9.11-5.27,13.49-8.17,5.49-3.64,10.74-7.65,16.24-11.26a31.1,31.1,0,0,0,8.18-7.45c.7-.93,1.49-1.78,2.27-2.64,1.77-2,4-2,6.72-1.35-1.13,1.05-2,1.87-2.92,2.72-.25.25-.65.78-.56.91.75,1.18,1.39,2.61,2.49,3.35s2.33.29,3-1.11c.48-1,1.18-.75,1.74,0a10.14,10.14,0,0,1,.63,1.18c5.26-3.21,7.35-8.47,9.45-13.93a13.55,13.55,0,0,1,1.68,1c3,2.4,5.94,4.8,8.86,7.25,6,5.09,12,10.23,18.06,15.32,6.19,5.25,12.37,10.52,18.64,15.68,5,4.09,10.16,7.9,15.08,12.05,3.48,2.93,6.73,6.14,10,9.35,2.91,2.89,5.43,6.2,9.21,8.13a14.45,14.45,0,0,1,2.55,2.18c-.54.3-.91.35-1.16.19-1.69-1.09-3.33-2.28-5.06-3.34A40.18,40.18,0,0,0,292.5,466c-5.2-2-10.41-4.11-15.82-5.32a197,197,0,0,0-23.15-3.82,109.71,109.71,0,0,0-30,1.51,142.44,142.44,0,0,0-19,4.75,100.59,100.59,0,0,0-22.62,10.24c-4.66,2.91-9.24,6-13.81,9-1.62,1.07-3.15,2.3-4.67,3.52s-2.86,2.49-4.34,3.69c-4.66,3.78-9.47,7.37-13.13,12.27-2.38,3.19-5.18,6.07-7.56,9.27a95.07,95.07,0,0,0-7.71,11.37c-3.83,7.11-7.07,14.53-10.78,21.7s-5.45,14.71-7.49,22.28A113.93,113.93,0,0,0,110,578.78c-.66,4.42-1.07,8.89-1.43,13.35a3.16,3.16,0,0,0,1.11,2.52,6.84,6.84,0,0,1,2.95,4.14c.7,2.09,1.1,4.27,1.71,6.39.14.51.49,1.23.87,1.33s1-.42,1.4-.77.37-.79.68-1,1.1-.44,1.28-.25c1.37,1.35,2.54.58,3.19-.53,1.9-3.22,3.57-6.58,5.33-9.88a2.72,2.72,0,0,0,.13-.51c.7-2.69,1.37-5.4,2.15-8.07.51-1.71,1.23-3.36,1.77-5.07.27-.83.44-1.55,1.57-1.44a1.3,1.3,0,0,0,1-.61c1-2.68,1.91-5.36,2.67-8.1.93-3.36.18-4.89-2.71-7a21.34,21.34,0,0,1-2.64-2.8c.12-.19.25-.37.37-.55a5,5,0,0,1,1.6.54,25.65,25.65,0,0,1,2.4,2.26c1.2,1.19,1.59,1.18,2.18-.36.74-1.94,1.26-4,2-5.89,1.08-2.84,2.34-5.62,3.42-8.46.94-2.47,1.48-5.13,2.68-7.46a81.18,81.18,0,0,1,4.95-7.52c.74-1.11,1.42-2.25,2.22-3.32a49.72,49.72,0,0,1,4.38-5.57c1.77-1.78,1.92-1.63.13-3.26-.63-.56-1.45-1.21-.52-1.94a2.12,2.12,0,0,1,2,.42c1.12,1.26,1.7.84,2.28-.38a10.65,10.65,0,0,1,4.73-4.95,4.4,4.4,0,0,0,1.56-1.38c2.49-3.66,6.62-5.39,9.72-8.35,1.51-1.45,3.66-2.22,5.43-3.43,2-1.39,3.95-2.94,5.95-4.4a15.21,15.21,0,0,1,2.18-1.48c1.53-.77,3.17-1.36,4.68-2.17,2.43-1.3,4.77-2.78,7.2-4.06a34.7,34.7,0,0,1,4.93-2.15c1.61-.56,3.3-.86,4.95-1.28.78-.2,1.56-.38,2.3-.64a61.55,61.55,0,0,1,7-2.43c3.32-.71,6.81-.72,10.1-1.55a13.74,13.74,0,0,1,7.81.33c3.38,1.09,3.42,1,4.22-2.57,1.4.49,2.83.9,4.16,1.5a2,2,0,0,1,.92,1.37A1.64,1.64,0,0,0,251.1,483a32.26,32.26,0,0,1,4.6-.66c4.56.15,9.11.34,13.63.84a69.47,69.47,0,0,1,9.35,1.9c2.75.7,5.43,1.66,8.14,2.51l.15.08c2.1,1.08,4.26,2,6.3,3.25,3.72,2.22,7.39,4.57,11.05,6.89,2.4,1.53,4.72,3.17,7.16,4.63a11.77,11.77,0,0,1,4.75,4.48,8.32,8.32,0,0,0,1.8,1.86c2.5,2.43,5.35,4.53,6.71,8a15.6,15.6,0,0,0,2.08,2.92,7.85,7.85,0,0,1,.74,1.16c1.24,2.55,2.27,5.21,3.74,7.62a20.34,20.34,0,0,1,2.66,6.92,19.57,19.57,0,0,0,1.59,4c.67,1.5,1.41,3,2.06,4.47.34.79.5,1.66.79,2.47,1.28,3.6,2.59,7.18,3.85,10.78.36,1,.72,2.18,2,1.89s1.26.4,1.42,1.28a3.49,3.49,0,0,0,.84,2.09,13.57,13.57,0,0,1,3.61,3.79c1,1.56,2.11,3,2.93,4.7.39.8.2,1.89.3,3.34l-7.93-5.34c0,1.78,0,2.72,1.59,3.17,1.22.35,2.23,1.43,3.32,2.19l-.24.42c-.51-.25-1-.51-1.55-.74s-1.2-.47-2.16-.85c.19.79.27,1.16.37,1.51a13,13,0,0,1,.88,3.4,18.6,18.6,0,0,1-.84,4.25c-.39,1.43.78,5,1.94,5.64a4,4,0,0,1,1.24,4.86,6.14,6.14,0,0,0-.64,3.21c.56,4.51,1.33,9,2,13.48a56.39,56.39,0,0,1,1,7.93c0,3.24-.47,6.47-.73,9.71-.27,3.54-.09,7.17-.86,10.58-1.81,8-4,15.94-6.22,23.83-1.31,4.63-3.1,9.13-4.58,13.72a15.28,15.28,0,0,0-.6,4.1c0,1.24-.05,2.47-.05,3.71C-4.31,752-5.57,541.33,1.89,476.08Zm204.84-56.54c-2.94-1.62-5.64.1-8.43.33-.35,0-.88.67-.94,1.08-.25,1.63-.35,3.3-.54,5.34C200.79,424.64,204.38,423,206.73,419.54Zm-26.58,91.75a6.73,6.73,0,0,0-2,.67c-1.43,1-2.73,2.17-4.09,3.26-.27.22-.76.3-.85.56-1.57,4.32-5.44,6.85-8,10.4a3.17,3.17,0,0,0-.53,1.76l15.68-16.1C180.28,511.65,180.21,511.47,180.15,511.29Zm11-7.66L187,506.14c.12.21.24.41.37.61l4.07-2.6Zm7.16-3.91c-.4-.25-1.1-.62-1.34-.45-1.51,1.07-2.94,2.27-4.39,3.43l.37.68c1.79-.92,3.59-1.82,5.35-2.79A1,1,0,0,0,198.27,499.72Zm30.8-9.07a27.88,27.88,0,0,0-3.88,0c-2.57.39-4.87-.62-7.25-1.18a1.31,1.31,0,0,1-.77-.82c-.37-1.44-1.27-1.18-2.31-.89-2.27.65-4.56,1.23-6.83,1.85a27.3,27.3,0,0,0-4.79,1.42c-.74.35-1.14,1.52-1.58,2.37a24.43,24.43,0,0,0-1.54,3.47A7.82,7.82,0,0,0,200,499a8.71,8.71,0,0,0,2.07-.2c2.51-.87,5-1.89,7.48-2.75s5.14-1.73,7.75-2.42c2.07-.55,4.21-.83,6.3-1.26,1.84-.37,3.66-.79,5.5-1.19ZM262.36,486c-.48,0-1,.45-1.47.73s-1,1-1.39.91c-2-.56-3.95.15-5.91.16-4,0-8.06-.26-12.08-.29-.66,0-1.31.66-2,.94a16.06,16.06,0,0,1-2.87,1c-1.56.32-3.14.45-4.7.66v.33a2.64,2.64,0,0,0,.75.18c11.93-.51,23.84-.65,35.67,1.34.18,0,.4-.17.59-.26C268.13,488.8,265.14,486.17,262.36,486Zm27.06,11.8a5.94,5.94,0,0,1-3.34-2.57c-.21-.34-.85-.41-1.31-.59a15.15,15.15,0,0,1-3.18-1.3c-.83-.58-1.44-1-2.48-.56-.8.35-1.58.63-2-.75-.11-.39-1.57-.62-2.35-.5a10.23,10.23,0,0,0-2.52,1l18.23,6.66c.09-.16.17-.32.25-.48A5,5,0,0,0,289.42,497.84Zm24.22,17.55c1.18,1.29,2.36,2.57,3.53,3.86l.66-.64C316.07,517.9,316.78,514.78,313.64,515.39Zm18.21,26.27c.6,1.2,1.19,2.41,1.84,3.73C334.51,543.68,334.41,543.45,331.85,541.66ZM345,566.48c1.42.92,2.62,2.17,4,3.18.34.25.92.15,1.39.21-.08-.47,0-1.14-.27-1.38-1.34-1.18-2.81-2.21-4.17-3.37a5.83,5.83,0,0,1-1-1.47c-.33-.54-.63-1.08-.95-1.62l-.61.33C343.6,563.82,343.27,565.39,345,566.48Zm-146,110.09c.47-.83,1-1.29,1-1.75s-.52-.89-.81-1.33a7.6,7.6,0,0,0-1.31,1.55C197.65,675.24,198.31,675.8,198.92,676.57ZM164.63,664c.28-.43.77-.84.8-1.29a6,6,0,0,0-.44-1.8l-.68,0a5.87,5.87,0,0,0-.41,1.73C163.93,663.18,164.37,663.6,164.63,664Zm-5.19-6.2c.78,1.29,1.66,2.51,2.65,4a6.67,6.67,0,0,0,.6-1.3c.17-.66.12-1.37.28-2,.32-1.35,0-2.07-1.5-1.62-.63-1.44,2-2.73.32-4.08-.95,1.37-1.81,2.49-2.53,3.71A1.62,1.62,0,0,0,159.44,657.83Zm-11-12.65,1.05-.24c-.19-.73-.37-1.47-.61-2.19a4.25,4.25,0,0,0-.85.22C148.16,643.71,148.32,644.45,148.47,645.18Zm-7.75-24.76,1.54-1.95c1.22.57,1.11.72.44,1.79a10.91,10.91,0,0,0-.88,3l.64.29c.39-.41.77-.83,1.19-1.21s.77-.79,1-.71a1.66,1.66,0,0,1,1,1c.5,2.17.88,3.56-1.41,4.58-1,.46-1.27,1.22-.93,2.43a12.86,12.86,0,0,1,0,3.45c0,1.25,0,2.51,0,4.25,1.4-.74,2.44-1.27,3.46-1.85a2.45,2.45,0,0,1,3.78,1.9c.11,1.08.15,2.13,1.71,2.29.24-.55.48-1.11.82-1.92,1.68,1.41,2.54.18,3.68-.94a9.46,9.46,0,0,1,3.22-1.5c.18-.07.71.18.71.29a2.9,2.9,0,0,1-.2,1.63,13.92,13.92,0,0,1-2.13,2.28c-1.37,1.23-.8,2.41.23,3.68a8,8,0,0,1,.38-1.55,5.89,5.89,0,0,1,.85-1.1,7.49,7.49,0,0,1,.76,1.19,7.62,7.62,0,0,1,.19,1.62c.62-.62,1-1,1.33-1.32s.81-.67,1.22-1a13,13,0,0,1,.75,1.49c.38,1.1.67,2.22,1.15,3.83-.5.73-1.49,0-2.5-.34-.56-.2-1.59-.45-1.73-.23-.62,1,.29,1.09.94,1.32a1.49,1.49,0,0,1,.56.39c1.45,1.66,1.82,1.71,3.49.3.57-.48,1-1.11,1.57-1.61a9,9,0,0,1,1.22-.78,7.28,7.28,0,0,1,.36,1.35c0,.51-.14,1-.13,1.56a1.79,1.79,0,0,1-1.34,1.93c-2.12.84-2.33,2.13-.91,3.88a7.58,7.58,0,0,1,.82,1.9l-.49.43-2.95-1.76c-.55,1.82.65,2.69,1.53,3.63a6.22,6.22,0,0,0,1.48.9c1.29.78,2.6,1.53,3.84,2.37a2.89,2.89,0,0,1,.69,1.13,13.19,13.19,0,0,0,1.08,2.08c.25.32,1,.63,1.25.48a2.31,2.31,0,0,0,.74-1.38c.08-.43-.24-.92-.2-1.37.06-.8,0-1.83.48-2.3s1.51-.4,2.51-.18l1.09-1.4a26.2,26.2,0,0,0,3.23.47c1.65,0,3.08.24,3,2.65,2.08-1.55,2.66-.51,3.2,1.16.43,1.31,2.43,2.13,3.81,1.88.94-.18,1.34-.7,1-1.62-.46-1.07-1-2.1-1.46-3.16a11,11,0,0,1-.89-2.07c-.08-.38.31-.86.48-1.3a6.1,6.1,0,0,1,1,.81c.75.92,1.46,1.87,2.14,2.83,1.08,1.49,2.13,3,3.19,4.52.19.27.48.7.7.69,2.13-.1,2.86,1.67,4.05,2.87a12.72,12.72,0,0,0,3,2.17c1,.53,2,.92,2,2.32a.63.63,0,0,0,0,.34,22.55,22.55,0,0,1,3.71,7c.05.2,1.33,0,2.22,0l1.62,2,1.38-2.85c.24.91.4,1.62.63,2.31.39,1.23.8,2.3,2.41,1.09.84-.65,2.42.42,2.91,1.94a21.13,21.13,0,0,1,.43,2.4c.19,1.07.73,1.34,1.51.51.6-.64,1.08-1,1.9-.33a1.12,1.12,0,0,0,1.07,0c1-1.39,1.89-2.86,2.85-4.27.29-.44.77-1.17,1-1.12.58.11,1.45.55,1.56,1a37.66,37.66,0,0,1,.73,4.64c0,.22-.13.54,0,.68a19,19,0,0,1,2.77,5c.08.26,1.05.32,1.6.32a80.2,80.2,0,0,0,9.93-.06c3.61-.42,7.22,0,10.75-.37a11.61,11.61,0,0,0,6.89-2.78c1.42-1.34,3.15-2.34,4.59-3.66,2-1.84,3.91-3.79,5.78-5.78a3,3,0,0,1,3.76-.87c2.81,1.25,5.32,0,7.88-.89.89-.29.85-.89.33-1.64-1.06-1.53-.71-2.18,1.22-2.31a54.62,54.62,0,0,0,6.17-.43,13,13,0,0,0,3.9-1.76,2,2,0,0,1,2.64.17c.48.41,1.38.32,2.09.45a6,6,0,0,0,5-1.49,6.21,6.21,0,0,0,1.55-1.8,21.86,21.86,0,0,0,1.67-4,2.21,2.21,0,0,0-.36-1.83,34.57,34.57,0,0,0-3.16-2.68c.88-1,1.81-2.16,2.83-3.2a1.32,1.32,0,0,1,1.22-.31,2.1,2.1,0,0,1,.65,1.25,9.16,9.16,0,0,1,0,1.79c2.45-2.67,4.36-5.11,4.71-8.53.49-4.75,1.14-9.48,1.8-14.21a34.09,34.09,0,0,1,1.6-6.71c0,3.15.11,6.3,0,9.45-.12,2.24-.6,4.47-.9,6.71a3.09,3.09,0,0,0,0,1.21c.31,1.19.66,2.33-.53,3.29-.16.13,0,.61.31,1.09l1.87-2.34c-1.09-2.58-.68-3.88,1.69-5.53a2.49,2.49,0,0,0,.91-1c1-2.39,2-4.76,2.8-7.23.72-2.3,1.11-4.71,1.71-7.34.51.55.88,1,1.73,1.88-.87-2.84,1.33-3.63,2.3-5.13a1.63,1.63,0,0,1,1.29-.37c1.06.1,2.3.78,3.13.43,1.57-.67,3.32-1.47,3.66-3.58a12.46,12.46,0,0,1,.65-2.71,5.43,5.43,0,0,1,1.86-2.33,12.33,12.33,0,0,0-.27-2.53c-.16-.51-.79-.86-1.16-1.31-.57-.67-1.39-1.3-1.59-2.08s0-1.94,1.45-1.11c1.11.67,1.4.21,1.4-.94a10.27,10.27,0,0,1,.36-2.7,3,3,0,0,0-1.6-3.63c-1.82-1-2.22-2.48-1.06-3.78l2.56,1.77.67-.54a28.84,28.84,0,0,0-1.78-4.14,4.44,4.44,0,0,1,.24-5.28,2.6,2.6,0,0,0,.42-1.66,51.75,51.75,0,0,0-.45-6.23,8.55,8.55,0,0,0-1.43-3.79,6.38,6.38,0,0,1-1.63-4.65c.4-4.06-1.06-7.62-2.48-11.28-1.79-4.66-3.26-9.44-5-14.14a38.83,38.83,0,0,0-2.06-4.2c-2-4.05-3.72-8.3-6.14-12.09-2.74-4.27-6.13-8.13-9.24-12.16a49.2,49.2,0,0,0-4.08-5.18A49.87,49.87,0,0,0,298,507.27c-4.55-2.29-9-4.87-13.56-7.06a42.16,42.16,0,0,0-7.08-2.2c-2.06-.55-4.16-1-6.26-1.41a37.23,37.23,0,0,0-5.16-.71,39.43,39.43,0,0,0-6.43.05,32.11,32.11,0,0,0-5.85,1.32c-1.57.47-3,1.29-4.61,1.81-1.28.42-2.39.84-2.57,2.44,0,.19-1,.44-1.44.39-2.52-.22-4.48.75-5.35,3.05a2.9,2.9,0,0,0,.4,2.27c2,2.92,4.13,5.71,6.1,8.64,2.23,3.3,4.34,6.69,6.47,10.06a1.91,1.91,0,0,1,.12,1.34,197.41,197.41,0,0,0-12.16-15.75l-.56.38c0,.78-.08,1.57-.14,2.6-1.16-.76-2.16-1.31-1.51-2.77s-.65-2.26-1.49-3c-.4-.32-1.38.08-2.09.15l-.48.09a13.14,13.14,0,0,0-1-1.91c-.73-1-1.59-.92-2.87-.94-2.61,0-5.63,1.34-8-1.27-.25-.28-1.48.19-2.16.51-.3.14-.46.77-.52,1.2s.15.73,0,1.17c-1.38-.46-1-1.74-1.16-2.79a19.21,19.21,0,0,0-2.8-.84,22.32,22.32,0,0,0-3.2,0c-2.35-2.86-3,1.3-4.88,1.66-.07-.75-.13-1.44-.21-2.34-5.11,4-11.19,5.4-17.09,7.62.15.46.32,1,.44,1.31-1.43.94-2.71,1.9-4.1,2.66-.42.23-1.12-.1-2-.21.07.73.14,1.51.23,2.47-1.37-1-2,0-2.83.86s-1.66,1.16-2.42,1.83a22.19,22.19,0,0,0-2,2.13c-.15.17-.17.54-.32.59-2.75,1-3.35,4.16-5.73,5.59-1.73,1-1.44,1.89.95,3.21-1.82,1.28-1.49,4.69-5,4.12.61,2.21-1.57,2.31-2.81,3.47l2,.62a28.12,28.12,0,0,0-1.65,2.82,27.05,27.05,0,0,0-1,3,2,2,0,0,0-2,2.82c.39,1.1.28,1.6-.91,1.87-.43.1-1.12.76-1.06,1,.38,1.36-1.1,2.66.11,4.13.48.61.08,1.95.08,3.09-1.4,0-1.67,1-1.65,2.29,0,2.46-1.5,4.09-3,5.74a9.56,9.56,0,0,0-.86,1.33l1.81-.18c-.13.5-.24,1-.37,1.51-.67,2.65-2.25,5.4-1,8s.58,5.48,1.49,8.09c.7,2,1.24,4.1,1.86,6.15l-.42.23c-.68-1.32-1.44-2.59-2-4-1.35-3.14-2.68-6.3-3.87-9.51a27.9,27.9,0,0,1-.65-3.6,4.53,4.53,0,0,0-.74-1.23c-.29.36-.59.71-.86,1.07-.74,1-1.51,1.94-2.19,3s-1.08,1.88-1.8,3.13l2.08.18c-.08,2.25-1.64,3.5-2.95,4.81a5,5,0,0,0-1.48,5.66,2.58,2.58,0,0,1-.39,1.89c-1.17,2-1.12,2.15.49,3.74a2.24,2.24,0,0,1,.5,1.94c-.82,2.23-1.66,4.37-.15,6.66.22.34-.06,1-.11,1.52l-.52.08c-.53-1.72-1-3.44-1.57-5.16l-.57-.15a7.8,7.8,0,0,0-1.3,1.78c-.07.16.87.69,1.28,1.11a4.78,4.78,0,0,1,.59,1l-.39.35c-.4-.12-.81-.25-1.74-.56a10.2,10.2,0,0,0,.68,2.95c1.06,1.56,1.46,2.87-.21,4.27a1.45,1.45,0,0,0-.2,1.37c.9,1.2.4,2.27,0,3.45a14.15,14.15,0,0,0-.36,2.71Z" style="fill:#e3e3e3"/><path d="M1,392c5.12-2.18,10.24-4.36,15.34-6.58A63.47,63.47,0,0,0,23.89,382c7.45-4.49,14.78-9.19,22.18-13.78,2.81-1.74,3.12-2.36,1.73-5.27-1.6-3.35-3.38-6.62-5-9.93a3,3,0,0,1-.47-1.62c.65-3.84,1.15-7.72,2.14-11.48a97.31,97.31,0,0,0,2.74-20.37c.1-2.23-.28-2.6-2.49-3-4.62-.73-9.25-1.48-13.89-2.14-5-.71-10-1.43-13.88-5.2-2.62-2.52-5.88-4.3-8-7.4-2.26-3.25-2.4-5.54-.45-9,3.47-6.1,7.44-11.94,10-18.55a39.12,39.12,0,0,0,2.53-7.74,11.38,11.38,0,0,0-2.74-9.61c-2.3-2.59-1.69-7.37-.29-8.6,2-1.76,4.06-3.46,6.14-5.13a2.11,2.11,0,0,0,.75-2.71c-.91-2.81-1.64-5.69-2.27-8.58a2.63,2.63,0,0,1,1.89-3.29,3,3,0,0,0,2.06-2.55,52.18,52.18,0,0,1,1.64-7.84c1.08-3,1.16-5.8-.56-8.5-2.46-3.85-2.28-7.94-1.27-12.13.37-1.53,1-2.64,2.9-2.65a20.51,20.51,0,0,0,4.13-.55c.56-.12,1.36-.48,1.52-.93,1-2.77,1.87-5.62,2.87-8.4,1.06-3,1.8-6.23,3.46-8.87,2.81-4.46,6.24-8.52,9.41-12.76a15.8,15.8,0,0,0,1.28-1.79c1.39-2.62,2.73-5.26,4.22-8.16l-2.79-2.07,3.18-4.17,1.44,1a6.9,6.9,0,0,0,.87-1.49c1.1-3.8,2.35-7.58,3.16-11.44a20.19,20.19,0,0,1,6.19-10.85c1.86-1.75,4.13-3,5.45-5.44,2.23-4.2,5.14-8,7.29-12.28,2.06-4.07,5-7.36,7.82-10.85.62-.77,1.26-1.51,1.9-2.27a23.11,23.11,0,0,0-2.62-1.55c-4.28-1.89-9-2.4-13.06-.48-6.71,3.17-10.27,9.16-10.62,16.59-.23,4.8.41,9.64.59,14.47a8.57,8.57,0,0,1-3,6.79A20.77,20.77,0,0,1,53,134.14a45.57,45.57,0,0,0-7.33,2.67c-2.49,1.15-4.33,2.92-4,6.08a18.52,18.52,0,0,1-.14,3H41c0-2.18-.19-4.36,0-6.51a3.37,3.37,0,0,1,1.54-2.19,30.66,30.66,0,0,1,5.59-2.78A75.72,75.72,0,0,1,56.39,132a7.54,7.54,0,0,0,5.79-5.65c1.14-3.74.36-7.51,0-11.27A33.29,33.29,0,0,1,63,103c1-3.62,3.73-5.64,5.83-8.27,1.22-1.53,2.94-2.69,4-4.29,1.46-2.11,4.79-2.12,5.4-5.07a.37.37,0,0,1,.29-.16c1.84.25,2.89-1.31,4.34-1.92.33-.14.8-.46.82-.73A1.31,1.31,0,0,0,83,81.6c-1.2-.71-2.53-1.21-3.65-2-1.29-.95-3-1.94-3.46-3.28A30.12,30.12,0,0,0,72.1,68c-2.4-3.4-4.21-7.21-6.49-10.7-2.83-4.32-6.82-5.7-11.74-4.79-3.74.69-6.45,3-8.48,6.15L42.58,63c-.14-4.3,3.49-8.44,10.07-11.64,3.71-1.81,8.84-2.32,10.53-.89l-2.74.72a26,26,0,0,0,3.12.58,12.32,12.32,0,0,1,2.51,1.41l.21-.17c-.59-.84-1.19-1.67-1.78-2.5l0-.54c2.63,2.33,3.91.06,5.55-1.7-.45,1.6-1.21,2.8-1,3.69a28,28,0,0,0,2.71,6c.53.91,1.66,1.48,2.9,2.52.09-1.19.19-1.84.18-2.5,0-2.79.24-5.62,2-7.78a18.46,18.46,0,0,1,10.2-5.91c1.15-.28,2.23-.82,3.36-1.21.6-.21,1.23-.35,1.84-.52.08.21.15.43.23.64A7.32,7.32,0,0,1,91,44.28c-1.8.6-3.66,1.06-5.48,1.61-2.32.71-3.87,2.25-3.89,3.92A6.74,6.74,0,0,0,82,51.43,12.26,12.26,0,0,0,83.68,51a21.49,21.49,0,0,1,2.1-1.14,15.4,15.4,0,0,1,7.13-1c1.89.28,4,.93,5.07-.47a32,32,0,0,0,3.1,1.53c4.62,1.59,9.31.88,14,.14,4.22-.66,7.77-2.39,9.11-7,.08-.29.49-.49.75-.74l.49.3c-.6,2.19-1.32,4.4-3,6s-3.66,2.87-5.64,4.39c1.27,1,2.2.93,3.17.06a5.07,5.07,0,0,1,1.54-1c2.15-.84,4.37-1.5,6.48-2.41,2.35-1,3.27-3.17,3.85-5.47.81-3.17.53-6.82,3.92-8.8a3.43,3.43,0,0,1,1.63-.54,21.48,21.48,0,0,1,3.08.41c1.6.29,3.18.62,4.94,1-1.41,2.07-3.35,2.55-4.47,1.43a3.28,3.28,0,0,0-5.24.63,41.88,41.88,0,0,0-2.21,5.42c-.12.35.35.91.67,1.61.71-.78,1.16-1.29,1.63-1.79.79-.82,1.45-1.94,2.41-2.36a51.17,51.17,0,0,1,5.76-1.77c1-.3,2.46-.37,2.9-1.07a1.87,1.87,0,0,1,2.33-.88A34.13,34.13,0,0,0,154,38.45a15.07,15.07,0,0,1,6.32,1.77c.32.16.53.53.79.8-.27.26-.49.64-.81.77a5.28,5.28,0,0,1-1.7.36c-2,.06-4,.14-6.06.06-3.32-.12-6.27,1.15-9.37,2.09a24,24,0,0,0-10.27,6.41c-1.15,1.17-3.72,2.31-4.92,1.78-2.58-1.12-4.08.61-5.64,1.48-1,.57-1.85,1.53-3.19,1.58-.25,0-.48.33-.72.5l.15.48c.85-.16,1.7-.28,2.54-.5s1.6-.64,2.44-.83c2.14-.5,4.3-.89,6.45-1.38a10.13,10.13,0,0,0,3.6-1.12c1.36-1,2.29-.49,3.41.37a33.87,33.87,0,0,1-3.35.9c-5.68,1.61-11.33,3.27-17,4.9-7.23,2.09-8.58,9.24-4.19,14.61A3.26,3.26,0,0,0,115,71.2a13.92,13.92,0,0,1,2.27-3.9c.45-.6,1.41-.81,2.5-1.4-.44,1.47-1,2.39-.9,3.24.12,1,0,1.65-.91,2.16-1.21.7-1.35,1.72-.72,3l2.25-1.06c.23,1.3.43,2.49.71,4.16.84-.8,1.27-1.22,1.72-1.63a45.17,45.17,0,0,1,3.73-3.34c2.62-1.87,5.34-3.59,8-5.36a6.7,6.7,0,0,1,1.14-.42,18.41,18.41,0,0,0,2.21-.92c3.58-2,7.11-4.12,10.73-6.07,3.35-1.81,6.76-3.56,10.24-5.14a15.86,15.86,0,0,1,4-.7l.22.61a22.91,22.91,0,0,1-2.05,1.25c-.58.27-1.28.27-1.83.56-4.09,2.17-8.25,4.21-12.21,6.61a102.39,102.39,0,0,0-10.57,7.31,48,48,0,0,0-7.05,7,47.26,47.26,0,0,0-4.39,7c-.63,1.1.15,1.69,1.09,1.32,1.18-.46,2.84-.62,2.72-2.63,0-.39.6-1,1.06-1.21,2.28-1.19,4.6-2.33,6.94-3.42,2.66-1.23,5.57-2.06,8-3.65,4.8-3.13,9.41-6.48,14.54-9.14a45.13,45.13,0,0,1,21.77-5.09,93.12,93.12,0,0,0,12.8-.88,17.68,17.68,0,0,0,5.91-2c3.3-1.76,6.49-3.77,9.64-5.81A55.41,55.41,0,0,0,222.1,39.11c1-1.3,1.91-2.69,2.9-4.1l-1.63-1.09c1-.56,1.12-2.05,2.75-.87,1.08.78,1.45-.4,1.54-1-1.1-.41-2-.8-3-1.08a2.2,2.2,0,0,0-1.34,0c-2.05.76-4.11,1.5-6.08,2.43-2.87,1.36-5.85,1.31-8.88,1-.31,0-.59-.38-.94-.62l11.42-2.89c0-.22-.08-.45-.11-.68a28.85,28.85,0,0,0-3.48,0c-2.18.25-4.34.69-6.52,1-.46.05-1-.31-1.47-.49v-.5a9.4,9.4,0,0,1,1.83-.62,27.65,27.65,0,0,1,4.06-.41c2.6,0,5.22-1.31,7.84.19.42.24,1.4-.22,2-.59,2-1.33,2.14-4.35,4.64-5.28.08,0,.12-.19.16-.3.72-2.1,2.7-2.74,4.36-3.73.43-.26,1.11-.11,2-.18a12.39,12.39,0,0,1-.68,1.07c-2.37,2.6-4.77,5.17-7.07,7.83-.35.39-.19,1.22-.27,1.84.48-.29,1-.56,1.43-.87.89-.56,1.85-1.7,2.61-1.58,1.37.21,2-.42,2.88-1.13,3.35-2.82,7-5.06,11.54-5.1,8.27-.08,16.11,1.58,23.19,6.12,1.7,1.1,3.36,2.26,5.05,3.39l-.31.5c-3.36-1.8-6.66-3.74-10.09-5.37S255.09,24,251.23,24c2.68,1.67,6,2.19,8.19,4.86l-2.61,1.3c0,.15.08.29.11.43,1.49-.19,3.06,1,4.51-.48a.9.9,0,0,1,.77-.18c1.39.53,2.77,1.12,4.14,1.69,1.19.5,2.35,1,3.56,1.51,1,.37,2,.64,3.06,1,0,.17,0,.34-.08.52l-7.52-1-1,1.73c-.52-.38-1-.8-1.56-1.15a6.82,6.82,0,0,0-2.06-1.12c-1.17-.25-2.45,0-3.6-.34-2.52-.65-5-1.49-7.47-2.28-3.26-1-6-.1-8.56,2A8.86,8.86,0,0,1,238.43,34c-1.52.53-3.15.79-4.68,1.3a12.1,12.1,0,0,0-2.22,1.29l.23.54a11.33,11.33,0,0,0,1.43-.11c2.72-.59,5.4-1.55,8.14-1.75,8.13-.59,16,.5,23.12,4.86a44.12,44.12,0,0,0,19.9,6.24,7.18,7.18,0,0,1,1.46.39l-.09.8a42,42,0,0,1-4.2,0c-7.61-.73-14.27-4.13-21-7.47a22.34,22.34,0,0,0-10.7-2.7c-4.23.13-8.47.26-12.66.76-5.13.6-10,2-13.81,5.89-1.13,1.16-2.05,2.51-3.25,3.58a98.05,98.05,0,0,1-8.47,7.21,67.38,67.38,0,0,1-8.27,4.63c-1.9,1-3.82,2.27-5.87,2.67-5.85,1.13-11.75,2.12-17.68,2.71-4.64.47-9.12,1.12-13.31,3.3-4.88,2.54-9.82,5-14.69,7.53-2.21,1.16-4.32,2.51-6.79,4,7.38,1.36,14.31.76,21.28-.09s13.86-1.32,21.33-2c-.8.56-1.16,1-1.59,1.1a68.09,68.09,0,0,1-8.27,2c-6.74.87-13.5,1.45-20.24,2.22-4.55.52-9.13,1-13.41,2.86-.64.27-1.54.37-1.87.86-1.37,2-3.75,2.12-5.62,3.16-.59.33-1.18.64-2.17,1.17l27.05-5.44-1.2-.69,0-.55a50,50,0,0,1,5-.16c1.26.07,2.5.69,3.76.74,1.8.07,3.59-.2,5.39-.27a11.84,11.84,0,0,1,1.67.18c0,.2,0,.4,0,.6-1.79.37-3.59.72-5.37,1.12q-9.08,2-18.13,4.09a3.85,3.85,0,0,0-.91.45c-.94.51-1.84,1.06-2.8,1.5a13.64,13.64,0,0,1-1.89.55c0,.18.05.36.07.54,5.27.52,10.47-.89,15.75-1a19.12,19.12,0,0,1-8.3,2.19c-5.18,0-10.35.17-15.29,1.88-1.15.4-2.05,1.5-3.51,2.6,1.34.33,2.09.53,2.85.69,2.59.53,5.17,1.1,7.78,1.55.95.16,2.36.39,2.84-.11,1.58-1.65,3.44-1.23,5.22-1.12,9.94.62,19.39-1,28.2-5.87a7.67,7.67,0,0,1,2.14-.43c0,.2.08.39.13.59a101.47,101.47,0,0,1-18.36,7.72,15.07,15.07,0,0,0,4.48-.44c3.25-1,6.43-2.32,9.65-3.48,6.36-2.29,12.46-5.09,17.6-9.59a72.5,72.5,0,0,0,8.35-8.08c2.6-3.14,5.43-6,9.08-7.6,4.78-2.17,9.86-4.12,15.12-2,3.89,1.55,7.46,3.91,11.24,5.77,2.27,1.12,4.59,2.43,7,2.83a28.36,28.36,0,0,0,15.88-1.73,44.68,44.68,0,0,0,6.23-2.61c3.47-2.13,5.54-5.63,7.31-9.13a35.54,35.54,0,0,1,6.59-9.46A15.29,15.29,0,0,1,295.56,52c1.73-.06,3.49.59,5.25.92l-.09.46a41.77,41.77,0,0,0-5.37,0c-1.77.22-3.78.26-4.89,2.16.26.23.36.38.43.36,4-.75,8.22.22,12-1.79a1.25,1.25,0,0,1,1.93.81c.36,1-.27,1.36-1.09,1.58a9,9,0,0,0-2.34.66c-1.77,1.06-3.5,1-5.48.57-2.44-.49-4.68-.14-6.49,2.21-1.11,1.46-3.09,2.28-4.75,3.27-1.09.64-2.5.83-3.38,1.63a5.43,5.43,0,0,0-1.18,2.95c-.05.27.94.84,1.53,1.09,1.22.5,2.47.93,3.74,1.31,1.54.46,3.1.84,4.66,1.26l-.12.77a52.08,52.08,0,0,1-5.74-.52,52.17,52.17,0,0,1-5.5-1.74,56.94,56.94,0,0,1-4.23,4.56,20.28,20.28,0,0,1-5.09,3.53c-3.29,1.43-6.77,2.38-10.13,3.67A21,21,0,0,0,256,83.87l-3.86-.21a17.57,17.57,0,0,1-9.41-3.27c-.88-.65-1.91-1.09-2.76-1.77-3.08-2.48-6.82-2.68-10.48-3.14-.4,0-.84.35-1.27.49-2.93,1-5.8,2.26-8.8,2.8a8.92,8.92,0,0,0-5.18,2.85,2.24,2.24,0,0,1-1.18.8,14.21,14.21,0,0,0-7,3.22c-4.4,3.41-8.64,7-13,10.52-1.62,1.31-3.26,2.58-4.91,3.84s-3.28,2.53-5,3.67-4,1-4.51,3.58c-.06.3-.84.48-1.3.69s-1,.46-1.57.67c-1.22.49-2.44,1-3.67,1.44l-1.09.4c0,.15,0,.3.08.44l1.92.2c0,.15.09.3.14.45l-3.83,1.38a12.44,12.44,0,0,0,2.74,1.08,9.75,9.75,0,0,0,3.41-.18c2.89-.78,5.72-1.78,8.6-2.59A12.38,12.38,0,0,1,187,111a12.47,12.47,0,0,0,1.69.15,35.4,35.4,0,0,0,11-4.11q9-5.2,18.1-10.34c.87-.49,1.85-1,2.95,0a4.67,4.67,0,0,1-.78.73c-3.45,2.1-7.06,4-10.36,6.32-5.05,3.59-9.89,7.47-14.79,11.27a1.45,1.45,0,0,0-.4,1.29c.18.44.73,1,1.15,1a33.08,33.08,0,0,0,4-.13c2.26-.13,4.52-.27,6.77-.44,1.59-.12,3.17-.28,4.76-.48a12.87,12.87,0,0,0,2-.51c3.59-1.11,7.26-2,10.29-4.42a4.57,4.57,0,0,1,1.36-.48l.21.65c-9.61,6.84-20.69,9.84-32.14,12a14.27,14.27,0,0,0,3.26.07c2.19-.12,4.39-.31,6.58-.33.46,0,.92.64,1.38,1a5,5,0,0,1-1.4.8,23.33,23.33,0,0,1-2.79.23,1.51,1.51,0,0,0,1.15.54,55.21,55.21,0,0,0,15.82-2,31.94,31.94,0,0,0,5.93-2.45c2.24-1.2,4.24-2.86,6.49-4,3.84-2,7.73-4,11.71-5.65a101.33,101.33,0,0,1,22.37-7c8.54-1.49,16.87-.27,25.07,2.24.59.18,1.21.29,1.81.43.09-.17.17-.33.25-.5l-.62-.31-9.92-4.65a14.12,14.12,0,0,1-2.64-1.31,11.21,11.21,0,0,0-6.53-2.71c-.33,0-1-.35-.94-.49.12-1.34-.85-1.11-1.61-1.26s-1.79-.43-2.88-.71c1.43-.6,1.45-1.21.27-1.77a6.77,6.77,0,0,0-2-.63c-2.75-.38-5.6-.4-8.26-1.1-4.26-1.13-8.27-.37-12.34.71-1.86.5-3.72,1-5.69,1.48.19-1,.35-1.78.45-2.29l9.83-2.08c0-.2,0-.41-.05-.61l-4.17.31c-.74.06-1.59.39-2.2.14-2.9-1.22-5.58,0-8.33.56-.56.12-1.11.27-1.66.41,0-.54.22-.76.44-.89A22.77,22.77,0,0,1,246,86.56a127.39,127.39,0,0,1,13.64,2.56,44.9,44.9,0,0,1,7.76,2.47,86.78,86.78,0,0,1,9.48,4.67c3.6,2.07,7.07,4.36,10.49,6.73,5.9,4.1,11.69,8.35,17.56,12.49,3.84,2.7,7.73,5.31,11.57,8,1.11.77,2.11,1.72,3.21,2.49a6,6,0,0,0,1.84.83c.72.2,1.5.19,2.23.38a34.31,34.31,0,0,0,15.34.83c3-.54,5.9-1.77,8.92-2.23,4.54-.69,8.6-2.69,12.79-4.29a27.46,27.46,0,0,0,4.2-2.52c.27,1.47,1.13,1.3,2,.63,1.77-1.4,3.48-2.86,5.22-4.3.93-.79,1.84-1.6,2.76-2.4l.48.36c-.18.69-.36,1.38-.61,2.32l1.47-1V117c-2.63,1.67-5.24,3.39-7.93,5a28,28,0,0,1-3,1.06c-1.08.48-2.09,1.15-3.17,1.65-2.77,1.28-5.78,2.18-8.3,3.83-5.72,3.75-12,6-18.5,7.75a19,19,0,0,1-2.93.42c-1.45.14-2.31-.81-1.84-2.16.11-.33.94-.79,1.09-.68,1.17.78,1.85.1,2.87-.45,1.33-.69,3-.7,4.54-1,.52-.11,1-.28,1.77-.48-2.42-1.47-4.71-1.4-7.15-1.47a47.19,47.19,0,0,1-10.39-1.72,45.07,45.07,0,0,1-8.27-3.17c-1.83-.89-4.15-1.07-5.33-3.21-.24-.43-1.24-.43-1.67-1-.66-.47-1.36-.89-2-1.41a35.78,35.78,0,0,0-3.35-3c-6.25-4-12.6-7.83-20.19-8.83-3.61-.48-7.14-1.73-10.74-1.87-6.43-.27-12.65,1.34-18.81,3a44.82,44.82,0,0,0-7.8,2.75c-2,1-3.63,2.63-5.47,3.91-3.44,2.38-6.66,5-9.88,7.66-5,4.15-10.49,7.68-17.23,8.5-.78.09-1.44.9-2.21,1.26a10.34,10.34,0,0,0-2.23,1.12c.58,0,1.15,0,1.73,0,3.42.12,6.84.24,10.24.41a4.12,4.12,0,0,1,1.85.46c2.3,1.32,4.54.87,7,.41,2.81-.51,5.76-.17,8.65-.16.34,0,.68.28,1.05.74-5.12,2-10.7,2-15.79,4,5.64.69,11-1.82,16.63-1.29-5.72,2.07-11.84,2.09-17.7,3.53,6.34,1.37,12.47-.95,18.94-1.42a8.51,8.51,0,0,1-5.1,4.26c-3.36,1.28-6.81,1.2-10.24,1.66a73.66,73.66,0,0,0-7.71,1.81c-.22,1.74.5,2.69,2.11,3.3,1.78.66,3.4,1.72,5.14,2.47a9.66,9.66,0,0,0,2.54.45l9,1.06a5.76,5.76,0,0,1,.92.28v.49h-7.21c0,.2-.05.4-.08.6a14,14,0,0,0,2,.62,72.52,72.52,0,0,0,7.58,1c3.92.17,7.85.09,11.79.05a65.21,65.21,0,0,0,7.79-.31,31.55,31.55,0,0,0,7-1.75,86.48,86.48,0,0,1,23.92-5.77A30.13,30.13,0,0,1,305,154a35.52,35.52,0,0,0,4.58,1.34,3,3,0,0,1-4,1.62c-3.92-1.73-8-1.2-12-.83a67.57,67.57,0,0,0-8.7,1.72,18,18,0,0,0-3.41,1.22c-.3.13-.4.69-.58,1l-15.38,3c0,.16,0,.32,0,.48,1.4.25,2.8.45,4.2.75a51.75,51.75,0,0,0,16.6.86,37,37,0,0,0,9-2c2.63-1,5-2.79,7.44-4.18a13.74,13.74,0,0,1,2-.76l.36.72c-.77.47-1.51.95-2.29,1.4-2.23,1.29-4.5,2.51-6.71,3.85-3.3,2-7,2.28-10.71,2.48a59.75,59.75,0,0,1-19.82-2.06,9.56,9.56,0,0,0-1.63-.19c-.06.22-.13.45-.19.68,1.52.46,3,1,4.54,1.36,1.69.41,3.39.74,5.09,1s3.25.47,4.87.7l0,.54a10.8,10.8,0,0,1-2,0c-4.33-.79-8.66-1.61-13-2.49a3.26,3.26,0,0,1-1.56-1.06,2.15,2.15,0,0,0-3.22-.39c-.73.52-1.4.86-1.95-.29a1.51,1.51,0,0,0-1.14-.55q-7.4-.08-14.8-.07a6.22,6.22,0,0,0-1.16.22,4.61,4.61,0,0,0,4.35,2.86,7.15,7.15,0,0,1,1.95.7c1.55.6,3.08,1.2,4.61,1.82a61.15,61.15,0,0,0,22.53,4.68,23,23,0,0,1,6.3,1.08,19.57,19.57,0,0,0,11.15-.32,61,61,0,0,0,11.89-4.18c3.55-1.85,6.63-4.64,9.79-7.16,2.94-2.33,5.72-4.84,8.57-7.28a17.18,17.18,0,0,1,1.85-1.58c.35-.23.91-.14,1.37-.2,0,.42.07,1-.16,1.24-1.06,1.27-2.21,2.45-3.5,3.85,7,2,14,.72,21-1,7.21-1.73,12.53-6.62,18.54-11-3.37-1.79-6.46-2.44-9.73-.92-3.85,1.78-8,2.17-12.14,2.62-2.48.27-4.87,1.39-7.29,2.17-.26.08-.42.46-.75.86,2.92.85,5.54-.09,8.39-.75-1.53,3-8.87,2.77-13.67,1.3a28.25,28.25,0,0,1,3.67-3,78.09,78.09,0,0,1,10.62-5.51,33.48,33.48,0,0,1,28.41,1.93c3.16,1.67,6.11,3.76,9.15,5.65v2.1c-1.26.92-2.88,1.59-3.74,2.8a58.46,58.46,0,0,0-4.35,7.53c-1.47,2.89-2.82,5.86-4.1,8.84a46.9,46.9,0,0,0-1.42,4.69,66.23,66.23,0,0,1,6.8,1.21c2.33.64,4.55,1.7,6.81,2.57v6.3a9.65,9.65,0,0,0-2.55-1A18.23,18.23,0,0,0,360,191.33a99.7,99.7,0,0,0-8.44,8.27c-1.18,1.22-2.13,2.64-3.2,4l.43.62c.93-.36,1.87-.72,2.8-1.1a23.47,23.47,0,0,1,15.85-.69c2.94.83,4.06,3.58,2.45,6.47a5.39,5.39,0,0,1-.18-.72c-.32-2.72-1.27-3.67-4-3.64-3,0-5.88.1-8.71,1.34-3.32,1.45-6.83,2.49-10.14,3.94-5.34,2.33-7.46,7-8.38,12.37-.29,1.73.33,2.24,2,1.76,2.27-.67,4.62-.67,6.86-2.06s4.61-2,5.73-4.67c-1.17,2.46-2,5.26-4.56,6.5-3,1.46-6.25,2.35-9.35,3.56a3.51,3.51,0,0,0-1.52,1.26,12,12,0,0,0-.89,2.07c-.76,1.67-.52,2.08,1.24,2.59a29.4,29.4,0,0,1,5.06,1.76,48.37,48.37,0,0,1,6.74,4c2.32,1.67,5,2.86,6.75,5.32a7.26,7.26,0,0,1-3.85,11.11,9.77,9.77,0,0,0,3-5.24,5.59,5.59,0,0,0-3.12-6.16c-4.16-2.33-8.2-4.79-12.95-5.77-1.46-.31-2.94-.56-4.43-.75-1.17-.16-1.73.49-2.06,1.62a21.92,21.92,0,0,1-10.74,13.75,18.89,18.89,0,0,1-5.35,2.28c-5.36,1-10.81,1.42-16.14,2.48-5.75,1.14-11.46,2.54-17.07,4.21-4.94,1.47-9.35,4.1-13.79,6.81-3.92,2.38-6.29,5.56-8.42,9.51a3.6,3.6,0,0,0,1.27.17c3.5-1.17,7.13-2.08,9.89-4.83a78.62,78.62,0,0,1,6.83-6.47c3.09-2.42,6.79-3.92,10.7-3.08a27.37,27.37,0,0,1,8.61,3.65,94.26,94.26,0,0,1,10.54,7.93,8.15,8.15,0,0,0,7.14,1.79c2-.35,2.51-1.38,1.86-3.26-.4-1.15-1-2.25-1.32-3.42a5,5,0,0,1,.07-1.71c.88.85,1.23,1.78,1.87,2.39a5.06,5.06,0,0,1,1.63,5.35c-.78,2.34-2.55,4.21-5.23,4.22a14.18,14.18,0,0,1-8.82-2.63c-4.55-3.38-9.11-6.78-13.88-9.84a7.9,7.9,0,0,0-8-.49,19.58,19.58,0,0,0-5.16,4.09,28.6,28.6,0,0,1-9,7c-1.49.69-1.39,1.2-.15,2.21a60.8,60.8,0,0,1,5.54,5,5.66,5.66,0,0,1,1.64,3.19c.2,2.89.15,5.84-1.53,8.43-1.29,2-2.31,4.29-4,5.91-3.83,3.72-7.07,8.19-12.46,10.07-3.88,1.36-5.84,4.6-6.87,8.43a2.3,2.3,0,0,0,.42,1.74c1.27,1.44,2.56,2.91,4.83,2.47a7.89,7.89,0,0,1,1.91.23c-3.3,1.87-7.44.48-7.86-3.07-.08-.7-.18-1.39-.29-2.08-.52-3.36,1.66-7.41,4.48-9.13,4.23-2.57,8.6-4.89,11.85-8.92,3.85-4.77,4.4-12.82.17-17.56a4.38,4.38,0,0,1-.65-1c-1.13-2.32-1.84-2.88-4.4-2.55-1.75.23-3.41,1-5.16,1.41a16.66,16.66,0,0,0-7.19,4c-4.31,3.72-7.08,8.58-9.61,13.57a15.23,15.23,0,0,1-5.49,6.16,8.24,8.24,0,0,1-7.83.83c-5.3-2.23-10.17-1.7-14.66,1.93-3.07,2.48-6,5.18-9.91,6.28-.92.26-1.1.92-.28,1.51a12.42,12.42,0,0,0,2.81,1.69,42.19,42.19,0,0,0,15.78,3,21.85,21.85,0,0,1,3.79.3c2,.34,4,1.15,6,1.16,4.51,0,8.61.89,11.83,4.33a7.19,7.19,0,0,1,2.22,4.75,2,2,0,0,1-1.09-.62,14.42,14.42,0,0,0-6.09-4.43c-3.92-1.42-7.84-1-11.85-.54a82.82,82.82,0,0,1-9.84,0,31.07,31.07,0,0,0-4.07-.2c-2.39.29-2.45.53-1.4,2.77,1.65,3.54,2.93,7.13,1.38,11.08a5.06,5.06,0,0,1-.56.86l-.57,0c1.22-3.2,0-5.83-1.7-8.23s-3.42-5.09-6.54-6.25c-2.22-.83-4.29-2.08-6.53-2.88-1.3-.47-2.72-1.21-4.66-.45.81.78,1.34,1.35,1.94,1.84.9.73,1.85,1.4,2.78,2.08a4.84,4.84,0,0,1,2,5.22,21.08,21.08,0,0,0-.49,4.68,183.42,183.42,0,0,1-1.42,25.77c-.55,5.19-.8,10.42-1.28,15.62-.22,2.43-.92,4.83-1,7.26s-1.14,4-2.63,5.63c-3.31,3.71-7.72,5.9-11.68,8.7-4.21,3-8.58,5.72-12.87,8.58-2,1.32-3.86,2.8-5.9,4-3.22,1.87-6.54,3.53-9.8,5.32-2.59,1.42-5.08,3-7.73,4.33q-8.1,4-16.33,7.76-6.16,2.82-12.46,5.38c-2.06.83-4.26,1.31-6.37,2.05s-4.07,1.76-6.18,2.3c-7.24,1.86-14.49,3.68-21.79,5.29-5.43,1.2-10.94,2-16.4,3.08a6.77,6.77,0,0,0-2.14,1c-1.13.69-2.22,1.26-3.52.33a2.17,2.17,0,0,0-1.29-.38c-6.42.29-12.65-1.21-19-1.84-3-.3-4.25-1.46-5-4.41-.54-2.08-1.09-4.16-1.71-6.23-.31-1-.75-2.06-1.14-3.08-1.09-2.86-1.65-6.11-3.4-8.49-2.83-3.86-6.42-7.16-9.71-10.66-2.21-2.35-4.47-4.66-6.71-7Q5.39,402.82,0,397.26v-4.89C.32,392.26.66,392.18,1,392ZM76.3,65.9c.17,1.43.28,2.43.41,3.52C78,68.33,77.94,67.34,76.3,65.9Zm5-10.77-1,3.36.84.2.74-3.39ZM79.22,70.3c-.77,3.5.25,5.42,3.31,6.07C81.31,74.11,80.26,72.21,79.22,70.3Zm52.1-21.21c1.05-.77,2.2-1.44,2.57-2.69l-3.22,2.12ZM354.49,158.15a30.78,30.78,0,0,0,2.57-2.25c.92-1,1.75-1.59,3.29-1.09.89.29,2.12-.21,3.09-.62,1.67-.69,3.26-1.58,5-2.44l-1.1-.85.58-1.44a28.81,28.81,0,0,0-3.44-1.7,2,2,0,0,0-1.73.39c-2.87,3-5.64,6.11-8.44,9.18C354.26,157.38,354.34,157.54,354.49,158.15ZM17.4,302.67a2.87,2.87,0,0,0,1-1.2c.09-.23-.36-.67-.77-1.36a9.91,9.91,0,0,0-1.1,1.84C16.5,302.09,17.32,302.73,17.4,302.67Zm11.12-78c2.91-1.9,3.7-5.63,1.69-7.79C29.61,219.68,29.06,222.19,28.52,224.69Zm.32-18.12c1.37,3.29,2.84,6.53,4.33,9.76.65,1.4,1.55,2.68,2.15,4.1a2.32,2.32,0,0,1-.41,1.65C33,222,32.44,223.75,32,224.79c-1.22,2.75-3.6,4-5.83,5.47-.61.4-1.64,1.32-1.56,1.45.65,1.09,1.06,2.65,2.71,2.57a5.29,5.29,0,0,0,2.61-.79c1.59-1.13,3-2.48,4.56-3.71a12,12,0,0,1,1.48-.86c0,3.57-1.46,5.73-4.46,6.87-.38.14-.64.57-.95.87a10.37,10.37,0,0,0,1,.77c.68.42,1.39.8,2.07,1.19,1,.55,1.95.81,2.49-.44,1.58-3.61,4.57-6.07,7-9a25.43,25.43,0,0,0,3.8-5.89c.84-2-.71-4.92-2.55-6.08-.54-.34-1.07-.68-1.63-1-2.42-1.36-2.52-2.11-.57-4.54a4.48,4.48,0,0,0-1.61.33,1.48,1.48,0,0,1-2.36-.43,8.49,8.49,0,0,0-4.72-3.06c-3.23-1-3.46-1.3-3.12-4.45C28.93,204,28.21,205.06,28.84,206.57Zm17.46,7.68c-.6-.13-1.21-.3-1.83-.39a7.37,7.37,0,0,0-1.15,0l-.18.37c.27.23.53.61.84.68a9.93,9.93,0,0,0,2.11.12C46.17,215,46.23,214.52,46.3,214.25Zm12.61-59.1a1.69,1.69,0,0,0-.32,1.22A13.22,13.22,0,0,0,64,165c2.26,1.7,4.72,3.11,7.11,4.66a10.8,10.8,0,0,0,1.82-2.17,3.37,3.37,0,0,0,0-2.17,2.08,2.08,0,0,0-1.14-1c-4.19-1.77-6.64-5.81-10.46-8.06-.44-.26-.82-.64-1.29-.87S59,155,58.91,155.15Zm6.2-22.65a15.69,15.69,0,0,0-1.1,2,2.3,2.3,0,0,0,0,1.3,1.06,1.06,0,0,0,.91.1c.36-.28.82-.75.82-1.13A9,9,0,0,0,65.11,132.5Zm-.79,5.3c-.22-.1-.31-.47-.54-.84l-3.49,9.64.43.35c.7-.41,1.42-.79,2.12-1.22a24.71,24.71,0,0,1,2.15-1.4c1.19-.57,1.45-1.14,1.52-2.68C66.61,139.53,66,138.57,64.32,137.8Zm5.18,7.53A1.76,1.76,0,0,0,68,145.1c-2.33,1.39-4.62,2.84-6.84,4.39-1.12.78-1,1.43.3,2a7.1,7.1,0,0,0,2.43.86c2.38,0,3,1.55,3.73,3.39s2.12,3.09,3.23,4.62c.06.08.21.18.29.16,1.93-.41,2.4,1,2.79,2.49l.73-.11a42.28,42.28,0,0,0,.26-4.34c-.06-2.06.11-4.22-1.58-5.89-.31-.31-.27-1-.43-1.46C72.17,149,71.49,146.75,69.5,145.33ZM86.34,86.09a9.93,9.93,0,0,1-2.42-.16l-.18-.39c-1.58.61-3.18,1.16-4.69,1.88-.41.19-.56.93-.82,1.42a4.92,4.92,0,0,0,1.52.32,19.64,19.64,0,0,1,10,1.53,4.77,4.77,0,0,0,1.57.07,4.78,4.78,0,0,0-.28-1.64C90,87.33,88.86,85.68,86.34,86.09Zm15.89-30.67c-.9.39-1.74.94-2.67,1.28a1.88,1.88,0,0,1-2.65-.89,2,2,0,0,0-3.23-.61,20.12,20.12,0,0,0-4,4.29c-.4.59.1,1.81.24,3.18,1.89-1.57,3.29-2.75,4.69-3.93l.57.4a43.39,43.39,0,0,0-1.31,4.54c-.18.91-.21,2.54.22,2.74,1,.48,2.51,1.76,3.28-.64l1.76,2.15c.28-5.39,2.86-9,6.69-11.88A2.89,2.89,0,0,0,102.23,55.42Zm8.67,1.85c.32-1.34-.7-1.91-2-1.23a18.61,18.61,0,0,0-6.79,6.83c-1,1.67,0,5.87,1.55,6.74.7.38,1.73.15,2.77.2.3-1.15.53-2.35.92-3.48s1-2.14,1.41-3.24A42.6,42.6,0,0,0,110.9,57.27ZM98.68,102.64c3.56-1.3,6.76-3.88,11-2.82,0-.27,0-.55,0-.82a8.35,8.35,0,0,0-2.13-.51C102.82,98.6,99.61,100,98.68,102.64ZM119,76.45c0-.19-.51-.49-.63-.44s-.61.5-.57.7c.27,1.23.63,2.44,1,3.65l.75-.15C119.34,79,119.2,77.7,119,76.45Zm70.8,73c0-1.87,0-3.73-.14-5.59a29.64,29.64,0,0,0-3.24-12.35c-1.7-3.29-3.24-6.66-5.85-9.37a3.61,3.61,0,0,0-2-1c4.15,5.71,7.42,11.9,8.72,18.69s1.45,13.85,2,20.3C190.59,157,189.7,153.18,189.79,149.44Zm-3,21.6.57.17q.93-4.2,1.84-8.4l-.57-.14Q187.73,166.86,186.82,171Zm25,1.43a14.85,14.85,0,0,1-2.46-11.76c.16-.71-.57-1.72-1.11-2.43a25.91,25.91,0,0,0-2.3-2.39c-.08-.09-.11-.25-.2-.29-2.7-1.19-3.41-3.77-4.48-6.2a15,15,0,0,0-7.76-7.59c.38-.6,1.07-1.45,1-1.59a9.59,9.59,0,0,0-1.78-1.41c-.47,1.39-.89,2.57-1.26,3.77a5.32,5.32,0,0,0-.13,1.2c-.25,5.41-.42,10.82-.74,16.23a78.56,78.56,0,0,1-3.08,16.58c-.87,3.07-2.1,6.1-2.5,9.23-.33,2.46.3,5.06.64,7.59.47,3.54,3.15,5.88,4.94,8.7,1.17,1.84,2.55,3.56,3.83,5.33,0,.05.1.11.09.15-.57,2.55,1.83,2.77,3,3.92a1.87,1.87,0,0,0,.55.43c1.78.67,3.57,1.32,5.8,2.13-.15-.91-.23-1.63-.38-2.32-.45-2-.75-3.9.65-5.68a2.06,2.06,0,0,0,.36-1.46c-.32-1.62-.46-3.11,1.28-4,.55-3.68,3.43-6.56,3.29-10.55a61.62,61.62,0,0,1,.58-10.6c.24-1.72,1.49-3.27,2.15-5A2.69,2.69,0,0,0,211.81,172.47ZM185,196.88c.39,5.07,4.23,7.58,7.59,10.46Zm27.52,46.36a11.43,11.43,0,0,0-.51,1.15l2.48.77.39-1C214.15,243.83,213.37,243.49,212.56,243.24Zm9.31-43.77c-.15.52-.58,1.15-.41,1.52,1.24,2.77,2.62,5.49,3.95,8.23l.53-.23c-.11-.47-.21-1-.34-1.53l1.08-.14c-1.15-2.46-2.16-4.8-3.32-7.06C223.15,199.85,222.38,199.73,221.87,199.47Zm3.06-18.15-.53.44,2.16,2.68.53-.44Zm2.32,5.06c-.12-.09-.3-.07-1.07-.23.78,1.35,1.41,2.3,1.87,3.33a7.88,7.88,0,0,1,.49,2.17c.41,2.73.75,5.46,1.21,8.17.06.37.69.64,1.1,1a2.79,2.79,0,0,0,.35-.43c-1.21-1.88-1-4-1.32-6.13,0-.29-.23-.61-.15-.84,1-2.72-1.44-4.32-2-6.5A1.16,1.16,0,0,0,227.25,186.38Zm18.12-6.09c-.24-.67-.61-1.31-.79-2a15.46,15.46,0,0,1-.25-2.06c-.05-.41-.09-.82-.14-1.24-.44.19-1.12.27-1.27.59a2.55,2.55,0,0,0-.13,1.78,40,40,0,0,0,2.74,6.73c.88,1.49,2,3.14,4.13,3.35s4.07.66,6.1.94a3.64,3.64,0,0,0,1.26-.26c0-.1,0-.2,0-.3l-1.44-.32c-1.83-.42-3.65-.87-5.49-1.23C246.76,185.63,246.26,182.83,245.37,180.29Zm5.5-2.65c-.54.06-1.12-.37-1.74-.6.3,1.74,5.92,4.12,8.64,3.77C256.33,177.65,253.76,177.34,250.87,177.64Zm15.18,2.79c0,.27,0,.54,0,.81H270c0-.2,0-.41,0-.62Zm5.79,1.68a1.41,1.41,0,0,1-.73.46c-4.14,1-8.09,2.91-12.53,2.41a38.31,38.31,0,0,0-4.42,0c0,.22,0,.45,0,.67,1.14,0,2.3.08,3.45.15,1.47.09,3,.21,4.43.32.23,0,.48.19.68.13,3.09-.92,6.19-1.83,9.27-2.81,1-.33,2-.84,3-1.26a5,5,0,0,0,1.72-1C275.05,181.33,273.19,180.34,271.84,182.11Zm53.88-3c-.06-.21-.13-.42-.19-.63l-11.44,3.79c.08.27.15.54.23.81Zm-6.76,8a8.13,8.13,0,0,0,.26.81l2.81.11a3.36,3.36,0,0,0-.09-.73C321,187.22,320.1,187.19,319,187.13Zm-4.67-22.73c-.34.2-.75.7-.71,1a1.22,1.22,0,0,0,.9.82c1.15,0,2.28-.27,3.86-.48C316.84,164.42,315.8,163.53,314.29,164.4Zm19,1.31c-3.58-.05-7.15-.14-10.73-.16a3,3,0,0,0-1.86.46c-2.12,1.92-4.67,1.68-7,1.17-2.14-.46-3.41-.07-4.3,2.25a20.64,20.64,0,0,0-2.54,1.25c-1.87,1.21-3.68,2.51-5.51,3.79a9,9,0,0,0-.77.68c6.22,2.84,32.83-4.15,35.2-9.44Zm3.38,22.21c1.67-.91,3.38-1.76,5.05-2.7a21.34,21.34,0,0,0,1.91-1.41l-.24-.55a10.82,10.82,0,0,0-1.68.6c-3.75,1.95-7.38,4.2-11.26,5.83-2.92,1.23-6.12,2.06-9.42,1a13.79,13.79,0,0,0-2.59-.22c-.72-.07-1.43-.2-2.46-.36l1.35-1.64c-.47,0-.79-.07-1.09,0-1.83.09-3.65.17-5.47.32-.79.07-2-.55-2.07,1.05,0,.11-.61.32-.9.27-2.93-.51-5.76-.85-8.34-2.92a25.15,25.15,0,0,0-13-5.15c-2.81-.32-5.81.69-8.67,1.35a71.73,71.73,0,0,0-7.6,2.34,68.91,68.91,0,0,0-8.9,3.82l5.09-1c-.42,2-1.92,1.83-2.93,2.23-1.46.58-3,.88-4.36-.5-.26-.27-1-.2-1.43-.16-3.61.32-7.11.38-10.48-1.51-2-1.1-2.53-3-3.46-4.63-1.73-3.13-3.1-6.47-4.87-9.57a10.62,10.62,0,0,0-7.84-5.29c-.4-.07-.87.24-1.32.38.35.37.62.88,1.05,1.1,1,.51,2.08.88,3.42,1.43-.52.34-.94.47-1.07.74-.24.47-.57,1.15-.4,1.53,1.17,2.56,2.46,5.06,3.71,7.58,1.92,3.9,3.46,8,5.86,11.64,2.49,3.75,5.57,6.14,10.27,4.29,3.15-1.24,6.2-2.79,9.29-4.21.21-.09.37-.38.57-.39,4.26-.36,7.67-3.12,11.7-4.18a30.18,30.18,0,0,1,18.27.65,149.21,149.21,0,0,0,16,4.48,32.16,32.16,0,0,0,17.49-.72C329.86,192.14,333.15,189.86,336.68,187.92Zm-105.25,9.35c.35.46.7.93,1,1.39l.78-.77-1.19-1.17Zm9.56,4.56c1.8,1.49,3.65,2.89,6.1,3.25l.08,0,.12,0-.08-.05h0l-.11,0-5.83-3.71Zm48.62,1.62c7.14.41,13.17-3.72,19.95-5.17a18.86,18.86,0,0,0-3.1,0c-4.09.68-8.15,1.61-12.27,2.15-3.72.49-7.49.59-11.23.87-.4,0-.79.09-1.18.13l0,.75,9.51-.44.15.6Zm2.12,5.24c0,.15,0,.29.08.44l4.11-.59c-.08-.32-.15-.64-.23-1ZM273.54,198.4c0,.23,0,.46,0,.69a12.78,12.78,0,0,0,2.43.29q9.27-.72,18.52-1.59c.64-.06,1.23-.65,1.83-1-.45-.47-.85-1.25-1.39-1.36a42.21,42.21,0,0,0-8.35-1.28c-4,0-8.06.66-12.08,1a17.7,17.7,0,0,0-2.07.22,3.64,3.64,0,0,0-1.92,1,79.09,79.09,0,0,1,23.08-.59c0,.31.05.62.07.93Zm8.76,7.27,6.05-.88C286.74,203.49,286.74,203.49,282.3,205.67Zm2.87,4.38a9.79,9.79,0,0,1-2,.6c-4,0-7.61,1.52-11.24,3.06-1.28.54-2.88.29-4.33.41a21.5,21.5,0,0,0-4.28.43c-2.41.71-4.74,1.72-7.1,2.61a100.52,100.52,0,0,0,32.16-7.76C287.31,209.61,286.23,209.8,285.17,210.05ZM261.53,212c-1.08-1.29-2-1.41-3.88-.54Zm-4.75,1.74-.06.76,2.87.24,0-.71ZM264,208l-16.74-2.89c1.21.67,2.37,1.7,3.65,1.88C255.29,207.62,259.68,207.88,264,208Zm21.61,47.71a8.1,8.1,0,0,0,1.89.13A93.3,93.3,0,0,0,298.07,254c3.88-1.11,7.57-2.87,11.4-4.19a68,68,0,0,1,8.49-2.44c4.28-.89,8.14-2.25,10.35-6.43.38-.7,1.08-1.22,1.5-1.9.53-.86.46-1.67-.79-1.64-2.4.07-5-.77-6.83,1.87-.39.56-1.45.63-2.17,1-6,3-12,5.95-18.06,8.92-3.72,1.83-7.24,4.11-11.62,4.36-1.63.1-3.2,1.08-4.79,1.65C285.58,255.35,285.62,255.55,285.65,255.75Zm-4.44-31.55,3-.9-.27-.81L281,223.64ZM265,226a69.69,69.69,0,0,0,12.27-3c6.16-2.35,12.08-5.35,18.14-8a20.8,20.8,0,0,1,4-1c3-.62,6-1.18,9-1.81a14.63,14.63,0,0,0,1.95-.69c0-.17,0-.35,0-.52a7.69,7.69,0,0,0-1.13-.53,22.69,22.69,0,0,0-9-.4,142.45,142.45,0,0,0-25,6.16c-3.47,1.12-7.07,1.83-10.6,2.74-.5.12-1,.28-1.63.46l1.15,1.41c-1.63,0-2.85,0-4,0a34.32,34.32,0,0,0-3.77-.22,26.68,26.68,0,0,1-12.63-1.8,5.92,5.92,0,0,0-1.66-.52,8.55,8.55,0,0,1-4.68-2,10,10,0,0,0-3.15-1.26c-1.26-.43-2.91-.41-2.54-2.52.05-.25-.28-.63-.53-.84-1.2-1-2.42-1.94-3.65-2.9l-.53.08c.07.71.14,1.43.17,2.14,0,.48.16,1.11-.07,1.43-1.07,1.43-.26,2.18.92,2.68,1,.42,1.69.93,1.68,2.13a1.27,1.27,0,0,0,.52.85q3.54,2.5,7.11,4.94a5,5,0,0,0,1.25.6C247.21,226.31,256,227.59,265,226ZM243.34,238.4c.28.09.69-.25,1-.39-.17-.39-.24-1-.52-1.15a13,13,0,0,0-5.47-1.13l-.24.81C239.88,237.17,241.6,237.83,243.34,238.4ZM45.35,448a13.39,13.39,0,0,1,3.29,0c3,.84,4.69-.82,6.09-2.88,3.75-5.45,7.59-10.86,10.92-16.57,1.82-3.12,2.76-6.77,4-10.23q2.25-6.49,4.24-13.08c.88-2.94,1.61-5.94,2.31-8.94,1-4.3,1.85-8.63,2.84-12.93a17.93,17.93,0,0,1,1.22-3.45,4.07,4.07,0,0,1,3.29-2.53c6.14-.9,12.28-1.81,18.41-2.84a51.16,51.16,0,0,0,6.2-1.57c6-1.75,11.94-3.43,17.84-5.38,6.61-2.19,13.2-4.46,19.66-7,7.86-3.12,15.67-6.42,23.33-10,3.26-1.53,6.09-4,9.09-6.05.33-.22.76-.58.79-.9.17-2.1,2.25-2.84,3-4.43,1-2,1.88-4.05,2.77-6.1.09-.21-.06-.56-.18-.81-1.18-2.4-1.19-2.4,1.16-3.23-1-2.08.21-2.88,2.29-3.13l-1.08-1.49c.21-1.74,2.39-2.56,1.88-4.56,2.52-1.79.82-5.58,3.53-7.4.84-.57.21-1.51-.86-1.6-.72-.06-1.46,0-2.15,0-.06-.31-.13-.48-.08-.53,1.29-1.47,1.62-2.46,1.58-5.17-1.58.41-3.1.82-4.63,1.2a18.35,18.35,0,0,1-2.9.57c-.48,0-1-.35-1.48-.54.24-.61.32-1.41.76-1.78a9.12,9.12,0,0,1,2.23-.94c1.33-.56,2.62-1.18,4-1.69,1.59-.61,3.24-1.06,4.83-1.69,2-.79,3.94-1.66,5.88-2.56,3.5-1.61,7-3.27,10.35-4.85.14-.72.06-1.88.44-2.05a4.13,4.13,0,0,1,2.71-.17c1.18.36,1.76.31,1.88-1.05a5.05,5.05,0,0,1,.62-1.39l1.34,1.7a7.91,7.91,0,0,0,1-1.73c.33-1.22,1-1.47,2-1s3.71-.12,4.3-1.16a23.82,23.82,0,0,0,2.37-4.77,24.41,24.41,0,0,0,.7-5.86,2.44,2.44,0,0,1,1.59-2.37c.33,2,.66,3.83,1,5.92a29.06,29.06,0,0,0,3.55-7.83,11.19,11.19,0,0,1,1.63-3.72c1.84-2.53,3.89-4.91,5.83-7.36a2.87,2.87,0,0,0,.37-.65c-1.11-.91-2.09-1.6-2.93-2.44-2.82-2.8-5.82-4.75-10.15-4.15-2,.28-4,.2-5.74,1.47-.4.31-.76.71-1.19,1a7.37,7.37,0,0,1-2.42,1.37c-1.48.25-2.17.85-2.08,2.39a8.76,8.76,0,0,1-.29,1.8l-.48,0c-.14-.51-.48-1.05-.4-1.51.38-2,.07-3.41-2.66-3.38l.21-.47a5.88,5.88,0,0,1,1.23-.87c2.68-.94,5.39-1.81,8.08-2.74,1.78-.61,3.53-1.26,5.31-1.9-1-.91-2-1.71-3-2.58-1.3-1.24-2.55-2.33-4.57-1.37-.58.27-1.48-.33-2.21-.24a64.13,64.13,0,0,0-6.47,1.06c-3,.68-5.86,1.64-8.83,2.28-1,.22-2.12-.28-3.19-.24-.61,0-1.71.39-1.76.73-.24,1.76-1.87,2-2.87,2.91A37.89,37.89,0,0,1,191,255.4c-.86.59-1.78,1.09-2.66,1.63-.13-.15-.27-.3-.41-.44a9.86,9.86,0,0,1,.57-1.33c1.74-2.85,3.52-5.69,5.27-8.55a2.44,2.44,0,0,0,.34-1.14c0-1.55.62-2.25,2.83-1.2l-.94-2.43c.82-2.09,1.61-4.07,2.53-6.38.33.94.54,1.55.74,2.16l.47.11a12.45,12.45,0,0,0,.62-2.26c.1-1.33-.08-2.69.07-4,.07-.56.66-1.07,1-1.61a6.12,6.12,0,0,1,1.17,1.34c.7,1.56,1.27,3.18,1.88,4.78l.48,0a6.33,6.33,0,0,0,0-1.63q-1.11-4.2-2.31-8.38c-.21-.71-.59-1.38-.78-2.1a3.26,3.26,0,0,1-.2-1.82c.83-2.19.48-3.57-1.58-5a42,42,0,0,0-4.94-3.24,20,20,0,0,1-5.93-4.91c-2.71-3.17-5.73-6-7.26-10.09-2.07-5.52-1.81-11-.41-16.64.89-3.55,1.65-7.13,2.48-10.69.4-1.7.76-3.41,1.27-5.08a51.58,51.58,0,0,0,1.51-19.76c-.39-4.15-2.29-8.14-3.11-12.28-.41-2-1.63-2.76-3.14-3.54q-4.47-2.3-8.89-4.69c-2-1.11-3.95-2.62-6.12-3.34a38.45,38.45,0,0,0-7.53-1.25c-2-.23-3.94-.22-5.9-.39a12.17,12.17,0,0,1-2.2-.72l2.86-1.63a9.34,9.34,0,0,0-1.68-.93c-4.56-1.31-9.12-2.59-13.7-3.81-1.23-.33-2.55-.29-3.78-.64a17.57,17.57,0,0,1-2.86-1.33,8,8,0,0,0-.89-.5,47.43,47.43,0,0,0-6.69-1.83c-2.9-.39-5.86-.32-8.8-.42-1.91-.07-3.82,0-5.73-.12-2.14-.14-2.88-1.59-2.34-3.63a6.66,6.66,0,0,0-.34-3.34c-.07-.26-1.34-.53-1.73-.28a38.1,38.1,0,0,0-5.49,3.9,53.72,53.72,0,0,0-5.45,5.83c-2.59,3.16-3.59,7-4.12,11-.38,2.76-.59,5.55-.73,8.33-.25,5.18,1,10.14,2.29,15.1.71,2.88,1.3,5.78,2,8.66a2.28,2.28,0,0,0,.83,1.27c.92.61,1.07,1.39.26,2-1.18.82-1.14,1.95-1.18,3.1a19.42,19.42,0,0,1-8.28,15.62,43.45,43.45,0,0,1-10.23,5.09,9.57,9.57,0,0,0-5.36,13.35c.1.18.07.43-.19.94a5.22,5.22,0,0,1-1.23-1,7.22,7.22,0,0,1-.71-6.71,15,15,0,0,1,8.8-8.63,27.44,27.44,0,0,0,12.73-9.9c1-1.4,1.14-3.61,1.34-5.48,1-9-1.67-17.39-3.94-25.89a29.21,29.21,0,0,1-.68-14.3A97.89,97.89,0,0,1,88,112.93a27.26,27.26,0,0,1,6.68-10.28c1.46-1.39,2.73-3,5-3.25.73-.08,1.36-1,2.09-1.56-1.88-.89-1.89-.88-2.91.68-2.88-1.3-7.18-.13-9.39,2.4a25.77,25.77,0,0,1-3.32,3c-.76.61-1.13,1.13-.32,2a3.51,3.51,0,0,1,.52,1.11c-.83,0-2-.23-2.13,0a5.28,5.28,0,0,0-.39,2.7c.1.92.41,1.61-1,1.54a2.66,2.66,0,0,0-2.64,2.91,5.81,5.81,0,0,1-2,5A24.15,24.15,0,0,1,74,122.7c-1.44.86-1.4,1.8-.92,3,.63,1.63,1.37,3.23,1.85,4.9,1.52,5.25,1.15,10.71,1.64,16.08.25,2.6.11,5.24.12,7.86,0,7.89-2,15.07-7.38,21-.36.39-1.06.47-1.6.69a9.23,9.23,0,0,1-.13-2.61c.13-.59.81-1.07,1.63-2.06a20.28,20.28,0,0,0-3.33-.65c-4.57-.05-6.65-1.55-8.11-5.92a2.85,2.85,0,0,0-.88-1.45,11.67,11.67,0,0,0-2.31-.9c-.12.69-.26,1.37-.36,2.07-.06.38-.06.78-.46.76a13.66,13.66,0,0,0-2.57,1.59,43,43,0,0,0-5.08,5.47c-2.35,3.29-5.36,6.2-5.64,10.75-.12,1.91-1.47,3.74-2.27,5.6-.47,1.11-1.06,2.18-1.42,3.33-.09.29.58,1.19.77,1.15,1.22-.24,2.36-.67,2.4-2.27a13.55,13.55,0,0,1,4.71-9.75q2.09-2,4.15-4l.49.17c-.57,2.7-1.16,5.4-1.66,8.12a7.86,7.86,0,0,0,.17,2.14,8.89,8.89,0,0,0,2-.58c3.85-2.24,7.66-4.55,11.5-6.8a4.31,4.31,0,0,1,1.33-.29c.08.15.16.29.23.44a4.42,4.42,0,0,1-.83.89c-6.67,4-13.32,8-20,11.86a17.6,17.6,0,0,1-9.14,2.39.48.48,0,0,0-.17,0l-3.61.89c.49,1.26.71,2.76,1.54,3.72,1.49,1.73,3.39,3.1,5,4.7,3.12,3,7.14,4.56,10.73,6.81,2.61,1.64,5.28,3.51,6.78,6.49.37.75,1.08,1.32,1.53,2,.56.89,1,1.84,1.64,3l-1.87.09a5.2,5.2,0,0,0,.13,1.06c.45,1.27,0,1.9-1.28,1.52s-1.7.2-2.45,1c-3.33,3.54-4.71,8-6.42,12.41a2.08,2.08,0,0,1-1.32,1.11c.66-2.16,1.34-4.32,2-6.49l-.76-.4c-.9,1.26-1.78,2.51-2.67,3.77a.58.58,0,0,0-.09.34c.08,2-2.28,3.76,0,6.08,1.46,1.46,2,3.73,3.94,5.12,2.13,1.52,3.68,3.84,5.68,5.58Q57.47,260,63.84,265a37.5,37.5,0,0,0,6,3.86c3.48,1.78,7.09,3,11.15,2.7,1.87-.15,3.79.4,5.71.48,2.54.11,5.09.13,7.63.07,1.45,0,1.71-1.19,1.7-2.36a7.36,7.36,0,0,0-.38-1.61c2.37,1.61,2,5.84-.67,7.38a10.18,10.18,0,0,1,.06-1.18c.16-.93-.25-1.28-1.14-1.26-1.23,0-2.45.06-3.66,0-5-.38-10.07-.52-15-1.31-3.28-.52-6.42-1.94-9.61-3a42.57,42.57,0,0,1-14.23-8.19,8.58,8.58,0,0,0-3-1.23c-1.45-.45-2.93-.81-4.4-1.21l.2-.65,3.87,1.3c.06-.16.11-.33.17-.49-6.67-5.49-13.08-11.36-22-13.88l2.57,3.52-.13.14a26,26,0,0,0-3.1-2.15c-.58-.31-1.71-.48-2.1-.14-1.74,1.53-3.3,3.25-4.94,4.9a1.89,1.89,0,0,0-.24,2.8c1.57,1.89,2.62,4.23,5.1,5.31,1.2.51,2.14,1.59,3.28,2.27s2.29,1,3.35,1.62c.77.46,1.79,1.08,2,1.82A3.66,3.66,0,0,0,33.77,267c.51.29.81.93,1.2,1.41-.47.37-.94.74-1.43,1.09-.13.1-.4.07-.46.19-2.19,3.42-5,1-7.5.7s-4.48.76-4.5,3.36a10.32,10.32,0,0,0,0,2.08,1.36,1.36,0,0,1-1.16,1.9,1.74,1.74,0,0,0-1.14,1c-1.16,3.76-2.25,7.55-1.83,11.56.13,1.25.65,2.07,2.19,1.71a2.09,2.09,0,0,1,1.63.58c.17.17-.16,1.06-.46,1.46-.86,1.14-1.9,2.15-2.71,3.31A2.67,2.67,0,0,0,17.4,299c0,.13.89.39,1,.28a10.06,10.06,0,0,0,.87-1.86c.31.48.77.92.68,1.1-.67,1.37.37,1.68,1.18,2.25a17.9,17.9,0,0,1,2,1.9l1.63-1.77c-1-.65-1.86-1.25-2.76-1.86l.59-.73a6.6,6.6,0,0,0,1.53,1.09,9.58,9.58,0,0,0,2.44.53,26,26,0,0,0,2.69,0c-.33,1.32-.57,2.36-.86,3.38A1.93,1.93,0,0,0,29.83,306c.51.17.9.87,1.2,1.41a7.52,7.52,0,0,1,.4,1.81l1.44-1.56c.43.2.91.38,1.35.63a3.29,3.29,0,0,0,3.51.13c1.55-.79,2.39-.24,2.67,1.46.15.9.22,1.82.32,2.73a6.65,6.65,0,0,0,.18,1.42c0,.1.82.14.92,0a8,8,0,0,0,.58-1.68,22.6,22.6,0,0,1,4.23-1c.65,0,1.37.95,2.34,1.69a3.72,3.72,0,0,1,.81-1,8.34,8.34,0,0,1,2.81-1.7c1.26-.27,2,.93,1.79,2.77a22,22,0,0,0,3,0c1-.15,1.64,0,1.87,1.17.1.51.62.94,1,1.41l.49-.16v-4.11c1.6,1.38,1.52,4.43,4.41,2.79-.24,2.67,1.15,2.14,2.7,2.15s3.37.82,5.07,1.19a8.77,8.77,0,0,0,2,0c.32,0,.8-.17.94,0,1.73,1.87,3.62.76,5.47.51,0-.14,0-.29,0-.44h-3c0-.16,0-.32,0-.48,1.45-.13,2.93-1.85,4.32.12.37.52.21,1.42.34,2.6a1.76,1.76,0,0,0,2.45.1c.31-.23,1,0,1.55.17,1.09.27,2.17.59,3.24.89.6.17,1.19.39,1.79.52.41.08,1,.24,1.24,0,1.44-1.06,2.57-.83,3.5.8,1.1-.77,2.13-1.17,3.06.22.16.24,1.2.08,1.7-.17a5,5,0,0,0,2.06-1.57,7,7,0,0,0,.29-2.59,8.16,8.16,0,0,0,5.79,0c.52-.23,1.5.19,2.11.57a42.18,42.18,0,0,1,5.42,3.71c1.54,1.34,2.62,0,3.93-.13s2.5,1.52,3.59-.39c.14-.26.62-.33,1-.5.52,2.33.87,2.55,2.49,1.58l-.57-.8a2,2,0,0,1-.37-1.26l3.28.76c-.72-1.61-1.39-3.09-2.06-4.57l.45-.36a16.54,16.54,0,0,0,1.37,1.71,6.15,6.15,0,0,0,2.23,1.53c.39.11,1.15-.71,1.59-1.24,1.06-1.28,1.65-3.11,3.91-2.74a4.87,4.87,0,0,1,.11-1.52,3,3,0,0,1,.83-.87c1.33,1.24,1.72-.3,2.24-.85,1.73-1.84,3.27-3.87,5-5.69,1.31-1.35,2.85-2.47,4.27-3.7a86.78,86.78,0,0,1,6.74-5.47,14.06,14.06,0,0,1-.91,3.22c-1.79,3.28-3.66,6.52-5.67,9.68-.8,1.28-2.08,2.26-3,3.48s-1.56,2.51-2.4,3.72c-.72,1-2,1.63-2.08,3.16,0,.29-.48.69-.83.82-1.77.63-2.53,2.15-3.24,3.67-.47,1-.75,1.26-1.91.72-.76-.35-1.95.28-2.82.75l-2-.52c.23.51.45,1,.75,1.72l-.8.93c-1.18-1.42-2.22-2.83-3.42-4.08a1.79,1.79,0,0,0-1.62-.17c-1.55.71-3,1.57-4.73,2.48.88.92,1.1,2.07,2.39,1.22.19-.13.69.21,1.05.33-.26.3-.51.85-.78.86-1.62.08-3.25,0-5,0,.29-1,.51-1.68.79-2.61-1.88.62-3.44,1.19-5,1.64a10.26,10.26,0,0,1-2.42.27,12.38,12.38,0,0,0-3.23.06c-1.74.57-3.39,1-5.22-.06.06-.13.19-.44.51-1.21-3.75.63-7.51-.77-10.93,1.34,0,.17,0,.34,0,.51l2.19-.22c.63-.07,1.63-.4,1.83-.14a6.23,6.23,0,0,1,.58,2.26c-3.3-.37-7.61,2-7.53,4.31-2-1.51-3.59-1.15-4.69,1.53l-3.11-3.18c3.06-1.18,6-1.24,8.14-3.42a10,10,0,0,0,1.08-1.6,5.7,5.7,0,0,0-1.76-.79c-3.57-.2-7.14-.36-10.71-.43-6.07-.14-12.14-.2-18.22-.3-1.51,0-2.58.29-2.6,2.19a9.37,9.37,0,0,1-.9,2.62c-.3.9-.8,1.22-1.71.74-.28-.15-.66-.12-.53-.1a24,24,0,0,1-1.75,3.06,3.17,3.17,0,0,0-.38,4,2,2,0,0,1,0,1.7l-1.25-.83A20.36,20.36,0,0,0,52,343.56a2.39,2.39,0,0,0-.09,1.43c.37,1.64,1,3.23-1.13,4.33-.4.2-.34,1.81-.1,2.66a2.5,2.5,0,0,0,1.54,1.51c2.12.47,4.31.65,6.45,1a5.34,5.34,0,0,1,1.47.84c-.41.33-.81.67-1.24,1a5,5,0,0,1-.73.38c1.52,2,1.2,3.42-1.34,5.14-1.53,1-1.75,2.36-1.59,4a2.62,2.62,0,0,1-.45,1.52,3.6,3.6,0,0,0-.46,3.55c.45,1.22.89,2.87-.45,4.2,1.88,1.29,0,2.72.11,4.12.08.66-.33,1.36-.33,2,0,6.8,0,13.61.11,20.42.09,4.06.55,8.11.77,12.16a2.09,2.09,0,0,1-.66,1.63,1.81,1.81,0,0,0-.74,2.55c.44,1,0,1.37-.52,2.1-.94,1.37-2.79,2.34-2,4.67.29.82-.4,2.14-.93,3.07-.67,1.18-.83,2,.58,2.68a1.37,1.37,0,0,1,.69,1c-.21,1.48-.56,2.94-.86,4.4-.26,1.29-.26,1.29-1.83,1.09.42,1.31.9,2.73-1.51,2.44a3.23,3.23,0,0,1-.7,4.17,2.13,2.13,0,0,0-.25,3.18l-1.85.64c0,.1,0,.2,0,.3A10.81,10.81,0,0,0,45.35,448ZM199.17,245.6v-4.8l-.29,0v4.77ZM98.08,103.65c-2.28-.26-5.16,2.56-5.2,4.9ZM86.29,130.47l.9-5.33-.72-.1C85.48,126.78,86.52,128.71,86.29,130.47ZM51.8,220.29l1.88,2.65.72-.53-2-2.6Z" style="fill:#e3e3e3"/><path d="M307.28,57.33a11,11,0,0,1,1.51,1.06c.2.21.2.66.25,1,.34,2.34,1,2.87,3.19,2.11a9.68,9.68,0,0,1,6.15-.19A27.74,27.74,0,0,0,328,62.4a19.08,19.08,0,0,1,4-.09c5.75.9,11.39,2.33,16.37,5.47,3.57,2.26,6.87,4.92,10.42,7.22s7.45,4.68,11.32,6.74a38.45,38.45,0,0,0,6.25,2.06v1.75c-1.76-.16-3.6-1.16-5.22.52-.2.21-.81.18-1.17.06-1.6-.49-3.19-1-4.77-1.6-2.62-1-5.15-2.38-7.86-3a27.85,27.85,0,0,1-12.53-6.75c-1.82-1.65-3.92-2.94-5.72-4.66-3.16-3-7.35-4.43-11.82-4.81s-9-.91-13.44-1.37a7.19,7.19,0,0,0-1,0c-1.16,0-1.73.51-1.45,1.75.4,1.83,1.11,3.34,3,4.17A12.6,12.6,0,0,1,317,72c-.54.43-.85.54-1.09.45-2.06-.79-4.13-1.58-6.14-2.48-.18-.08-.23-1,0-1.32a1.39,1.39,0,0,0,.08-2,27.37,27.37,0,0,1-2.06-4.34A15.81,15.81,0,0,1,307,59,5.3,5.3,0,0,1,307.28,57.33Zm39.92,17.6.46-.55-2.59-1.86-.36.47C345.54,73.64,346.38,74.28,347.2,74.93Z" style="fill:#e3e3e3"/><path d="M376.36,154.12c-1.28.92-2.89,1.59-3.75,2.8a58.46,58.46,0,0,0-4.35,7.53c-1.47,2.89-2.82,5.86-4.1,8.84a44.58,44.58,0,0,0-1.41,4.69,67,67,0,0,1,6.79,1.21c2.33.64,4.55,1.7,6.82,2.57Z" style="fill:#e3e3e3"/><path d="M376.36,87c-1.35.64-2.69,1.27-4,1.92-3,1.47-5.94,3.1-9,4.41-3.85,1.66-7.83,3-12.11,2.75a22.58,22.58,0,0,1-9.7-2.49c-5.08-2.77-10-5.88-15.22-8.34-9.12-4.31-18.67-5.81-28.6-3a5,5,0,0,0-.8.33c-.08,0-.11.18-.24.4a3.25,3.25,0,0,0,.79.16c3.82-.28,7.63-.68,11.45-.81a20.82,20.82,0,0,1,5.5.61,56.1,56.1,0,0,1,17.14,7c3.33,2.09,6.59,4.49,10.22,5.84a28.53,28.53,0,0,0,19.44.32,66.65,66.65,0,0,0,15.15-7.33Z" style="fill:#e3e3e3"/><path d="M376.36,135.58c-3.55,1.78-7.1,3.53-10.61,5.37-.54.29-.84,1-1.26,1.55a13.89,13.89,0,0,0,1.76,1.14c1.26.55,2.57,1,4,1.54.13-.53.1-1.09.35-1.33.59-.56,1.57-1.53,1.95-1.35,1.64.74,2.62-.34,3.79-1Z" style="fill:#e3e3e3"/><path d="M376.36,120.19a37.07,37.07,0,0,0-17.25,11.45c5.91-2.6,10.69-7.4,17.25-8.65Z" style="fill:#e3e3e3"/><path d="M376.36,144.33l-4.58,1.75,4.58,3.14Z" style="fill:#e3e3e3"/><path d="M0,475.28a45.12,45.12,0,0,0,1.47-4.9c.06-.35-.95-.93-1.47-1.4Z" style="fill:#e3e3e3"/><path d="M91.87,45.74c1.83-.05,3.66,0,5.47-.11,1.2-.08,2.37-.5,3.57-.61,5.52-.5,11.1-.25,16.51-2,2.32-.73,3.25-2.16,4.27-4.08s.28-5,3-6.34c.06-2.19.18-4.37.16-6.56,0-.72-.49-1.44-.51-2.17a16,16,0,0,1,.35-2.63l-.49-.12q-1.59,4.79-3.17,9.58l-.7-.11c-.07-1.11-.09-2.23-.24-3.33a5.13,5.13,0,0,0-.57-1.33c-.52.43-1.23.77-1.48,1.33-.18.4.33,1.07.41,1.64.32,2.44.81,5.12-1.14,6.94-1.46,1.35-2.48,2.37-1.07,4.48l-.54.36-3.4-1.18a9.75,9.75,0,0,1-2.37,1.07c-2.69.56-5.42.9-8.14,1.4-1.8.33-3.57.83-5.37,1.14a4.21,4.21,0,0,1-1.6-.39,12.75,12.75,0,0,1,.83-1.32c.36-.45.92-.77,1.18-1.26,1-1.91,3.22-3,3.63-5.4.1-.54,1-.94,1.51-1.38a21.16,21.16,0,0,1,2-1.63c1-.66,2-1.23,3.06-1.84l.45.47a5,5,0,0,1-.61,1.48c-1.46,1.47-3,2.88-4.49,4.29S99.55,38.72,98.2,40c-.24.23-.41.93-.3,1a1.66,1.66,0,0,0,1.18.38c2.62-.4,5.25-.79,7.85-1.33,4.16-.86,7.76-2.71,10.12-6.44a5.8,5.8,0,0,0-.47-5.91,1.29,1.29,0,0,0-1.06-.38c-1.37.42-2.71,1-4.06,1.43a4.36,4.36,0,0,1-1.65.41c-.17,0-.28-.87-.42-1.34.54-.12,1.11-.22,1.65-.39s1.42-.3,1.55-.65a3.09,3.09,0,0,0-.36-1.85c-.14-.32-.63-.49-1-.74-2.12-1.72-2-3.37.51-4.76a2.63,2.63,0,0,0,0,3.54c1.41,1.72,3.09,2.53,5.36,1.87a7.51,7.51,0,0,1,2.23-.2,2.66,2.66,0,0,0,2.94-2.32,13.86,13.86,0,0,1,1.32-3.94c1-1.67,1.65-3.75,3.77-4.46.58-.2,1.79-.2,1.9,0,.52,1.25,1.32,1,1.92.4,2.8-2.66,6.54-3.17,10-4.21,1.68-.52,3.73,0,5.57.29,1.21.19,2.21,1.67,3.64.47.09-.07.48.2.72.33a14,14,0,0,1,1.81.92A30.36,30.36,0,0,1,156,14.67c.17.15-.12.83-.24,1.25s-.6,1.13-.43,1.38c1.46,2.25,3,4.43,4.55,6.63-.1.36-.21.73-.42,1.45-.6-.81-1-1.35-1.37-1.89-2.08-2.85-3.9-5.94-6.27-8.52a10,10,0,0,0-11.64-2.58,64.08,64.08,0,0,0-7.71,4.2c-.31.17-.48.63-.68,1-.46.79-.91,1.59-1.34,2.39-.91,1.71-2.69,3.08-2.21,5.62a17.65,17.65,0,0,1,1.58-1,54.2,54.2,0,0,1,5.6-2.56,27.88,27.88,0,0,1,5.07-1,6.51,6.51,0,0,1,2,.21c1.17.21,2.34.55,3.53.69A20.43,20.43,0,0,1,157.62,27a12.32,12.32,0,0,0,3,2.32c7.72,3.35,15.53,3.66,23.22,0A9.78,9.78,0,0,0,189,24.3c1.15-2.75,1.37-5.44-.48-7.95a6.72,6.72,0,0,0-7.71-2.58c-.37.1-.75.16-1.5.31,3-1.77,7-1.68,9,0,3.3,2.75,4.34,6.09,3,9.75-1.65,4.34-5.11,6.81-9.17,8.43-6.12,2.44-12.4,1.71-18.65.4-1.7-.35-3.23-1.61-5.15-.71-.5.23-1.27-.12-2.14-.24,1.22-1.88.39-3-.74-4.2-3.17-3.47-7.21-4.71-11.69-4.91-2.81-.13-5.69-.44-8.25,1.25-.6.41-1.18.85-1.78,1.28l.3.74c1.37-.21,2.77-.36,4.12-.67,1.06-.24,2.12-1.07,3.11-1a79,79,0,0,1,9.57,1.47c2.12.47,3.7,1.7,3.8,4.29.05,1.32-.38,1.73-1.51,1.67-.57,0-1.12-.31-1.69-.37-1.41-.15-2.84-.24-4.64-.38l1.53,2.61a25.68,25.68,0,0,1-3.07-.65c-1-.33-1.88-.94-2.87-1.22a19.28,19.28,0,0,0-11.11-.15,24.72,24.72,0,0,0-5.43,2.09c-.83.51-1.79,2.53-1.48,2.93,1.79,2.31.59,3.58-1,5.16-1.44,1.4-3,2.85-3.57,4.93-.07.24-.48.37-1.12.82l.44-1.1c-3.24.2-6.55.5-9.86.6-3.47.1-6.95-.08-10.41,0-2.82.09-5.61.25-8.35-.78A3.05,3.05,0,0,1,91.87,45.74Zm55-16.31c2.06.54,4.12,1,6.71,0a11.67,11.67,0,0,0-6.49-1.54c-.27,0-.65.46-.76.78S146.59,29.37,146.83,29.43Z" style="fill:#e3e3e3"/><path d="M189.32,35.83c1.61-2,4.51-2.78,5.5-5.39a16.17,16.17,0,0,0,1.44-5.12c.12-3.5,0-7.07-3.36-9.41-.79-.55-1.59-1.07-2.68-1.81,4.85-.27,5.66,3.6,7.59,6.5a48.25,48.25,0,0,0,5-3.9c2.1-2.12,4.62-2.33,7.26-2,3.94.43,8.07-2,8.69-5.84.4-2.47,1.8-4,3.09-5.87,1.42-2,3.36-1.8,5.36-1.64-3.5,2.18-6.24,4.87-7.24,9a4.87,4.87,0,0,0,.12,1.55c.49-.2,1.13-.27,1.43-.62,1-1.22,2.9-1.77,3-3.77,0-.28.66-.56,1.06-.77.6-.32,1.22-.61,1.84-.87,1.87-.78,3.31-2.3,5.71-2.16,4.41.27,8.58.65,11.6,4.51,1.6,2,3.66,3.74,5.21,5.83a4.76,4.76,0,0,0,3.93,2.38c1.94.05,3.13,1.42,4.29,2.85a79.85,79.85,0,0,1-8.38-2.47c-.18-.06-.3-.34-.42-.53-2.6-4.14-5.28-8.24-10.1-10.1a11.72,11.72,0,0,0-9.15.1,9.2,9.2,0,0,0-3.53,3.18c-1.63,2.37-2.87,5-4.41,7.43a3.19,3.19,0,0,1-1.82,1.12c-2.27.66-4.6,1.16-6.88,1.79A5.13,5.13,0,0,0,210,23.55a1.66,1.66,0,0,0,.31,1.44c.25.23.93.08,1.39,0a37.33,37.33,0,0,1,3.69-.89,5.23,5.23,0,0,1,2,.59c0,.25,0,.51,0,.76-3.19.83-6.46,1.44-9.56,2.55s-6.09,2.75-9.26,4.22c.44-3.55.44-3.55-.77-4-.6,2.31-1.32,4.56-3.5,6-2,1.27-3.66,2.92-6,3.51A5.44,5.44,0,0,1,189.32,35.83Zm13.35-7.68c1.41-.84,3-1.36,3.6-3.3.22-.75,1.44-1.19,2.2-1.78l-.45-.64-1.36-.07c0-.22-.07-.43,0-.53,1.09-1.27,2.11-2.53,4-2.9,2.54-.51,5-1.37,7.55-1.9,1.85-.39.69-1.47.69-2.27s-.48-1.47-1.46-1-1.84,1-2.8,1.4a18.32,18.32,0,0,1-4.33,1.66c-6.18.94-8.32,5.07-9,10.45C201.09,28.45,201.65,28.75,202.67,28.15Zm-3-.68c.44-1.73.87-3.47,1.35-5.41C199.07,23,198.59,24.79,199.63,27.47Z" style="fill:#e3e3e3"/><path d="M231.19,63.61l-5-.6-.11-.47a5.5,5.5,0,0,1,1.52-.71c3.88-.52,7.69-1.4,11.73-.78,3.5.53,7.17,0,10.7.41,2.81.35,5.51,1.53,8.29,2.24,2,.51,4,.84,5.94,1.28a4,4,0,0,1,1.6.56c1.94,1.54,4.14.91,5-1.48-7.34-3.46-14.44-7.73-22.77-8.25-8.72-.53-17.22.28-25,5-4.54,2.75-9.36,5-14,7.53a8.05,8.05,0,0,0-1.07.77l.12.44a6.45,6.45,0,0,0,1.61-.25c2.58-1.14,5.16-2.31,7.7-3.54,3.19-1.54,6.55-1.69,10-1.48,1.25.08,2.51,0,3.76,0Z" style="fill:#e3e3e3"/><path d="M212.41,44.67a14,14,0,0,0-2,.91c-3.34,2.18-6.56,4.57-10,6.58-6.21,3.62-13.06,4.45-20,3.45a37.54,37.54,0,0,0-18.13,1.87,24.76,24.76,0,0,0-3.82,2.12l.26.56c2.43-.66,4.88-1.22,7.27-2,4.13-1.34,8.35-1,12.54-.73,5.34.36,10.7.72,15.87-.78a31,31,0,0,0,12.64-7,46,46,0,0,1,4.63-3.36c.39-.28.73-.63,1.1-1Z" style="fill:#e3e3e3"/><path d="M308.23,34.21,312.12,30c.49,1.69-1.5,5.2-5.54,9.73a6.18,6.18,0,0,1,1.59,1.17c.78,1.1,1.75,1.25,2.4.24a33.51,33.51,0,0,0,3.83-7,24.86,24.86,0,0,0,.89-12q-.78-4.75-1.54-9.5l-.62,0a10.67,10.67,0,0,0,0,2.4c.94,4,.8,7.67-1.92,11a31.78,31.78,0,0,0-2.31,4.13,2.82,2.82,0,0,1-.92,1C306.08,32.32,306.07,32.3,308.23,34.21Z" style="fill:#e3e3e3"/><path d="M333.51,52.34a10.84,10.84,0,0,1,2.09-1.47c3.76-1.56,7.56-3,11.76-4.69L343,49.9l.12.39c1.45-.39,2.91-.77,4.36-1.17a.44.44,0,0,0,.26-.22c.79-2.42,1.61-4.83,2.31-7.27.13-.45-.23-1-.45-1.89-.41.51-.7.71-.71.91-.09,3-2.14,4.51-4.43,5.71a37.47,37.47,0,0,1-16.62,4.53,71.66,71.66,0,0,0-19.19,2.92A3.51,3.51,0,0,0,307,55.12c8.88-1.78,17.59-4.8,26.8-2.12Z" style="fill:#e3e3e3"/><path d="M63.93,94.15C61.11,95.07,59,97,56.78,98.9c-2.88,2.4-4.81,5.49-6.7,8.57a9.48,9.48,0,0,0-1.15,6.76c.47,2.45.9,4.92,1.42,7.37.8,3.69.28,4.77-3.14,6.2l.09.5c.9-.23,2-.21,2.65-.73A5.76,5.76,0,0,0,52.37,122a56.72,56.72,0,0,1-.78-10.21c.22-4.31,2.35-8,5.17-11.2,1.82-2,3.48-4.41,6.37-5.22.34-.1.52-.78.78-1.19Z" style="fill:#e3e3e3"/><path d="M259.38,20.18l17.49,10.17-.37,4.81a6.56,6.56,0,0,0,2.29-.65,3.05,3.05,0,0,1,2.65-.63,9.86,9.86,0,0,0,7.88-2.25l-.13-.45a23.19,23.19,0,0,1-3,1,43.72,43.72,0,0,1-5.1.7c-.48,0-1-.42-1.5-.66.5-.39.95-1,1.51-1.13,2-.46,4-.68,5.95-1.16a19.18,19.18,0,0,0,3-1.32l-.19-.53c-.87.16-1.75.27-2.61.47a20.9,20.9,0,0,1-19-4.51c-2.46-2-5.67-3.13-8.54-4.65Z" style="fill:#e3e3e3"/><path d="M356.78,39c-.3,4.28-2.86,6.74-6.68,8.48a8.36,8.36,0,0,0,1.06.51,9.7,9.7,0,0,0,1.28.15,42.83,42.83,0,0,1-12.3,6c1.83,1.24,3.5-.95,5.44.22l-3.69,1.8.05.44a5,5,0,0,0,1.56-.16,23.64,23.64,0,0,0,10.85-9.28c1.32-2.06,2.95-3.86,3.29-6.39a7.5,7.5,0,0,0-.06-1.49Z" style="fill:#e3e3e3"/><path d="M180.5,74.23c4,1.06,23.34-7.22,26.08-11.15a19.84,19.84,0,0,0-2.16.68c-4.57,2.23-9.1,4.52-13.7,6.69-1.44.68-3.06,1-4.57,1.54C184.39,72.63,182.67,73.37,180.5,74.23Z" style="fill:#e3e3e3"/><path d="M308.45,44.23V42.89l-5.72,1.94-.07.48c.88.22,1.83.78,2.61.59,3.34-.82,6.9-1.07,9.7-3.45a4.32,4.32,0,0,1,1.89-.84c2.52-.52,4.53-5.92,2.9-7.91-.05-.06-.22,0-.62-.07C319.37,40.91,313.81,42.19,308.45,44.23Z" style="fill:#e3e3e3"/><path d="M359.16,109.58a13.89,13.89,0,0,1,2-.23q3,0,6,.23c1.69.1,3.41.48,5.18-1.3l-4.32-.83,2.36-1.84-.16-.29L359,108.93Z" style="fill:#e3e3e3"/><path d="M320.39,118.5c-3.21-4.48-8.5-3.7-12.82-5.39a7.55,7.55,0,0,0,1.41,1.26c1.64.85,3.36,1.54,5,2.4a12,12,0,0,1,2,1.53C317.36,119.46,318.79,119,320.39,118.5Z" style="fill:#e3e3e3"/><path d="M197.07,47.8c6.41-1.69,9.8-7.29,15.42-9.31l-.3-.74a5.7,5.7,0,0,0-1.94.48c-4.23,2.89-8.42,5.85-12.62,8.79A5.71,5.71,0,0,0,197.07,47.8Z" style="fill:#e3e3e3"/><path d="M159.9,23.93c.31.41,1,.94.88,1.2-.42,1.18.38,1.6,1.1,1.76,1.68.38,3.48,1.16,5.05-.68l-1.41-.71c0-1.84,3.12-1.24,2.71-3.63a4,4,0,0,0-1.1.46C164.21,25,162.5,25,160,22v2Z" style="fill:#e3e3e3"/><path d="M301.89,50.37c1.21.94,2.14,1.73,3.14,2.39a1.23,1.23,0,0,0,1.13-.06c1.44-.94,2.83-2,4.21-3,.68-.51,1.31-1.09,2.1-1.75Z" style="fill:#e3e3e3"/><path d="M166.23,11.14l1.93.5c3.09.82,4.4,3.27,3.45,6.31-.47,1.52-.85,3.07-1.31,4.73.21-.05.55,0,.67-.18,2.45-3.16,4.11-7.95-.68-10.72a18,18,0,0,0-2-1.33,6.39,6.39,0,0,0-2-.14Z" style="fill:#e3e3e3"/><path d="M278.59,93.24c5.26,3.26,9.85,7.52,15.2,10.64l.51-.78A173.21,173.21,0,0,0,278.59,93.24Z" style="fill:#e3e3e3"/><path d="M286,36.76c6.57.86,13,.67,18.77-3l0-.52c-.45,0-1-.18-1.34,0-5.11,3.19-10.76,3.61-16.56,3.39A6,6,0,0,0,286,36.76Z" style="fill:#e3e3e3"/><path d="M129,35.88c-1.63-1.7-2.51-.65-3.27.74.75.24,1.55.78,2.26.67a12.29,12.29,0,0,0,3.08-1.2c1.11-.52,2.21-1.09,3.29-1.7.28-.15.43-.53.65-.81-.3-.11-.62-.37-.88-.32a25,25,0,0,0-3.82,1C129.8,34.47,129.52,35.19,129,35.88Z" style="fill:#e3e3e3"/><path d="M131.06,12.24,141.41,7.8C138.12,7.23,131.66,9.8,131.06,12.24Z" style="fill:#e3e3e3"/><path d="M156,36.18a7.41,7.41,0,0,0,1.89,0c.38-.11.64-.64,1-1-.36-.31-.7-.87-1.07-.9a36.13,36.13,0,0,0-4.29,0,1.15,1.15,0,0,0-.89.59,1.1,1.1,0,0,0,.53.92,26.63,26.63,0,0,0,2.85.58Z" style="fill:#e3e3e3"/><path d="M293.87,21.32,291.79,27l1,1.16C294.74,27.24,295.51,22.72,293.87,21.32Z" style="fill:#e3e3e3"/><path d="M308.35,68a41.39,41.39,0,0,0-2.74-4.47,4.51,4.51,0,0,0-2.43-1C304.07,65,305.37,67,308.35,68Z" style="fill:#e3e3e3"/><path d="M202.21,71.59l-8.33,3.17c2.28.7,7.27-1.08,8.53-2.67Z" style="fill:#e3e3e3"/><path d="M195.41,35.37,203,33.18C201.11,31.73,196.06,33.22,195.41,35.37Z" style="fill:#e3e3e3"/><path d="M318.65,43.57c-1.36-1.76-4.42-.56-6,2.55Z" style="fill:#e3e3e3"/><path d="M194.26,25.34,190,31C192.79,30.64,195,27.48,194.26,25.34Z" style="fill:#e3e3e3"/><path d="M276.26,54.38a23.59,23.59,0,0,0,2.87,2.14c1.32.69,2-.24,2.61-1.56Z" style="fill:#e3e3e3"/><path d="M324,45a8.38,8.38,0,0,0-1.78-1.19c-.4-.14-1,.19-1.46.3.24.57.37,1.49.76,1.62a6.72,6.72,0,0,0,2.36,0Z" style="fill:#e3e3e3"/><path d="M233,.1l7.11,2.21C239.09.72,235.31-.33,233,.1Z" style="fill:#e3e3e3"/><path d="M236.12,18.37,242,16.84l-.24-.88-5.79,1.73Z" style="fill:#e3e3e3"/><path d="M63.91,94.13c2.06.08,4.12.16,5.84-2.1-2.53-.13-4,1.41-5.81,2.12Z" style="fill:#e3e3e3"/><path d="M249.34,11.1A8.38,8.38,0,0,0,253,14.8l.32-.32-3.48-3.87Z" style="fill:#e3e3e3"/><path d="M223.87,24.61H219.3v.58c1.54.08,3.05,1,4.62.11Z" style="fill:#e3e3e3"/><path d="M349.5,61.47c-.16-2.24-1.2-2.57-2.59-2.39l-.33.49Z" style="fill:#e3e3e3"/><path d="M241.4,70.12l3.41,1.74.24-.47C244.1,70.42,243.13,69.48,241.4,70.12Z" style="fill:#e3e3e3"/><path d="M186.47,33.48l2.8-.92c-.07-.2-.19-.58-.2-.58-.95.29-1.88.6-2.81.91Z" style="fill:#e3e3e3"/><path d="M264.52,68.08l-3.83,1.5.28.69,3.78-1.63Z" style="fill:#e3e3e3"/><path d="M114.35,61.86l-1.78,2,.54.51,1.89-2Z" style="fill:#e3e3e3"/><path d="M233.32,95.7l2.79-.85-.22-.74-2.78.86Z" style="fill:#e3e3e3"/><path d="M157.16,17.52,158.54,20l.66-.36c-.46-.84-.92-1.68-1.37-2.52Z" style="fill:#e3e3e3"/><path d="M243.37,16.36H246v-.43h-2.57Z" style="fill:#e3e3e3"/><path d="M147.16,8.33l-3.09-.45-.09.68,3.11.47Z" style="fill:#e3e3e3"/><path d="M202.52,112.89l2.61-1.51-.39-.68-2.62,1.61Z" style="fill:#e3e3e3"/><path d="M274.7,60.41l-2.1,1.83.43.54L275.17,61Z" style="fill:#e3e3e3"/><path d="M159.94,44.39l2.35-.35-.07-.66-2.4.24Z" style="fill:#e3e3e3"/><path d="M176.39,88.72l-2.61.63.15.65,2.73-.62Z" style="fill:#e3e3e3"/><path d="M42.17,469.79a4.63,4.63,0,0,0,1.54-.93c1.1-1.26,3-1.85,3.24-3.91,0-.36,1.43-.47,2.13-.84a5.89,5.89,0,0,0,1.59-1.31c.1-.11-.32-1-.44-.95a3.83,3.83,0,0,0-2,.52,9.18,9.18,0,0,1-4.91,2.23c-1.25.17-2.54,1.53-3.41,2.66C38.79,468.7,39.6,469.76,42.17,469.79Z" style="fill:#e3e3e3"/><path d="M354.8,587.12c2.45-9.79.68-19.4-.62-29Z" style="fill:#e3e3e3"/><path d="M336,518.42c.48-1.74,1.06-3.82,1.85-6.66l-3.08-5.06C335.23,511,335.64,514.87,336,518.42Z" style="fill:#e3e3e3"/><path d="M242.17,346.34c2.63.59,3.83-1.19,5-2.64,2.64-3.38.23-6.52-.79-9.71,0,2.4,1.43,4.61.63,7.19S244.34,345.08,242.17,346.34Z" style="fill:#e3e3e3"/><path d="M231.81,472.43c-1.87-1.52-3.4-2.83-5.72-2.94A4.9,4.9,0,0,0,231.81,472.43Z" style="fill:#e3e3e3"/><path d="M347.41,533l3.49,10,.64-.23q-1.77-5-3.55-10Z" style="fill:#e3e3e3"/><path d="M319.38,485.52l-5.68-4.94a17.11,17.11,0,0,0,5.08,5.59Z" style="fill:#e3e3e3"/><path d="M1.56,466.91c.85.61,1.4,1.28,1.73,1.19.58-.17,1-.8,1.53-1.24-.4-.44-.83-1.25-1.19-1.23C3,465.68,2.51,466.28,1.56,466.91Z" style="fill:#e3e3e3"/><path d="M28,452c.5.36,1,1,1.5,1s1-.67,1.57-1.05c-.45-.44-.85-1.13-1.37-1.24s-1.09.4-1.64.64Z" style="fill:#e3e3e3"/><path d="M122.49,581.3c.47-.9.89-1.34.84-1.71s-.54-.83-.84-1.24c-.24.4-.64.79-.68,1.21S122.11,580.38,122.49,581.3Z" style="fill:#e3e3e3"/><path d="M125.73,438.25,123,441.16l.38.4,2.92-2.77Z" style="fill:#e3e3e3"/><path d="M352.75,551.76l.48,4.4.62-.08-.58-4.38Z" style="fill:#e3e3e3"/><path d="M148.11,530.48c.13,1,.25,1.91.37,2.86l.72-.1c-.16-.94-.33-1.89-.5-2.84Z" style="fill:#e3e3e3"/><path d="M229.07,490.65a27.73,27.73,0,0,0-3.87,0c-2.57.39-4.87-.62-7.26-1.18a1.33,1.33,0,0,1-.77-.82c-.38-1.44-1.27-1.18-2.31-.89-2.27.65-4.55,1.23-6.83,1.85a27.3,27.3,0,0,0-4.79,1.42c-.74.35-1.14,1.52-1.58,2.37a24.43,24.43,0,0,0-1.54,3.47A7.82,7.82,0,0,0,200,499a8.71,8.71,0,0,0,2.07-.2c2.51-.87,5-1.89,7.48-2.75s5.14-1.73,7.75-2.42c2.07-.55,4.21-.83,6.3-1.26,1.84-.37,3.67-.79,5.5-1.19Z" style="fill:#e3e3e3"/><path d="M232,490.49a2.56,2.56,0,0,0,.75.18c11.93-.51,23.84-.65,35.67,1.34.18,0,.4-.17.59-.26-.82-2.95-3.82-5.58-6.6-5.71-.48,0-1,.45-1.47.73s-1,1-1.39.91c-2-.56-3.95.15-5.91.16-4,0-8.05-.26-12.08-.29-.66,0-1.31.66-2,.94a15.7,15.7,0,0,1-2.86,1c-1.55.32-3.14.45-4.7.66Z" style="fill:#e3e3e3"/><path d="M196.83,426.29c4-1.65,7.55-3.31,9.91-6.75-3-1.62-5.66.1-8.44.33-.35,0-.87.67-.94,1.08C197.11,422.58,197,424.25,196.83,426.29Z" style="fill:#e3e3e3"/><path d="M290.73,498.78a5.16,5.16,0,0,0-1.3-.94,5.9,5.9,0,0,1-3.35-2.57c-.21-.34-.86-.41-1.31-.59a15.15,15.15,0,0,1-3.18-1.3c-.83-.58-1.45-1-2.48-.56-.79.35-1.58.63-2-.75-.12-.39-1.57-.62-2.35-.5a10.23,10.23,0,0,0-2.52,1l18.23,6.66Z" style="fill:#e3e3e3"/><path d="M180.15,511.29a7,7,0,0,0-2,.67c-1.41,1-2.72,2.17-4.08,3.26-.27.22-.76.3-.85.56-1.57,4.32-5.44,6.85-8,10.4a3.17,3.17,0,0,0-.53,1.76l15.68-16.1Z" style="fill:#e3e3e3"/><path d="M161.8,652.75c-1,1.37-1.83,2.49-2.54,3.71a1.62,1.62,0,0,0,.18,1.37c.78,1.29,1.67,2.51,2.65,4a6.67,6.67,0,0,0,.6-1.3c.17-.66.12-1.37.27-2,.32-1.35,0-2.07-1.49-1.62C160.85,655.39,163.44,654.1,161.8,652.75Z" style="fill:#e3e3e3"/><path d="M343.38,562.36c.22,1.46-.11,3,1.58,4.12,1.42.92,2.63,2.17,4,3.18.33.25.92.15,1.39.21-.08-.47,0-1.14-.27-1.38-1.34-1.18-2.81-2.21-4.17-3.37a5.81,5.81,0,0,1-.95-1.47c-.33-.54-.65-1.08-1-1.62Z" style="fill:#e3e3e3"/><path d="M192.91,503.38c1.79-.92,3.58-1.82,5.34-2.79.14-.07.15-.78,0-.87-.39-.25-1.09-.62-1.32-.45-1.52,1.07-2.94,2.27-4.4,3.43Z" style="fill:#e3e3e3"/><path d="M317.83,518.61c-1.76-.71-1.05-3.83-4.19-3.22l3.54,3.86Z" style="fill:#e3e3e3"/><path d="M198.92,676.57c.48-.83,1-1.29,1-1.75s-.52-.89-.81-1.33a7.35,7.35,0,0,0-1.32,1.55C197.65,675.24,198.31,675.8,198.92,676.57Z" style="fill:#e3e3e3"/><path d="M164.31,661a5.87,5.87,0,0,0-.41,1.73c0,.46.47.88.73,1.31.28-.42.76-.84.79-1.29a6,6,0,0,0-.43-1.8Z" style="fill:#e3e3e3"/><path d="M191.11,503.63,187,506.14l.37.61,4.07-2.6Z" style="fill:#e3e3e3"/><path d="M331.86,541.66l1.83,3.73C334.52,543.68,334.41,543.45,331.86,541.66Z" style="fill:#e3e3e3"/><path d="M149.52,644.94c-.19-.73-.37-1.47-.61-2.19a4.16,4.16,0,0,0-.84.22c.09.74.25,1.48.4,2.21Z" style="fill:#e3e3e3"/><path d="M203.85,214.07c-.14-.91-.22-1.63-.38-2.32-.44-2-.74-3.9.66-5.68a2.07,2.07,0,0,0,.37-1.46c-.33-1.62-.47-3.11,1.27-4,.55-3.68,3.42-6.56,3.28-10.55a61.63,61.63,0,0,1,.59-10.6c.24-1.72,1.49-3.27,2.15-5a2.6,2.6,0,0,0,0-2,14.84,14.84,0,0,1-2.45-11.76c.15-.71-.59-1.72-1.12-2.43a25.91,25.91,0,0,0-2.3-2.39c-.08-.09-.11-.25-.2-.29-2.7-1.19-3.41-3.77-4.48-6.2a15,15,0,0,0-7.76-7.59c.37-.6,1.08-1.45,1-1.59a9.93,9.93,0,0,0-1.78-1.41c-.47,1.39-.89,2.57-1.26,3.77a4.8,4.8,0,0,0-.13,1.2c-.25,5.41-.42,10.82-.74,16.23a77.93,77.93,0,0,1-3.08,16.58c-.87,3.07-2.1,6.1-2.5,9.23-.32,2.46.3,5.06.63,7.59.48,3.54,3.15,5.88,5,8.7,1.17,1.84,2.55,3.56,3.83,5.33,0,.05.1.11.09.15-.58,2.55,1.83,2.77,3,3.92a1.87,1.87,0,0,0,.55.43C199.84,212.61,201.63,213.26,203.85,214.07Z" style="fill:#e3e3e3"/><path d="M269.7,188.31l3.23-1.26-.23-.57-3.18,1.37Zm-12.3,3.91h-3.15v.47h3.15Zm-6.84,3.7,4.65-.26c0-.13,0-.25,0-.38h-4.66C250.54,195.49,250.55,195.71,250.56,195.92ZM234.4,174c1.09,1.33,2.21,2.64,3.34,3.95,0,.05.21,0,.31,0,0-1.42-1.88-4.35-3-4.59a.84.84,0,0,0-.59.21A.5.5,0,0,0,234.4,174Z" style="fill:#e3e3e3"/><path d="M42.11,211.67a4.58,4.58,0,0,0-1.62.33,1.48,1.48,0,0,1-2.36-.43,8.43,8.43,0,0,0-4.71-3.06c-3.23-1-3.46-1.3-3.12-4.45-1.37-.06-2.09,1-1.46,2.51,1.37,3.29,2.84,6.53,4.33,9.76.65,1.4,1.55,2.68,2.15,4.1a2.43,2.43,0,0,1-.41,1.65C33,222,32.44,223.75,32,224.79c-1.22,2.75-3.59,4-5.83,5.47-.61.4-1.64,1.32-1.56,1.45.65,1.09,1.06,2.65,2.71,2.57a5.19,5.19,0,0,0,2.6-.79c1.6-1.13,3-2.48,4.57-3.71a12,12,0,0,1,1.48-.86c0,3.57-1.46,5.73-4.46,6.87-.37.14-.64.57-1,.87a10.63,10.63,0,0,0,1,.77c.67.42,1.37.8,2.06,1.19,1,.55,1.95.81,2.49-.44,1.58-3.61,4.57-6.07,7-9a25.52,25.52,0,0,0,3.82-5.89c.83-2-.71-4.92-2.56-6.08-.54-.34-1.08-.68-1.63-1C40.25,214.85,40.16,214.1,42.11,211.67Z" style="fill:#e3e3e3"/><path d="M74.61,162.86c.1-1.45.31-2.9.27-4.34-.07-2.06.1-4.22-1.59-5.89-.32-.31-.27-1-.43-1.46-.69-2.2-1.37-4.42-3.35-5.84a1.8,1.8,0,0,0-1.57-.23c-2.32,1.39-4.61,2.84-6.84,4.39-1.11.78-1,1.43.31,2a7.1,7.1,0,0,0,2.43.86c2.37,0,3,1.55,3.74,3.39s2.11,3.09,3.22,4.62c.06.08.2.18.29.16,1.93-.41,2.4,1,2.78,2.49Z" style="fill:#e3e3e3"/><path d="M89.92,62.67l4.7-3.93.56.4c-.45,1.51-1,3-1.32,4.54-.17.91-.2,2.54.23,2.74,1,.48,2.51,1.76,3.29-.64l1.75,2.15c.28-5.39,2.86-9,6.69-11.88a2.89,2.89,0,0,0-3.59-.63c-.9.39-1.74.94-2.66,1.28a1.9,1.9,0,0,1-2.67-.89,2,2,0,0,0-3.23-.61,20.59,20.59,0,0,0-4,4.29C89.28,60.08,89.79,61.3,89.92,62.67Z" style="fill:#e3e3e3"/><path d="M71.08,169.64a10.25,10.25,0,0,0,1.83-2.17,3.5,3.5,0,0,0,0-2.17,2.08,2.08,0,0,0-1.14-1c-4.19-1.77-6.64-5.81-10.45-8.06-.45-.26-.83-.64-1.3-.87s-1-.34-1.08-.19a1.69,1.69,0,0,0-.32,1.22A13.15,13.15,0,0,0,64,165C66.24,166.68,68.7,168.09,71.08,169.64Z" style="fill:#e3e3e3"/><path d="M309.41,169.41c-.53,1.45.27,1.37,1.32,1.24a103.1,103.1,0,0,1,11.6-.91,25.6,25.6,0,0,1-2.69.88c-3.05.66-6.11,1.29-9.18,1.85a4.56,4.56,0,0,1-2-.21c-1.42-.4-1.52-.38-2.16,1.23,3.16,2.48,20.57-2,23.69-5.3-2.29-1.16-4,1.44-6.23.78l.85-1.4a29.05,29.05,0,0,0-3.25-.12c-3,.24-6.09.5-9.11.91a12.65,12.65,0,0,0-2.88,1.13Z" style="fill:#e3e3e3"/><path d="M106.47,69.81c.3-1.15.53-2.35.92-3.48s1-2.14,1.41-3.24a44,44,0,0,0,2.1-5.82c.32-1.34-.7-1.91-2-1.23a18.61,18.61,0,0,0-6.79,6.83c-1,1.67,0,5.87,1.54,6.74C104.4,70,105.43,69.76,106.47,69.81Z" style="fill:#e3e3e3"/><path d="M189.35,160.1c1.24-3.1.35-6.92.44-10.66,0-1.87,0-3.73-.14-5.59a29.64,29.64,0,0,0-3.24-12.35c-1.7-3.29-3.24-6.66-5.85-9.37a3.6,3.6,0,0,0-2-1c4.15,5.71,7.43,11.9,8.73,18.69S188.75,153.65,189.35,160.1Z" style="fill:#e3e3e3"/><path d="M256.24,217.16a100.58,100.58,0,0,0,32.15-7.76c-1.08.21-2.16.4-3.22.65a9.79,9.79,0,0,1-2,.6c-4,0-7.61,1.52-11.24,3.06-1.27.54-2.88.29-4.33.41a21.5,21.5,0,0,0-4.28.43C260.92,215.26,258.6,216.27,256.24,217.16Z" style="fill:#e3e3e3"/><path d="M83.74,85.54c-1.57.61-3.18,1.16-4.7,1.88-.4.19-.55.93-.81,1.42a4.92,4.92,0,0,0,1.52.32,19.65,19.65,0,0,1,10,1.53,4.77,4.77,0,0,0,1.57.07,4.78,4.78,0,0,0-.28-1.64c-1-1.79-2.19-3.44-4.72-3a9.88,9.88,0,0,1-2.41-.16Z" style="fill:#e3e3e3"/><path d="M63.79,137c-1.22,3.35-2.36,6.5-3.5,9.64l.43.35c.7-.41,1.42-.79,2.12-1.22a23.28,23.28,0,0,1,2.15-1.4c1.18-.57,1.45-1.14,1.53-2.68.1-2.12-.53-3.08-2.2-3.85C64.11,137.7,64,137.33,63.79,137Z" style="fill:#e3e3e3"/><path d="M254.14,185.62c1.15,0,2.3.08,3.44.15,1.48.09,3,.21,4.44.32.23,0,.48.19.67.13,3.1-.92,6.2-1.83,9.28-2.81,1-.33,2-.84,3-1.26a5,5,0,0,0,1.72-1c-1.66.18-3.52-.81-4.87,1a1.42,1.42,0,0,1-.72.46c-4.15,1-8.1,2.91-12.54,2.41a38.31,38.31,0,0,0-4.42,0Z" style="fill:#e3e3e3"/><path d="M257,187.83l-1.44-.32c-1.83-.42-3.65-.87-5.49-1.23-3.31-.65-3.81-3.45-4.7-6-.23-.67-.61-1.31-.79-2a14,14,0,0,1-.25-2.06c-.05-.41-.09-.82-.14-1.24-.44.19-1.12.27-1.27.59a2.55,2.55,0,0,0-.13,1.78,40,40,0,0,0,2.74,6.73c.88,1.49,2,3.14,4.13,3.35s4.07.66,6.11.94a3.63,3.63,0,0,0,1.25-.26Z" style="fill:#e3e3e3"/><path d="M257.77,180.81c-1.44-3.16-4-3.47-6.9-3.17-.54.06-1.12-.37-1.75-.6C249.43,178.78,255.05,181.16,257.77,180.81Z" style="fill:#e3e3e3"/><path d="M98.68,102.64c3.57-1.3,6.76-3.88,11-2.82l0-.82a8.18,8.18,0,0,0-2.12-.51C102.82,98.6,99.62,100,98.68,102.64Z" style="fill:#e3e3e3"/><path d="M185,196.88c.39,5.07,4.23,7.58,7.59,10.46Z" style="fill:#e3e3e3"/><path d="M247.21,205.1c1.24.67,2.43,1.75,3.74,1.93,4.34.59,8.73.85,13.1,1l-16.88-2.91Z" style="fill:#e3e3e3"/><path d="M28.52,224.69c2.91-1.9,3.7-5.63,1.69-7.79C29.61,219.68,29.06,222.19,28.52,224.69Z" style="fill:#e3e3e3"/><path d="M238.15,236.54c1.73.63,3.45,1.29,5.19,1.86.28.09.69-.25,1-.39-.17-.39-.24-1-.52-1.15a13,13,0,0,0-5.47-1.13Z" style="fill:#e3e3e3"/><path d="M82.53,76.37l-3.3-6.07C78.45,73.8,79.48,75.72,82.53,76.37Z" style="fill:#e3e3e3"/><path d="M314.32,183.06l11.4-4-.19-.63-11.44,3.79Z" style="fill:#e3e3e3"/><path d="M92.88,108.55l5.2-4.9C95.8,103.39,92.92,106.21,92.88,108.55Z" style="fill:#e3e3e3"/><path d="M318.34,165.74c-1.5-1.32-2.54-2.21-4-1.34-.35.2-.76.7-.73,1a1.25,1.25,0,0,0,.92.82C315.63,166.18,316.76,166,318.34,165.74Z" style="fill:#e3e3e3"/><path d="M288.34,204.79c-1.6-1.3-1.6-1.3-6,.88Z" style="fill:#e3e3e3"/><path d="M187.39,171.21c.61-2.8,1.23-5.6,1.84-8.4l-.58-.14L186.82,171Z" style="fill:#e3e3e3"/><path d="M119.5,80.21c-.16-1.25-.3-2.51-.51-3.76,0-.19-.51-.49-.62-.44-.26.13-.62.5-.57.7.26,1.23.62,2.44,1,3.65Z" style="fill:#e3e3e3"/><path d="M65.11,132.5a15.69,15.69,0,0,0-1.1,2,2.22,2.22,0,0,0,0,1.3c0,.12.71.24.9.1.36-.28.82-.75.82-1.13A9.44,9.44,0,0,0,65.11,132.5Z" style="fill:#e3e3e3"/><path d="M214.93,244.15c-.79-.32-1.56-.66-2.37-.91a11.08,11.08,0,0,0-.5,1.15l2.47.77Z" style="fill:#e3e3e3"/><path d="M247.17,205.13l-5.91-3.76-.27.46c1.83,1.51,3.7,2.94,6.21,3.27Z" style="fill:#e3e3e3"/><path d="M319,187.13a5.89,5.89,0,0,0,.28.81l2.8.11c0-.25,0-.73-.09-.73C321,187.22,320.1,187.19,319,187.13Z" style="fill:#e3e3e3"/><path d="M86.29,130.47l.9-5.33-.73-.1C85.48,126.78,86.51,128.71,86.29,130.47Z" style="fill:#e3e3e3"/><path d="M266.06,181.24H270l0-.62-3.93-.19Z" style="fill:#e3e3e3"/><path d="M43.14,214.22c.28.23.53.61.84.68a10,10,0,0,0,2.12.12c.07,0,.14-.5.21-.77-.62-.13-1.22-.3-1.84-.39a7.48,7.48,0,0,0-1.16,0Z" style="fill:#e3e3e3"/><path d="M295.69,207.57l-4,1.12.08.44,4.1-.59Z" style="fill:#e3e3e3"/><path d="M199.18,245.6v-4.8l-.31,0v4.77Z" style="fill:#e3e3e3"/><path d="M257.65,211.44l3.88.54C260.45,210.69,259.5,210.57,257.65,211.44Z" style="fill:#e3e3e3"/><path d="M51.8,220.29l1.88,2.65.72-.53-2-2.6Z" style="fill:#e3e3e3"/><path d="M17.64,300.11A10.7,10.7,0,0,0,16.55,302c-.05.14.77.78.85.72a3,3,0,0,0,1-1.2C18.51,301.24,18.06,300.8,17.64,300.11Z" style="fill:#e3e3e3"/><path d="M131.32,49.09c1.05-.77,2.2-1.44,2.57-2.69l-3.21,2.12Z" style="fill:#e3e3e3"/><path d="M81.17,58.69c.25-1.13.5-2.26.76-3.39l-.63-.17-1,3.36Z" style="fill:#e3e3e3"/><path d="M76.29,65.9l.43,3.52C78,68.33,77.94,67.34,76.29,65.9Z" style="fill:#e3e3e3"/><path d="M283.9,222.49,281,223.64l.18.56,3-.9Z" style="fill:#e3e3e3"/><path d="M224.4,181.76l2.15,2.68.53-.44-2.14-2.68Z" style="fill:#e3e3e3"/><path d="M231.43,197.27l1,1.39.77-.77-1.19-1.17Z" style="fill:#e3e3e3"/><path d="M259.55,214l-2.77-.29-.06.76,2.87.24Z" style="fill:#e3e3e3"/><path d="M309.57,137.16a15.09,15.09,0,0,0-3.06-1.18c-7.87-1.29-15.74-2.72-23.66-3.62a23.26,23.26,0,0,0-11.77,1.54c-4.81,2-9.79,3.6-14.65,5.46-2.68,1-5.28,2.23-8.25,3.5.78.27,1.4.73,1.94.64a41.67,41.67,0,0,0,4.64-1.1c1.72-.48,3.4-1.11,5.13-1.54,2.31-.56,4.65-1,7-1.46a81.56,81.56,0,0,1,8.93-1.79,74.84,74.84,0,0,1,16.12-.19c5.44.66,11,.43,16.49.56a3.28,3.28,0,0,0,1-.33Z" style="fill:#e3e3e3"/><path d="M302.25,125.54a4.75,4.75,0,0,0-1-.61c-3.62-1-7.21-2-10.87-2.78s-7.09-1.16-10.65-1.69c-5-.76-9.79.56-14.38,2.43-3.21,1.3-6.32,2.85-9.45,4.34a7.67,7.67,0,0,0-1.39,1.12l.3.61a20.35,20.35,0,0,0,3.54-1.27,37.81,37.81,0,0,1,17.75-5.42c7.65-.29,15,1.43,22.33,3.11C299.65,125.65,300.71,127.13,302.25,125.54Z" style="fill:#e3e3e3"/><path d="M276.49,112.09c-11.8-2.47-21.73,2.81-31.87,7.26l.08.6a3.52,3.52,0,0,0,1.17,0c5.73-2,11.37-4.3,17.18-6,3.69-1.07,7.63-1.27,11.46-1.83A14.53,14.53,0,0,1,276.49,112.09Z" style="fill:#e3e3e3"/><path d="M272.55,169.81l-12.77-3.92c-.33.66-.63,1.28-1.15,2.35l13.88,2.15Z" style="fill:#e3e3e3"/><path d="M347.66,74.38l-2.58-1.86-.37.47,2.5,1.94Z" style="fill:#e3e3e3"/><path d="M153.54,29.46a11.69,11.69,0,0,0-6.5-1.54c-.26,0-.64.46-.75.78s.3.67.54.73C148.89,30,151,30.45,153.54,29.46Z" style="fill:#e3e3e3"/><path d="M208,22.43l-1.36-.07c0-.22-.07-.43,0-.53,1.09-1.27,2.11-2.53,4-2.9,2.54-.51,5-1.37,7.55-1.9,1.85-.39.69-1.47.69-2.27s-.48-1.47-1.45-1-1.85,1-2.8,1.4a18.66,18.66,0,0,1-4.33,1.66c-6.2.94-8.33,5.07-9,10.45-.16,1.23.42,1.53,1.43.93,1.41-.84,3-1.36,3.59-3.3.23-.75,1.45-1.19,2.21-1.78Z" style="fill:#e3e3e3"/><path d="M199.64,27.47,201,22.06C199.08,23,198.59,24.79,199.64,27.47Z" style="fill:#e3e3e3"/><path d="M279.26,577.49c-1.6-.94-3.17-1.93-4.79-2.81-1.27-.69-2.64-1.19-3.92-1.87-1.93-1-4.06-1.78-5.23-3.87a2.91,2.91,0,0,0-1.14-1.06c-6.26-3.25-12.4-6.77-19.24-8.75a38,38,0,0,1-5.21-2.26c-3-1.38-5.92-2.88-8.95-4.14-2.62-1.1-5.34-2-8-2.88a4.19,4.19,0,0,0-2-.16c3.17,2,6.37,4,9.52,6,.87.57,1.81,1.18.36,2.39-.49.41-.24,1.73-.27,2.64,0,.61.06,1.21.09,1.81a11.53,11.53,0,0,1-2.1-.71,6.8,6.8,0,0,1-1.28-1.24l-.51.43a5.23,5.23,0,0,0,.86,1.22c1.69,1.38,3.2,2.57,3.57,5.17a5.28,5.28,0,0,0,3.71,4.15c.4.1.77.61,1,1,1.1,2,1.93,4.24,4.27,5.31.42.2.7.86.91,1.36.65,1.55,1.23,3.13,1.95,5,1.7-1.87-1-2.66-.19-4.12,1.37-.28,1.82-1.4,2-2.85a47.5,47.5,0,0,1,1-4.68c.47-1.91-1.32-2.39-2.17-3.42-1.2-1.45-1.2-1.85.53-2.57,1.08-.45,1.76-1.08,1.4-2.4a5.54,5.54,0,0,1,0-1.47,4.67,4.67,0,0,1,1.81.1c2.86,1.41,5.65,2.95,8.49,4.41,3.34,1.72,6.68,3.45,10.06,5.1,3.69,1.82,7.41,3.57,11.14,5.31a13.62,13.62,0,0,0,2,.61Z" style="fill:#e3e3e3"/><path d="M180.14,522l-4,4.27a15.92,15.92,0,0,0-1.53,1.66c-.28.38-.61,1.15-.45,1.34.37.42,1.21,1,1.54.8,1.3-.64,3.05-1.27,3.56-2.39C180,525.93,179.9,523.81,180.14,522Z" style="fill:#e3e3e3"/><path d="M182.82,532.85l1.4-1.14a12.56,12.56,0,0,0-1.48-1.44,1.38,1.38,0,0,0-1.14-.25c-.78.3-1.93.63-2.13,1.22-.43,1.25.92,1.13,1.66,1.37A12.89,12.89,0,0,0,182.82,532.85Z" style="fill:#e3e3e3"/><path d="M158.38,573.55c.52-.63,1-.95,1-1.2a13.74,13.74,0,0,0-.73-2.8c-.07-.18-.94-.3-1-.21-.28.51-.67,1.17-.55,1.65A13.25,13.25,0,0,0,158.38,573.55Z" style="fill:#e3e3e3"/><path d="M243,687.63,241.5,686c-.34.49-1,1-.95,1.48s.67,1.14,1,1.71Z" style="fill:#e3e3e3"/><path d="M251.88,558.7c1.22-1.1.33-3-2.3-4.3Z" style="fill:#e3e3e3"/><path d="M159.18,578.67c1.63-1.21,1.56-2.07-.3-3.91C159,576.07,159.07,577.28,159.18,578.67Z" style="fill:#e3e3e3"/><path d="M165.59,628.08c.39-.61.86-1.08.77-1.25a4.71,4.71,0,0,0-1.09-1c-.24.32-.72.67-.67.94S165.1,627.46,165.59,628.08Z" style="fill:#e3e3e3"/><path d="M282.15,671c.43-.58.86-.93.93-1.34,0-.22-.68-.84-.81-.78a2.61,2.61,0,0,0-1.08,1C281.12,670,281.7,670.51,282.15,671Z" style="fill:#e3e3e3"/><path d="M225.34,664.27l.4-2.51-.84-.16-.53,2.47Z" style="fill:#e3e3e3"/><path d="M210.65,545.93l-2.81-.24-.07.76,2.83.22Z" style="fill:#e3e3e3"/><path d="M230.05,508.43l2.06.36c0-.3.09-.86,0-.88a17.69,17.69,0,0,0-1.93-.34Z" style="fill:#e3e3e3"/><path d="M338.29,587.12c-.57.18-1.15.35-1.7.58a4.17,4.17,0,0,0,.15.73l1.81-.45Z" style="fill:#e3e3e3"/><path d="M90.7,178.19c1.33-2.05,2-4.69,4.5-5.77a63.71,63.71,0,0,1,18.16-4.49c9.33-1,18.71-1.92,28.13-1.24,3.53.26,7.09.35,10.37,1.93a3.21,3.21,0,0,1,1.45,1.14c2.67,5.09,5.27,10.21,7.9,15.32a12.22,12.22,0,0,0,1.11,1.49c1.76-2.9,3.35-5.51,4.92-8.11.16.08.31.17.46.26-1.37,2.45-2.79,4.88-4.08,7.38a4.57,4.57,0,0,0-.64,2.73,12.66,12.66,0,0,0,1.81,4.48,16.25,16.25,0,0,1,3.05,10.48c-.11,2-.58,2.58-2.37,1.61a2.79,2.79,0,0,1-1.1-2.37,5.28,5.28,0,0,0-1.78-5.1c-.12-1.85-.23-3.42-.33-5l-.92,0c-.29,2.29-.58,4.59-.9,7.15-2.49-2.76-.76-5.48-.36-7.9.36-2.14.68-3.91-.73-5.65l-2.09.45c.28-1.27.48-2.22.78-3.55-.77.65-1.16,1-1.69,1.45a18.56,18.56,0,0,1-1-2.06,10.8,10.8,0,0,0-.62-2.32,28.87,28.87,0,0,0-2.64-3.08l-2.88,2.4c-.16-1.38-.26-2.32-.38-3.33-1.61.42.52,5.86-3.45,2.41-2.09,2.54-2.09,2.54-2.89,1,1.71-.36,1.34-1.54.91-2.69l1.82-1.1,1.49,1.86c.53-3.73-2-6-4.51-5.13-2.21-1.23-4-2.88-5.85-3.11a94.83,94.83,0,0,0-12.51-.28,26.58,26.58,0,0,0-4.46.79,1.39,1.39,0,0,0,.69.83l1.4.83A8.36,8.36,0,0,1,120,173a8.27,8.27,0,0,1-1.82.36l0,.79,5.2,1c0,.08,0,.48-.1.5-1.12.23-2.27.36-3.4.53a72.38,72.38,0,0,1,22,15,2.08,2.08,0,0,1-1.31-.39c-2.19-1.62-4.27-3.4-6.57-4.84-3.86-2.43-7.78-4.81-11.85-6.84a9.38,9.38,0,0,0-5.72-.9,80.16,80.16,0,0,0-10.32,3.46c-.53.19-.89.85-1.32,1.29a5.68,5.68,0,0,0,1.52.87c1.91.4,4,.32,5.76,1.11,3.92,1.78,8.36,2.39,11.81,5.32,1,.86,2.53,1.32,3.26-.78.5,1,.72,2.08,1.38,2.51,2.13,1.39,4.4,2.58,6.66,3.76,1,.53,2,.75,2.06-1.28l2.45,1.47-2.22.68a14.09,14.09,0,0,0,2,1.25,33.48,33.48,0,0,1,4.86,1.8c2.59,1.5,5,3.32,7.44,5l-1.49,1.08,8.21,3.1c-1.18,1.75-2.37,2-3.8,1.39-1.7-.68-3.52-1.09-5.29-1.62-.06.18-.13.37-.19.56l2.83,1.35c-.06.22-.13.43-.2.65-1-.2-2-.41-3.06-.59a5,5,0,0,0-1.09,0,.69.69,0,0,0-.1.45,3.52,3.52,0,0,0,1,.55c.57.17,1.17.26,1.76.39,0,.21,0,.41,0,.62l-5.25.91c-.14-.44-.28-.91-.53-1.74-.57.6-.87,1.17-1.31,1.33s-1.54.3-1.77,0c-1.59-2.07-3.55-1.88-5.79-1.44a30.29,30.29,0,0,1-6.51.53,7.12,7.12,0,0,1-5.76-3.15,2.29,2.29,0,0,0-1-.88c-1.27-.43-2.56-.74-3.9-1.11.29-.33.64-.75,1.3-1.53l-2.9-1.25-.34.35c-.45-1.4-.88-2.8-1.36-4.18a3.21,3.21,0,0,0-.62-.83,17.8,17.8,0,0,0-11.26-6.39c-1.8-.33-3.8-.1-4.64-2.33-.06-.17-.38-.25-.59-.34-2.3-1-4.5-2.39-5.44-4.79a57.83,57.83,0,0,1-1.86-7.33A.25.25,0,0,1,90.7,178.19Zm14.58,13.49c4.53-.05,7.31,3.17,10.55,5.52a42.46,42.46,0,0,0,4.27,3c3.45,1.9,7,3.61,10.47,5.47s7.11,1.33,10.74,1.14c1,0,2-.25,3-.38,0-.17,0-.35,0-.53a7.86,7.86,0,0,0-6.21-1.14c.13-.21.75-.83.75-1.45a2.35,2.35,0,0,0-1.1-1.59c-2.26-1.38-4.56-2.67-6.88-3.92-2.64-1.42-5.32-2.78-8-4.13a40.5,40.5,0,0,0-17-4.32c-.57,0-1.17.81-1.74,1.25C104.51,191,104.9,191.69,105.28,191.68Z" style="fill:#e3e3e3"/><path d="M108.65,250c.45-2,.84-4.11,1.36-6.14.45-1.78,1-3.55,1.61-5.27.12-.32.84-.58,1.29-.59,1.91,0,3.83.09,5.74.11,1,0,1.45.43,1.57,1.44a6.16,6.16,0,0,1-.7,4.33,4.4,4.4,0,0,0-.32,2.64c.27,2.11.45,4.09-1.11,5.9-.42.48-.18,1.53-.22,2.32a19,19,0,0,1-.08,2.93c-.46,2.43-1.1,4.82-1.56,7.26-.1.5.29,1.1.45,1.65.4-.33.8-.65,1.19-1,1.64-1.41,1.87-3.15,1.84-5.27,0-1.47,1.47-2.89,1.75-4.44a46.07,46.07,0,0,0,.36-6.45c0-.53,0-1,0-2l1.72,1.54a8.87,8.87,0,0,0,.48-1.8c0-1.46-.15-2.93,0-4.36a35.39,35.39,0,0,1,1-3.84c.64-2.82,1.22-5.67,1.89-8.49a13.21,13.21,0,0,1,.83-2,11.58,11.58,0,0,1,2.08,1.05c.76.61,1.33,1.44,2,2.11.16.15.53.08,1.15.14a8.8,8.8,0,0,0-2.76-4c-.5-.39-1.23-.73-1.4-1.24-1.14-3.46-4.81-4.12-6.93-6.48-.23-.25-.82-.17-1.25-.25a9.49,9.49,0,0,0-.11,1.29c0,.21.22.4.33.61.53,1.09,2.46,1.61,1.39,3.33-.65,1-1.56,2-2.1,3-.31.65-.45,1.91-.08,2.25,1.26,1.17,1,1.95-.12,2.95a8.81,8.81,0,0,0-1.27,1.91l1.82,2c-1,0-1.51,0-2,0-2.25.08-4.5.16-6.75.26-1.2,0-1.66.77-1.87,1.9-.51,2.66-1.13,5.31-1.71,8l-.48.22-3.9-8.88-.83.39c.84,4,3.31,7.21,4.8,10.89Z" style="fill:#e3e3e3"/><path d="M78.57,311.52c3.15.81,6.23,1.58,9.29,2.42,2,.56,2.83.26,3.75-1.65.68-1.43,2-2.69,1.22-4.25-.86-.39-1.58-.65-2.25-1-1-.6-2.1-1-3.23-.25s-2.1.5-3.09-.43a4,4,0,0,0-5.9-.11,2.33,2.33,0,0,0-.44,1.72A36,36,0,0,0,78.57,311.52Z" style="fill:#e3e3e3"/><path d="M150.07,238.53c0,.05.19.35.32.65,1.08,2.54.29,4.58-2.17,5.78a2.4,2.4,0,0,0-1.23,1.2c-.08.31.56.87.95,1.24,1.66,1.61,3.33,1.61,5.34.42a18.08,18.08,0,0,1,4.56-1.5c1.84-.49,1.64-.83,1.44-2.59-.42-3.84-4-3.56-6.1-5.12C152.52,238.12,151.2,238.53,150.07,238.53Z" style="fill:#e3e3e3"/><path d="M177.34,308.47c.2-1.19.39-2.35.58-3.5l.87,0c.17,1.81.34,3.61.5,5.41l.56,0c1.15-3.07-.15-6.12-.12-8.92l-3.68,1.87c-5.82-2-5.18-7.2-5.56-11.93-1.27.86-1.59,2-1,6.57A13,13,0,0,0,177.34,308.47Z" style="fill:#e3e3e3"/><path d="M203.36,266.69c.69-.75,1.33-1.55,2.09-2.23,1.58-1.41,3-1,3.63,1,.4,1.21.9,2.39,1.35,3.59,1.16,3.14.07,6.19-.45,9.24a25.87,25.87,0,0,0-.74,4.12,7.8,7.8,0,0,0,.95-1.58c1.45-4.75,3.17-9.48,1.76-14.56a55.83,55.83,0,0,0-2-5.93c-.46-1.12-1.48-1.24-2.46-.51a13.84,13.84,0,0,0-4.59,6.46Z" style="fill:#e3e3e3"/><path d="M177.43,326.05a15,15,0,0,0,2.31-.59,1.25,1.25,0,0,0,.58-1c-.19-1.88-.49-3.75-.77-5.75-.6.43-1.2,2.22-2.14-.15l-.89,3.9-.67.26c.33-2.71-2-2.7-3.23-3.79a1,1,0,0,0-1-.07c-.45.49-1.06,1.14-1,1.69.09,1.25.37,2.54,1.92,3a17.09,17.09,0,0,1,2,1.07c.65.29,1.38.4,2,.69a4.57,4.57,0,0,1,1,.76Z" style="fill:#e3e3e3"/><path d="M171.08,133.27c3.65,10.87,5.93,21.82,1.72,33.17C179.24,155,175.18,144.1,171.08,133.27Z" style="fill:#e3e3e3"/><path d="M113.35,154.22c-1.61-.91-2.79-2.46-4.92-2.19-1.48.19-1.74.36-1.31,1.88a14.65,14.65,0,0,1,.25,1.88c.23,1.78.6,2,2.21,1.22l1.13-.57-.34,1.62C112.32,157.89,113.09,156.89,113.35,154.22Z" style="fill:#e3e3e3"/><path d="M104.08,366.07c-2.34-.07-3.86,1.37-3.93,3.21a3.07,3.07,0,0,0,3,3.36,1.29,1.29,0,0,0,1.58-1.38,32.39,32.39,0,0,0,.11-3.81C104.78,366.9,104.25,366.38,104.08,366.07Z" style="fill:#e3e3e3"/><path d="M125,332.51c-1.39-.73-2-2.27-3.89-1.12-.49.31-1.67-.44-2.51-.77a10.31,10.31,0,0,1-1.38-.75l-.36.44,1.19,1.44a15,15,0,0,0-2.37,1.44c-.37.33-.39,1-.57,1.58.71.25,1.42.49,2.14.72.08,0,.22-.08.3-.16,1.8-1.74,4-2.17,6.43-2.24C124.16,333.08,124.39,332.84,125,332.51Z" style="fill:#e3e3e3"/><path d="M154.73,163.71c-2.11.6-4.06-2.2-5.95.5l7.31,1.6,1.87-2.92c-1.6-.51-2.73-2.66-5.33-1.69C153.36,162.06,153.92,162.74,154.73,163.71Z" style="fill:#e3e3e3"/><path d="M96.39,359.56a28,28,0,0,0-3.6,2.61,1,1,0,0,0,1,1.74,29.23,29.23,0,0,0,4.61-1c.46-.14,1.09-.72,1.1-1.1s-.57-.93-1-1.25A13.59,13.59,0,0,0,96.39,359.56Z" style="fill:#e3e3e3"/><path d="M84.43,340.88c-.05,1.12,1.84,2.7,3.41,2.75,1.3,0,2.14-1,1.83-2A4.2,4.2,0,0,0,87.45,339,2.36,2.36,0,0,0,84.43,340.88Z" style="fill:#e3e3e3"/><path d="M103.4,332.68a1.74,1.74,0,0,0,1.86,1.9,2,2,0,0,0,1.57-.58c1.3-2.28,1.72-2.4,3.54-.51,1.44-1.19,2.28-.19,3,1.13l.38-.22c0-.72-.1-1.45-.17-2.37l1.21-.79-.07-.3a12.4,12.4,0,0,0-1.57.49,3.94,3.94,0,0,1-4.24-.11c-1.1-.77-2.11-.45-2.46.8-.46,1.66-1.18,1.61-2.31.67C104,332.68,103.76,332.73,103.4,332.68Z" style="fill:#e3e3e3"/><path d="M138,340.51a1.94,1.94,0,0,0,2.19,2.09,2.49,2.49,0,0,0,2.42-2.44c0-1.45-1.06-1.82-2.22-1.86A2.27,2.27,0,0,0,138,340.51Z" style="fill:#e3e3e3"/><path d="M114.17,217.12c-.32.25-1,.54-.93.74.67,4.11-2.24,8-1,12.16l.68.07,1.68-12.74Z" style="fill:#e3e3e3"/><path d="M144.66,331.84a23.14,23.14,0,0,0-2.74,2,1.57,1.57,0,0,0-.17,1.54,1.8,1.8,0,0,0,1.62.52,10.07,10.07,0,0,0,2.63-1.82,1.69,1.69,0,0,0,.45-1.49C146.28,332.21,145.51,332.15,144.66,331.84Z" style="fill:#e3e3e3"/><path d="M125.78,334.63l3.35-1.48,1.07,1.54,1.55-1.87-2.26-3.66c-1.4.42-1.41.46-.56,2.54l-2.42,3.45Z" style="fill:#e3e3e3"/><path d="M33,296.76c.28-1,.59-2.05.82-3.1a3.79,3.79,0,0,0-.08-1.1c-.4.11-1,.08-1.17.35a22,22,0,0,0-2,3.45,1.66,1.66,0,0,0,.41,1.51,2.16,2.16,0,0,0,1.72.44c.35-.09.52-.89.77-1.38Z" style="fill:#e3e3e3"/><path d="M95.93,235.09c3.72-1.34,4.93-4.13,3.18-7.59a16.25,16.25,0,0,1-.89,4.12,15.65,15.65,0,0,1-2.75,3.1Z" style="fill:#e3e3e3"/><path d="M179.56,312.28a8.34,8.34,0,0,1-1.62-.66,3.69,3.69,0,0,1-.72-.92,21,21,0,0,0-1.7,4c-.13.7.68,1.59,1.07,2.39l.72-.13a8.31,8.31,0,0,0,.31-2c-.1-1.09-.15-2,1.32-2C179.08,313,179.22,312.69,179.56,312.28Z" style="fill:#e3e3e3"/><path d="M115.3,346.93s-.1.1-.09.13c.24.74.91,1.68.67,2.16a25.21,25.21,0,0,1-2.5,3.31,11.17,11.17,0,0,0-.78,1.4,14.53,14.53,0,0,0,1.48-.73,5.72,5.72,0,0,0,2.65-2.61A2.53,2.53,0,0,0,115.3,346.93Z" style="fill:#e3e3e3"/><path d="M108.75,222.05c-1.93,1.86-3.73,4.14-6.81,1.44.55,1.53,3.18,3,4.11,2.75S108.9,223.23,108.75,222.05Z" style="fill:#e3e3e3"/><path d="M109.2,336.82l2.68,5.68a5.07,5.07,0,0,0-1.5-5.49C110.11,336.78,109.55,336.87,109.2,336.82Z" style="fill:#e3e3e3"/><path d="M34.46,303.73c-.42-.26-.68-.54-1-.59-1-.16-1.56-.61-1.4-1.75a1.13,1.13,0,0,0-.45-.82c-.09-.08-.68.18-.68.29,0,.92-.32,2.26.16,2.67C31.88,304.18,33.13,305.27,34.46,303.73Z" style="fill:#e3e3e3"/><path d="M93.19,236.27c-.73.89-1.53,1.45-1.68,2.16s1.66,1.35,3.13.94Z" style="fill:#e3e3e3"/><path d="M129.48,191.37l5.89,3.28A5.6,5.6,0,0,0,129.48,191.37Z" style="fill:#e3e3e3"/><path d="M177.46,326.06a11.12,11.12,0,0,1-.59,1,1.66,1.66,0,0,0,.19,2.58,11.4,11.4,0,0,1,1.38,2c.21-.49.51-.85.44-1.11-.43-1.52-.95-3-1.45-4.52Z" style="fill:#e3e3e3"/><path d="M116.56,341.83c.78,1.48-2.42.95-1,2.37.52.51,2.13-.08,3.24-.16l-1.65-2.33Z" style="fill:#e3e3e3"/><path d="M124.91,338.37l4-1.75-.29-.89a26,26,0,0,0-3.4,1C124.94,336.81,125,337.69,124.91,338.37Z" style="fill:#e3e3e3"/><path d="M43,256.6,36,252.87l-.31.59,6.91,3.77Z" style="fill:#e3e3e3"/><path d="M137.72,352.69l1.22-1.72a10.3,10.3,0,0,0-1.88-1.17c-.2-.08-1,.73-.95.8A22.78,22.78,0,0,0,137.72,352.69Z" style="fill:#e3e3e3"/><path d="M159.64,236.59l2.22,1.7c.24-.33.76-.8.68-1a5.62,5.62,0,0,0-1.31-1.75C161.13,235.47,160.41,236.08,159.64,236.59Z" style="fill:#e3e3e3"/><path d="M200.58,271.78c-.56.8-1.19,1.46-1.09,1.6a5.23,5.23,0,0,0,1.63,1.4c.12.07,1-.81.95-1A11.86,11.86,0,0,0,200.58,271.78Z" style="fill:#e3e3e3"/><path d="M122.61,340.66c.46-.71,1-1.17,1-1.57s-.57-.94-.89-1.41a15.82,15.82,0,0,0-1.45,1.73A11.79,11.79,0,0,0,122.61,340.66Z" style="fill:#e3e3e3"/><path d="M107,124.38c.25-1.31.5-2.63.83-4.33C106.14,121,105.94,122.06,107,124.38Z" style="fill:#e3e3e3"/><path d="M189.48,278c2,1,3.23.63,4.44-1.09Z" style="fill:#e3e3e3"/><path d="M94.5,319.74l-2.69-.8a6.1,6.1,0,0,0-.1,1.22c.85.23,1.74.35,2.62.5Z" style="fill:#e3e3e3"/><path d="M108.84,343.05c1.28-1.55,1-2.88-.47-3.94C108.53,340.46,108.68,341.75,108.84,343.05Z" style="fill:#e3e3e3"/><path d="M126.54,326.44c.48,1.49.91,2.65,2.78,1.65C128.55,327.31,128.37,325.86,126.54,326.44Z" style="fill:#e3e3e3"/><path d="M142.88,158.13a6.82,6.82,0,0,0,1.71,1.14c.23,0,.95-.81.89-.9a3.45,3.45,0,0,0-1.26-1.23C144.05,157.05,143.54,157.62,142.88,158.13Z" style="fill:#e3e3e3"/><path d="M154.25,187.44a12.9,12.9,0,0,0,1.76,1.41c.1.06.82-.61.77-.72a4.84,4.84,0,0,0-1.08-1.52C155.6,186.52,155,187,154.25,187.44Z" style="fill:#e3e3e3"/><path d="M185.82,287.71l2.8-.4c-.22-.42-.32-1-.67-1.23C187,285.52,186.36,286,185.82,287.71Z" style="fill:#e3e3e3"/><path d="M55.75,437.69c-1.56.25-2.41.88-1.28,2.58Z" style="fill:#e3e3e3"/><path d="M107.27,197.56l-2-1.92-.62.63c.63.67,1.25,1.35,1.88,2Z" style="fill:#e3e3e3"/><path d="M57.53,309.2l.73-1A5.19,5.19,0,0,0,57,307.4c-.15,0-.71.54-.72.86a4.9,4.9,0,0,0,.43,1.47Z" style="fill:#e3e3e3"/><path d="M44.16,287.29l2.8.59.19-.72-2.73-.8Z" style="fill:#e3e3e3"/><path d="M19.76,284.64c.42.17.87.53,1.24.46s.75-.54,1.12-.83c-.31-.28-.58-.71-.93-.79s-.69.26-1,.42Z" style="fill:#e3e3e3"/><path d="M105.23,150.76l2.28-1.29C106,148.68,105.21,149.08,105.23,150.76Z" style="fill:#e3e3e3"/><path d="M119.57,345.86a16.15,16.15,0,0,0-1.84,0,4.43,4.43,0,0,0-.09.91h1.9Z" style="fill:#e3e3e3"/><path d="M170.29,173.65l1.65-3.4-.6-.27c-.48,1.16-1,2.32-1.45,3.48Z" style="fill:#e3e3e3"/><path d="M98.6,225.08l-.2-2.8-.85.13c.17.92.35,1.83.52,2.75Z" style="fill:#e3e3e3"/><path d="M107.77,354.62l-2,.26.12.88,2-.28Z" style="fill:#e3e3e3"/><path d="M238.06,177.88c0-1.42-1.89-4.35-3-4.59a.84.84,0,0,0-.59.21.45.45,0,0,0-.06.47c1.09,1.33,2.21,2.64,3.34,3.95C237.78,178,238,177.9,238.06,177.88Z" style="fill:#e3e3e3"/><path d="M255.21,195.28h-4.67l0,.64,4.65-.26Z" style="fill:#e3e3e3"/><path d="M257.4,192.22h-3.15v.47h3.15Z" style="fill:#e3e3e3"/><path d="M272.7,186.49l-3.18,1.36.18.46,3.22-1.26Z" style="fill:#e3e3e3"/><path d="M249.88,224a7.75,7.75,0,0,0,1.56.33c5.56.14,11.14.23,16.54-1.41,2.54-.76,5-1.89,7.49-2.73,3.52-1.17,7.1-2.16,10.6-3.37,2.69-.92,5.3-2.08,7.95-3.13l-.09-.51a26.21,26.21,0,0,0-3.9.63c-3.21,1-6.38,2.1-9.54,3.22-4.59,1.63-9.1,3.48-13.74,4.9s-9.24,1.35-13.93,1.25c-1,0-1.92.11-2.87.16Z" style="fill:#e3e3e3"/><path d="M144.26,205.88a7.86,7.86,0,0,0-6.2-1.14c.12-.21.74-.83.75-1.45a2.37,2.37,0,0,0-1.11-1.59c-2.25-1.38-4.56-2.67-6.88-3.92-2.64-1.42-5.31-2.78-8-4.13a40.5,40.5,0,0,0-17-4.32c-.57,0-1.16.81-1.75,1.25.4.38.79,1.11,1.18,1.1,4.52-.05,7.3,3.17,10.54,5.52a42.46,42.46,0,0,0,4.27,3c3.45,1.9,7,3.61,10.47,5.47s7.1,1.33,10.74,1.14c1,0,2-.25,3-.38Z" style="fill:#e3e3e3"/></g></g></svg>